<svg width="26" height="26" viewBox="0 0 26 26" fill="none" xmlns="http://www.w3.org/2000/svg">
<path fill-rule="evenodd" clip-rule="evenodd" d="M9.4643 0H16.5357C17.2066 0 17.7499 0.528897 17.75 1.18182V2.36363H20.1785C21.1828 2.36363 22 3.15905 22 4.13638V24.2272C22 25.2046 21.1827 26 20.1785 26H5.82145C4.8172 26 4 25.2046 4 24.2272V4.13638C4 3.15899 4.8172 2.36363 5.82145 2.36363H8.25002V1.18182C8.25002 0.528897 8.79344 0 9.4643 0ZM20.7856 4.13632C20.7856 3.81017 20.5136 3.54545 20.1785 3.54545L16.5357 3.54551H9.4643H5.82145C5.48634 3.54551 5.21434 3.81023 5.21434 4.13638V24.2272C5.21434 24.5533 5.48634 24.8181 5.82145 24.8181H20.1785C20.5136 24.8181 20.7856 24.5533 20.7856 24.2272V4.13632ZM7.42859 17.7272H18.5714C19.1237 17.7272 19.5714 18.1749 19.5714 18.7272V22.6363C19.5714 23.1886 19.1237 23.6363 18.5714 23.6363H7.42859C6.8763 23.6363 6.42859 23.1886 6.42859 22.6363V18.7272C6.42859 18.1749 6.8763 17.7272 7.42859 17.7272Z" fill="#5EB1BF"/>
</svg>
