<svg width="26" height="26" viewBox="0 0 26 26" fill="none" xmlns="http://www.w3.org/2000/svg">
<g id="Frame 16">
<path id="Vector (Stroke)" fill-rule="evenodd" clip-rule="evenodd" d="M10.1033 5.69089C10.1024 5.71975 10.102 5.74871 10.102 5.77778C10.102 6.49343 10.3624 7.14876 10.7964 7.65443C11.4758 7.37586 12.2199 7.22222 13 7.22222C13.2975 7.22222 13.5898 7.24456 13.8752 7.28766C14.2485 6.33302 14.8777 5.47054 15.7331 4.81406C15.3352 3.69277 14.2614 2.88889 13 2.88889C11.4909 2.88889 10.2512 4.03876 10.1145 5.50754C10.1147 5.56851 10.111 5.62974 10.1033 5.69089ZM7.25505 6.5477C6.08191 6.33052 4.84661 6.85556 4.2159 7.94454C3.46117 9.24766 3.84063 10.8932 5.04892 11.7454C5.10135 11.7754 5.15211 11.8089 5.20083 11.8456C5.22578 11.861 5.25105 11.876 5.27662 11.8908C5.89858 12.2488 6.59851 12.3516 7.25507 12.2295C7.39762 11.1631 7.83192 10.1887 8.47535 9.38869C7.83248 8.58907 7.39768 7.61455 7.25505 6.5477ZM11.3802 10.6041C10.609 11.1232 10.102 12.0026 10.102 13C10.102 13.0586 10.1037 13.1168 10.1072 13.1745C10.1074 13.1783 10.1077 13.1822 10.1079 13.1861C10.1745 14.2299 10.797 15.123 11.6837 15.5744C11.7014 15.5827 11.7189 15.5914 11.7363 15.6005C12.1182 15.7853 12.547 15.8889 13 15.8889C13.5848 15.8889 14.1291 15.7162 14.5845 15.4193C14.5957 15.4116 14.607 15.4042 14.6183 15.3969C15.3903 14.8779 15.898 13.9981 15.898 13C15.898 12.9414 15.8963 12.8832 15.8928 12.8254C15.8926 12.8216 15.8924 12.8178 15.8921 12.814C15.8256 11.7703 15.2031 10.8771 14.3165 10.4257C14.2986 10.4173 14.2809 10.4085 14.2634 10.3994C13.8816 10.2147 13.4529 10.1111 13 10.1111C12.4159 10.1111 11.8721 10.2834 11.417 10.5797C11.4049 10.5881 11.3926 10.5962 11.3802 10.6041ZM16.5418 8.42607C17.3671 9.06203 18.0155 9.91501 18.401 10.8992C19.4167 10.7444 20.4803 10.8563 21.4781 11.2665C22.2533 10.3623 22.4148 9.03335 21.7841 7.9443C21.0296 6.64176 19.4114 6.14647 18.0673 6.76224C18.0139 6.7932 17.9583 6.82089 17.9008 6.845C17.8755 6.85857 17.8504 6.87255 17.8254 6.88695C17.2032 7.24501 16.7639 7.79802 16.5418 8.42607ZM18.4002 3.67553C20.6912 3.3278 23.0652 4.37867 24.2939 6.49985C25.5224 8.62116 25.2484 11.1956 23.8007 12.9998C25.2483 14.8037 25.5224 17.3787 24.2939 19.4999C23.0653 21.6212 20.6918 22.6718 18.4006 22.3241C17.5573 24.4758 15.4572 26 13 26C10.5429 26 8.44336 24.4763 7.59983 22.3244C5.30885 22.6722 2.93468 21.6213 1.70613 19.5002C0.4775 17.3788 0.751551 14.8044 2.19928 13.0002C0.751711 11.1964 0.477585 8.62134 1.70615 6.5001C2.93475 4.3788 5.30826 3.32819 7.59945 3.67589C8.4428 1.52421 10.5428 0 13 0C15.4572 0 17.5567 1.52373 18.4002 3.67553ZM4.21584 18.0557C3.58514 16.9667 3.74667 15.6377 4.52196 14.7335L4.21584 18.0557ZM4.52196 14.7335C5.51972 15.1437 6.58328 15.2556 7.599 15.1008C7.98451 16.085 8.63294 16.938 9.45821 17.5739C9.23609 18.2019 8.7968 18.7549 8.17464 19.113C8.14919 19.1276 8.12352 19.1419 8.09782 19.1557C8.04128 19.1795 7.98663 19.2067 7.93413 19.2371C6.58973 19.8539 4.97054 19.3586 4.21584 18.0557M10.2669 21.1858C11.1223 20.5294 11.7515 19.667 12.1248 18.7123C12.4102 18.7554 12.7025 18.7778 13 18.7778C13.7801 18.7778 14.5243 18.6241 15.2036 18.3456C15.6376 18.8512 15.898 19.5065 15.898 20.2222C15.898 20.2514 15.8976 20.2805 15.8967 20.3095C15.8891 20.3704 15.8854 20.4314 15.8856 20.4922C15.749 21.9611 14.5093 23.1111 13 23.1111C11.7386 23.1111 10.6648 22.3072 10.2669 21.1858ZM18.745 19.4523C19.9181 19.6695 21.1534 19.1444 21.7842 18.0554C22.5389 16.7524 22.1594 15.1067 20.951 14.2545C20.8986 14.2245 20.848 14.1912 20.7993 14.1545C20.7743 14.1391 20.749 14.124 20.7234 14.1092C20.1014 13.7512 19.4015 13.6484 18.745 13.7705C18.6024 14.8369 18.1681 15.8112 17.5247 16.6113C18.1676 17.4109 18.6024 18.3854 18.745 19.4523Z" fill="#5EB1BF"/>
</g>
</svg>
