<svg width="40" height="40" viewBox="0 0 40 40" fill="none" xmlns="http://www.w3.org/2000/svg">
<g id="play-button 1" clip-path="url(#clip0_2355_7560)">
<g id="Group">
<g id="Group_2">
<path id="Vector" d="M20 0C8.95429 0 0 8.95429 0 20C0 31.0456 8.95429 39.9999 20 39.9999C31.0456 39.9999 39.9999 31.0456 39.9999 20C39.9882 8.95923 31.0408 0.0118024 20 0ZM28.4227 20.6372C28.2843 20.9149 28.0592 21.1401 27.7814 21.2786V21.2857L16.3528 27C15.647 27.3526 14.7891 27.0664 14.4363 26.3606C14.336 26.16 14.2844 25.9385 14.2856 25.7143V14.2857C14.2853 13.4967 14.9246 12.8569 15.7136 12.8565C15.9355 12.8564 16.1544 12.9079 16.3528 13.0071L27.7814 18.7214C28.4875 19.0733 28.7747 19.9311 28.4227 20.6372Z" fill="#5EB1BF"/>
</g>
</g>
</g>
<defs>
<clipPath id="clip0_2355_7560">
<rect width="40" height="40" fill="white"/>
</clipPath>
</defs>
</svg>
