<svg width="64" height="64" viewBox="0 0 64 64" fill="none" xmlns="http://www.w3.org/2000/svg">
<path fill-rule="evenodd" clip-rule="evenodd" d="M32 60.274C42.0637 60.274 50.8994 55.0161 55.91 47.0976C46.2012 53.1486 33.5564 53.7818 22.9573 47.6624L22.9575 47.6622C17.5535 44.5355 13.9179 38.6923 13.9179 31.9999C13.9179 31.6394 13.9284 31.2814 13.9492 30.9261C10.6459 37.2648 9.79805 44.7516 11.8278 51.8116C16.9579 57.0345 24.1006 60.274 32 60.274ZM7.03178 45.2786C6.5918 33.8667 12.2928 22.5984 22.8082 16.425C25.5016 14.832 28.6441 13.9177 32 13.9177C35.7056 13.9177 39.1509 15.0324 42.0188 16.9447C38.2053 10.8943 32.1613 6.39088 25.0411 4.58881C12.7908 7.68925 3.72603 18.786 3.72603 32C3.72603 36.7994 4.92184 41.3195 7.03178 45.2786ZM40.0276 48.207C47.1749 47.9295 54.0976 44.9463 59.2185 39.6799C59.9061 37.2379 60.274 34.6619 60.274 32C60.274 16.7608 48.2177 4.33747 33.1229 3.74792C43.1866 9.11681 50.0445 19.7056 50.082 31.8997L50.0822 31.9999C50.0822 39.1032 45.9864 45.2499 40.0276 48.207ZM46.356 31.9159C46.3108 24.0259 39.9007 17.6438 32 17.6438C24.0714 17.6438 17.6439 24.0712 17.6439 31.9999C17.6439 39.9286 24.0714 46.3561 32 46.3561C39.9287 46.3561 46.3562 39.9286 46.3562 32H46.3561L46.356 31.9159ZM32 64C49.6731 64 64 49.6731 64 32C64 14.3269 49.6731 0 32 0C14.3269 0 0 14.3269 0 32C0 49.6731 14.3269 64 32 64Z" fill="#5EB1BF"/>
</svg>
