<svg width="18" height="18" viewBox="0 0 18 18" fill="none" xmlns="http://www.w3.org/2000/svg">
<path fill-rule="evenodd" clip-rule="evenodd" d="M5.625 2.475H12.375C14.1147 2.475 15.525 3.8853 15.525 5.625V12.375C15.525 14.1147 14.1147 15.525 12.375 15.525H5.625C3.8853 15.525 2.475 14.1147 2.475 12.375V5.625C2.475 3.8853 3.8853 2.475 5.625 2.475ZM0 5.625C0 2.5184 2.5184 0 5.625 0H12.375C15.4816 0 18 2.5184 18 5.625V12.375C18 15.4816 15.4816 18 12.375 18H5.625C2.5184 18 0 15.4816 0 12.375V5.625ZM7.7625 5.1V7.7625H5.1C4.76863 7.7625 4.5 8.03113 4.5 8.3625V9.6375C4.5 9.96887 4.76863 10.2375 5.1 10.2375H7.7625V12.9C7.7625 13.2314 8.03113 13.5 8.3625 13.5H9.6375C9.96887 13.5 10.2375 13.2314 10.2375 12.9V10.2375H12.9C13.2314 10.2375 13.5 9.96887 13.5 9.6375V8.3625C13.5 8.03113 13.2314 7.7625 12.9 7.7625H10.2375V5.1C10.2375 4.76863 9.96887 4.5 9.6375 4.5H8.3625C8.03113 4.5 7.7625 4.76863 7.7625 5.1Z" fill="#5EB1BF"/>
</svg>
