<svg xmlns="http://www.w3.org/2000/svg"  viewBox="0 0 12 12" fill="inherit">
<g clip-path="url(#clip0_2167_21094)">
<path d="M2.80827 6.46824L7.92126 11.8083C8.03952 11.9319 8.19738 12 8.3657 12C8.53403 12 8.69189 11.9319 8.81015 11.8083L9.18669 11.4151C9.4317 11.1589 9.4317 10.7425 9.18669 10.4867L4.89318 6.00249L9.19145 1.51326C9.30971 1.38965 9.375 1.22487 9.375 1.04916C9.375 0.873261 9.30971 0.708482 9.19145 0.584775L8.81491 0.191706C8.69656 0.0680972 8.53879 7.31035e-08 8.37047 8.7819e-08C8.20214 1.02534e-07 8.04428 0.0680972 7.92602 0.191706L2.80827 5.53664C2.68973 5.66064 2.62463 5.8262 2.625 6.0022C2.62463 6.17888 2.68973 6.34434 2.80827 6.46824Z" fill="inherit"/>
</g>
<defs>
<clipPath id="clip0_2167_21094">
<rect width="12" height="12" fill="white" transform="matrix(-1 0 0 1 12 0)"/>
</clipPath>
</defs>
</svg>