<svg viewBox="0 0 16 16" fill="inherit" xmlns="http://www.w3.org/2000/svg">
<path d="M12.6726 8.62591L5.85531 15.746C5.69764 15.9108 5.48715 16.0016 5.26272 16.0016C5.03829 16.0016 4.8278 15.9108 4.67013 15.746L4.16808 15.2218C3.84139 14.8802 3.84139 14.325 4.16808 13.9839L9.89275 8.0049L4.16173 2.01926C4.00405 1.85445 3.91699 1.63474 3.91699 1.40047C3.91699 1.16594 4.00405 0.94623 4.16173 0.781288L4.66378 0.257195C4.82158 0.0923835 5.03194 0.00158797 5.25637 0.00158798C5.4808 0.001588 5.69129 0.0923835 5.84896 0.257195L12.6726 7.38377C12.8307 7.5491 12.9175 7.76985 12.917 8.00451C12.9175 8.24009 12.8307 8.46071 12.6726 8.62591Z" fill="inherit"/>
</svg>
