<svg  viewBox="0 0 16 16" fill="inherit" xmlns="http://www.w3.org/2000/svg">
<path fill-rule="evenodd" clip-rule="evenodd" d="M5 2.20049H11C12.5129 2.20049 13.7456 3.40042 13.7982 4.90051H12C10.2879 4.90051 8.90002 6.28843 8.90002 8.00051C8.90002 9.71259 10.2879 11.1005 12 11.1005H13.7982C13.7456 12.6006 12.5129 13.8005 11 13.8005H5C3.4536 13.8005 2.2 12.5469 2.2 11.0005V5.00049C2.2 3.45409 3.4536 2.20049 5 2.20049ZM13.8 8.90051V7.10051H12C11.503 7.10051 11.1 7.50346 11.1 8.00051C11.1 8.49757 11.503 8.90051 12 8.90051H13.8ZM0 5.00049C0 2.23906 2.23858 0.000488281 5 0.000488281H11C13.7614 0.000488281 16 2.23906 16 5.00049V11.0005C16 13.7619 13.7614 16.0005 11 16.0005H5C2.23858 16.0005 0 13.7619 0 11.0005V5.00049Z" fill="inherit"/>
</svg>
