<svg viewBox="0 0 22 22" fill="inherit" xmlns="http://www.w3.org/2000/svg">
<g id="calc_icon">
<path id="calc_icon_2" fill-rule="evenodd" clip-rule="evenodd" d="M6.875 3.025H15.125C17.2513 3.025 18.975 4.7487 18.975 6.875V15.125C18.975 17.2513 17.2513 18.975 15.125 18.975H6.875C4.7487 18.975 3.025 17.2513 3.025 15.125V6.875C3.025 4.7487 4.7487 3.025 6.875 3.025ZM0 6.875C0 3.07804 3.07804 0 6.875 0H15.125C18.922 0 22 3.07804 22 6.875V15.125C22 18.922 18.922 22 15.125 22H6.875C3.07804 22 0 18.922 0 15.125V6.875ZM7.49375 4.39995C6.9242 4.39995 6.4625 4.86165 6.4625 5.4312V6.46245H5.43125C4.8617 6.46245 4.4 6.92415 4.4 7.4937C4.4 8.06324 4.8617 8.52495 5.43125 8.52495H6.4625V9.5562C6.4625 10.1257 6.9242 10.5874 7.49375 10.5874C8.06329 10.5874 8.525 10.1257 8.525 9.5562V8.52495H9.55625C10.1258 8.52495 10.5875 8.06324 10.5875 7.4937C10.5875 6.92415 10.1258 6.46245 9.55625 6.46245H8.525V5.4312C8.525 4.86165 8.06329 4.39995 7.49375 4.39995ZM12.8217 12.9119C12.419 13.3146 12.419 13.9675 12.8217 14.3703L13.5509 15.0995L12.8217 15.8287C12.419 16.2314 12.419 16.8844 12.8217 17.2871C13.2244 17.6898 13.8774 17.6898 14.2801 17.2871L15.0093 16.5579L15.7385 17.2871C16.1412 17.6898 16.7942 17.6898 17.1969 17.2871C17.5997 16.8843 17.5997 16.2314 17.1969 15.8287L16.4677 15.0995L17.1969 14.3703C17.5997 13.9676 17.5997 13.3146 17.1969 12.9119C16.7942 12.5092 16.1413 12.5092 15.7385 12.9119L15.0093 13.6411L14.2801 12.9119C13.8774 12.5091 13.2244 12.5091 12.8217 12.9119ZM5.53393 14.0707C4.96439 14.0707 4.50268 14.5325 4.50268 15.102C4.50268 15.6715 4.96439 16.1332 5.53393 16.1332H8.97739C9.54693 16.1332 10.0086 15.6715 10.0086 15.102C10.0086 14.5325 9.54693 14.0707 8.97739 14.0707H5.53393ZM12.1308 6.24876C12.1308 5.67922 12.5925 5.21751 13.162 5.21751H16.6036C17.1731 5.21751 17.6348 5.67922 17.6348 6.24876C17.6348 6.81831 17.1731 7.28001 16.6036 7.28001H13.162C12.5925 7.28001 12.1308 6.81831 12.1308 6.24876ZM13.162 7.89903C12.5925 7.89903 12.1308 8.36074 12.1308 8.93028C12.1308 9.49983 12.5925 9.96153 13.162 9.96153H16.6036C17.1731 9.96153 17.6348 9.49983 17.6348 8.93028C17.6348 8.36074 17.1731 7.89903 16.6036 7.89903H13.162Z" fill="inherit"/>
</g>
</svg>
