<svg viewBox="0 0 16 16" fill="inherit" xmlns="http://www.w3.org/2000/svg">
<g id="checkbox-icon">
<path id="Rectangle 490 (Stroke)" fill-rule="evenodd" clip-rule="evenodd" d="M11 2.2H5C3.4536 2.2 2.2 3.4536 2.2 5V11C2.2 12.5464 3.4536 13.8 5 13.8H11C12.5464 13.8 13.8 12.5464 13.8 11V5C13.8 3.4536 12.5464 2.2 11 2.2ZM5 0C2.23858 0 0 2.23858 0 5V11C0 13.7614 2.23858 16 5 16H11C13.7614 16 16 13.7614 16 11V5C16 2.23858 13.7614 0 11 0H5Z" fill="inherit"/>
<path id="Rectangle 607" d="M4 6C4 4.89543 4.89543 4 6 4H10C11.1046 4 12 4.89543 12 6V10C12 11.1046 11.1046 12 10 12H6C4.89543 12 4 11.1046 4 10V6Z" fill="inherit"/>
</g>
</svg>
