<svg viewBox="0 0 16 16" fill="inherit" xmlns="http://www.w3.org/2000/svg">
<path fill-rule="evenodd" clip-rule="evenodd" d="M6.29965 8.2213C6.42187 8.09908 6.42187 7.90092 6.29965 7.7787L0.24444 1.72349C-0.0814798 1.39757 -0.0814798 0.869152 0.24444 0.543233L0.543233 0.244439C0.869152 -0.08148 1.39757 -0.0814797 1.72349 0.24444L7.7787 6.29965C7.90092 6.42187 8.09908 6.42187 8.2213 6.29965L14.2765 0.24444C14.6024 -0.0814798 15.1308 -0.0814799 15.4568 0.24444L15.7556 0.543233C16.0815 0.869152 16.0815 1.39757 15.7556 1.72349L9.70035 7.7787C9.57813 7.90092 9.57813 8.09908 9.70035 8.2213L15.7556 14.2765C16.0815 14.6024 16.0815 15.1308 15.7556 15.4568L15.4568 15.7556C15.1308 16.0815 14.6024 16.0815 14.2765 15.7556L8.2213 9.70035C8.09908 9.57813 7.90092 9.57813 7.7787 9.70035L1.72349 15.7556C1.39757 16.0815 0.869152 16.0815 0.543233 15.7556L0.24444 15.4568C-0.0814797 15.1308 -0.0814797 14.6024 0.24444 14.2765L6.29965 8.2213Z" fill="inherit"/>
</svg>
