<svg viewBox="0 0 16 16" fill="inherit" xmlns="http://www.w3.org/2000/svg">
<g id="confirm_icon">
<path id="Union" fill="inherit" fill-rule="evenodd" clip-rule="evenodd" d="M8.5259 0.15111C8.20361 -0.0503703 7.79639 -0.05037 7.4741 0.151111L0.450987 4.54173C0.170635 4.717 0 5.02652 0 5.35979C0 7.07646 0.368799 9.66087 1.51694 11.8541C2.6849 14.0852 4.72409 16 8 16C11.2759 16 13.3151 14.0852 14.4831 11.8541C15.6312 9.66087 16 7.07646 16 5.35979C16 5.02652 15.8294 4.717 15.549 4.54173L8.5259 0.15111ZM1.98861 6.48171C1.95458 6.11584 2.13862 5.76803 2.44775 5.57478L6.94821 2.76124C7.59277 2.35827 8.40723 2.35827 9.05179 2.76124L13.5523 5.57478C13.8614 5.76803 14.0454 6.11584 14.0114 6.48171C13.8829 7.8634 13.5143 9.53436 12.7697 10.9567C11.8278 12.7559 10.3505 14.0654 8 14.0654C5.64954 14.0654 4.17224 12.7559 3.23032 10.9567C2.48575 9.53436 2.11713 7.8634 1.98861 6.48171ZM5.00002 9.50005C5.60754 9.50005 6.10002 9.00756 6.10002 8.40005C6.10002 7.79254 5.60754 7.30005 5.00002 7.30005C4.39251 7.30005 3.90002 7.79254 3.90002 8.40005C3.90002 9.00756 4.39251 9.50005 5.00002 9.50005ZM9.10002 8.39993C9.10002 9.00744 8.60754 9.49993 8.00002 9.49993C7.39251 9.49993 6.90002 9.00744 6.90002 8.39993C6.90002 7.79241 7.39251 7.29993 8.00002 7.29993C8.60754 7.29993 9.10002 7.79241 9.10002 8.39993ZM11 9.49993C11.6075 9.49993 12.1 9.00744 12.1 8.39993C12.1 7.79241 11.6075 7.29993 11 7.29993C10.3925 7.29993 9.90002 7.79241 9.90002 8.39993C9.90002 9.00744 10.3925 9.49993 11 9.49993Z"/>
</g>
</svg>
