<svg  viewBox="0 0 16 16" fill="inherit" xmlns="http://www.w3.org/2000/svg">
<path fill-rule="evenodd" clip-rule="evenodd" d="M7.6 2.2H12.8C13.3523 2.2 13.8 2.64772 13.8 3.2V9C13.8 9.44183 13.4418 9.8 13 9.8H9H8.2C7.64772 9.8 7.2 9.35228 7.2 8.8V8C7.2 7.44771 6.75229 7 6.2 7H6C5.44772 7 5 7.44772 5 8V10C5 11.1046 5.89543 12 7 12H9H13H14C15.1046 12 16 11.1046 16 10V2C16 0.895431 15.1046 0 14 0H7C5.89543 0 5 0.895431 5 2C5 2.55228 5.44772 3 6 3H6.8C7.02091 3 7.2 2.82091 7.2 2.6C7.2 2.37909 7.37909 2.2 7.6 2.2ZM8.4 13.8L3.2 13.8C2.64771 13.8 2.2 13.3523 2.2 12.8L2.2 7C2.2 6.55817 2.55817 6.2 3 6.2H7H7.8C8.35229 6.2 8.8 6.64772 8.8 7.2L8.8 8C8.8 8.55229 9.24772 9 9.8 9H10C10.5523 9 11 8.55228 11 8V6C11 4.89543 10.1046 4 9 4H7L3 4H2C0.895432 4 0 4.89543 0 6V14C0 15.1046 0.895431 16 2 16L9 16C10.1046 16 11 15.1046 11 14C11 13.4477 10.5523 13 10 13H9.2C8.97909 13 8.8 13.1791 8.8 13.4C8.8 13.6209 8.62091 13.8 8.4 13.8Z" fill="inherit"/>
</svg>
