<svg  viewBox="0 0 22 22" fill="inherit" xmlns="http://www.w3.org/2000/svg">
  <path d="M11.8135 17.875C8.01655 17.875 4 14.797 4 11C4 7.20304 8.01655 4.125 11.8135 4.125V17.875Z" fill="inherit" />
  <path fill-rule="evenodd" clip-rule="evenodd" d="M22 11C22 17.0751 17.0751 22 11 22C4.92487 22 0 17.0751 0 11C0 4.92487 4.92487 0 11 0C17.0751 0 22 4.92487 22 11ZM19.25 11C19.25 15.5563 15.5563 19.25 11 19.25C6.44365 19.25 2.75 15.5563 2.75 11C2.75 6.44365 6.44365 2.75 11 2.75C15.5563 2.75 19.25 6.44365 19.25 11Z" fill="inherit" />
</svg>