<svg viewBox="0 0 16 16" fill="inherit" xmlns="http://www.w3.org/2000/svg">
<g id="date_icon">
<path id="date_icon_2" fill-rule="evenodd" clip-rule="evenodd" d="M5 2.2011H11C12.5464 2.2011 13.8 3.4547 13.8 5.0011V11.0011C13.8 12.5475 12.5464 13.8011 11 13.8011H5C3.4536 13.8011 2.2 12.5475 2.2 11.0011V5.0011C2.2 3.4547 3.4536 2.2011 5 2.2011ZM0 5.0011C0 2.23968 2.23858 0.00109863 5 0.00109863H11C13.7614 0.00109863 16 2.23968 16 5.0011V11.0011C16 13.7625 13.7614 16.0011 11 16.0011H5C2.23858 16.0011 0 13.7625 0 11.0011V5.0011ZM4.50002 6.90112C3.89251 6.90112 3.40002 7.39361 3.40002 8.00112C3.40002 8.60864 3.89251 9.10112 4.50002 9.10112C5.10754 9.10112 5.60002 8.60864 5.60002 8.00112C5.60002 7.39361 5.10754 6.90112 4.50002 6.90112ZM3.40002 11.0011C3.40002 10.3936 3.89251 9.90112 4.50002 9.90112C5.10754 9.90112 5.60002 10.3936 5.60002 11.0011C5.60002 11.6086 5.10754 12.1011 4.50002 12.1011C3.89251 12.1011 3.40002 11.6086 3.40002 11.0011ZM8.00002 3.90112C7.39251 3.90112 6.90002 4.39361 6.90002 5.00112C6.90002 5.60864 7.39251 6.10112 8.00002 6.10112C8.60754 6.10112 9.10002 5.60864 9.10002 5.00112C9.10002 4.39361 8.60754 3.90112 8.00002 3.90112ZM6.90002 8.00112C6.90002 7.39361 7.39251 6.90112 8.00002 6.90112C8.60754 6.90112 9.10002 7.39361 9.10002 8.00112C9.10002 8.60864 8.60754 9.10112 8.00002 9.10112C7.39251 9.10112 6.90002 8.60864 6.90002 8.00112ZM8.00002 9.90112C7.39251 9.90112 6.90002 10.3936 6.90002 11.0011C6.90002 11.6086 7.39251 12.1011 8.00002 12.1011C8.60754 12.1011 9.10002 11.6086 9.10002 11.0011C9.10002 10.3936 8.60754 9.90112 8.00002 9.90112ZM10.4 5.00112C10.4 4.39361 10.8925 3.90112 11.5 3.90112C12.1075 3.90112 12.6 4.39361 12.6 5.00112C12.6 5.60864 12.1075 6.10112 11.5 6.10112C10.8925 6.10112 10.4 5.60864 10.4 5.00112ZM11.5 6.90112C10.8925 6.90112 10.4 7.39361 10.4 8.00112C10.4 8.60864 10.8925 9.10112 11.5 9.10112C12.1075 9.10112 12.6 8.60864 12.6 8.00112C12.6 7.39361 12.1075 6.90112 11.5 6.90112Z" fill="inherit"/>
</g>
</svg>
