<svg  viewBox="0 0 16 16" fill="inherit" xmlns="http://www.w3.org/2000/svg">
<path fill-rule="evenodd" clip-rule="evenodd" d="M6 2.2H8.2C8.64183 2.2 9 1.84183 9 1.4V0.8C9 0.358172 8.64183 0 8.2 0H6C2.68629 0 0 2.68629 0 6V10C0 13.3137 2.68629 16 6 16H10C13.3137 16 16 13.3137 16 10V7.8C16 7.35817 15.6418 7 15.2 7H14.6C14.1582 7 13.8 7.35817 13.8 7.8V10C13.8 12.0987 12.0987 13.8 10 13.8H6C3.90132 13.8 2.2 12.0987 2.2 10V6C2.2 3.90132 3.90132 2.2 6 2.2ZM10.6171 7.17775C10.528 7.17775 10.4833 7.07003 10.5463 7.00704L15.4321 2.12125C15.7445 1.80883 15.7445 1.3023 15.4321 0.989878L15.0079 0.565614C14.6954 0.253194 14.1889 0.253194 13.8765 0.565613L8.99071 5.4514C8.92771 5.5144 8.82 5.46978 8.82 5.38069V4.07775C8.82 3.63592 8.46182 3.27775 8.02 3.27775H7.41999C6.97817 3.27775 6.62 3.63592 6.62 4.07775V8.17775C6.62 8.84049 7.15725 9.37775 7.82 9.37775H11.92C12.3618 9.37775 12.72 9.01957 12.72 8.57775V7.97775C12.72 7.53592 12.3618 7.17775 11.92 7.17775H10.6171Z" fill="inherit"/>
</svg>
