<svg  viewBox="0 0 16 16" fill="inherit" xmlns="http://www.w3.org/2000/svg">
<path fill-rule="evenodd" clip-rule="evenodd" d="M0 2.77346C0 1.20904 1.36114 0.000488281 2.91379 0.000488281H4.55349C6.10614 0.000488281 7.46728 1.20904 7.46728 2.77346V4.69346C7.46728 6.25788 6.10614 7.46648 4.55349 7.46648H2.91379C1.36114 7.46648 0 6.25788 0 4.69346V2.77346ZM4.55349 2.13316H2.91379C2.42019 2.13316 2.13396 2.44689 2.13396 2.77346V4.69346C2.13396 5.02003 2.42019 5.33381 2.91379 5.33381H4.55349C5.04709 5.33381 5.33332 5.02003 5.33332 4.69346V2.77346C5.33332 2.44689 5.04709 2.13316 4.55349 2.13316ZM0 11.3074C0 9.74303 1.36114 8.53442 2.91379 8.53442H4.55349C6.10614 8.53442 7.46728 9.74303 7.46728 11.3074V13.2274C7.46728 14.7919 6.10614 16.0004 4.55349 16.0004H2.91379C1.36114 16.0004 0 14.7919 0 13.2274V11.3074ZM4.55349 10.6671H2.91379C2.42019 10.6671 2.13396 10.9809 2.13396 11.3074V13.2274C2.13396 13.554 2.42019 13.8677 2.91379 13.8677H4.55349C5.04709 13.8677 5.33332 13.554 5.33332 13.2274V11.3074C5.33332 10.9809 5.04709 10.6671 4.55349 10.6671ZM11.4465 8.53442C9.89386 8.53442 8.53271 9.74303 8.53271 11.3074V13.2274C8.53271 14.7919 9.89386 16.0004 11.4465 16.0004H13.0863C14.6389 16.0004 16 14.7919 16 13.2274V11.3074C16 9.74303 14.6389 8.53442 13.0863 8.53442H11.4465ZM10.6667 11.3074C10.6667 10.9809 10.9529 10.6671 11.4465 10.6671H13.0863C13.5799 10.6671 13.866 10.9809 13.866 11.3074V13.2274C13.866 13.554 13.5799 13.8677 13.0863 13.8677H11.4465C10.9529 13.8677 10.6667 13.554 10.6667 13.2274V11.3074ZM8.53271 3.73349C8.53271 1.68419 10.216 0.000488281 12.2664 0.000488281C14.3167 0.000488281 16 1.68419 16 3.73349C16 5.78278 14.3167 7.46648 12.2664 7.46648C10.216 7.46648 8.53271 5.78278 8.53271 3.73349ZM13.866 3.73349C13.866 2.82812 13.1707 2.13316 12.2664 2.13316C11.362 2.13316 10.6667 2.82812 10.6667 3.73349C10.6667 4.63885 11.362 5.33381 12.2664 5.33381C13.1707 5.33381 13.866 4.63885 13.866 3.73349Z" fill="inherit"/>
</svg>
