<svg viewBox="0 0 16 16" fill="inherit" xmlns="http://www.w3.org/2000/svg">
<path fill-rule="evenodd" clip-rule="evenodd" d="M15.5089 3.18273L12.9617 0.517987C12.646 0.18775 12.216 0.000488281 11.7656 0.000488281H7.59828C6.65824 0.000488281 5.91105 0.79511 5.91105 1.75659V3.12244H1.68723C0.747195 3.12244 0 3.91706 0 4.87854V14.2444C0 15.2059 0.747197 16.0005 1.68723 16.0005H8.40172C9.34178 16.0005 10.089 15.2059 10.089 14.2444V12.8785H14.3128C15.2528 12.8785 16 12.0839 16 11.1224V4.42133C16 3.95837 15.8243 3.51267 15.5089 3.18273ZM6.15431 1.36178C6.12289 1.48788 6.10617 1.62019 6.10617 1.75659V3.31751H6.10618V1.75654C6.10618 1.62016 6.1229 1.48787 6.15431 1.36178ZM0.24326 4.48373C0.211844 4.60983 0.195122 4.74214 0.195122 4.87854V14.2444C0.195122 15.1065 0.863162 15.8054 1.68723 15.8054H8.40172C9.01347 15.8054 9.53921 15.4203 9.76953 14.8691C9.5392 15.4202 9.01346 15.8053 8.40173 15.8053H1.68724C0.863173 15.8053 0.195134 15.1065 0.195134 14.2443V4.87849C0.195134 4.74211 0.211852 4.60982 0.24326 4.48373ZM9.89384 12.6834H14.3128C14.935 12.6834 15.4682 12.285 15.6921 11.7188C15.4682 12.285 14.935 12.6834 14.3128 12.6834H9.89384V12.6834ZM14.1176 10.9273H7.7934V1.95171H10.3874V4.48829C10.3874 5.23425 10.9676 5.85415 11.7016 5.85415H14.1176V10.9273ZM14.0037 4.098L12.0746 2.07988V2.07982L14.0038 4.098H14.0037ZM12.2697 2.56638L13.5473 3.90293H12.2697V2.56638ZM6.10617 11.1224V4.87854H1.68724V4.87849H6.10618V11.1224C6.10618 11.9845 6.77422 12.6834 7.59829 12.6834H8.40173V14.2443H8.40172V12.6834H7.59828C6.77421 12.6834 6.10617 11.9846 6.10617 11.1224ZM1.88235 14.0493V5.07366H5.91105V11.1224C5.91105 12.0839 6.65824 12.8785 7.59828 12.8785H8.2066V14.0493H1.88235ZM7.59829 1.75659V1.75654H10.5825V4.48825C10.5825 5.13482 11.0836 5.65898 11.7016 5.65898H14.3128V11.1224H14.3128V5.65902H11.7016C11.0835 5.65902 10.5825 5.13487 10.5825 4.48829V1.75659H7.59829Z" fill="inherit"/>
</svg>
