<svg  viewBox="0 0 20 20" fill="inherit" xmlns="http://www.w3.org/2000/svg">
<path d="M10.9374 9.31161V5.54621C12.8062 5.83649 12.9403 6.98934 12.9493 7.20498H14.7376C14.7376 6.13507 13.9418 4.16943 10.9374 3.82938V3H9.149V3.82938C8.43094 3.85101 7.72952 4.03543 7.10602 4.36651C6.48253 4.69759 5.95594 5.16527 5.57228 5.72867C5.30846 6.16712 5.17975 6.66444 5.20025 7.16619C5.22076 7.66794 5.38967 8.15479 5.68852 8.57346C6.41656 9.49602 7.46488 10.1579 8.6572 10.4479C8.77344 10.4893 8.95228 10.5308 9.13112 10.5806V14.5699C6.93143 14.3543 6.78836 12.9111 6.78836 12.6291H5C5 13.8069 5.89418 16.0047 9.13112 16.237V17H10.9195V16.1706C11.643 16.1555 12.3522 15.9806 12.9882 15.6604C13.6243 15.3401 14.1688 14.8839 14.5767 14.3294C14.8659 13.8554 15.0118 13.3179 14.9992 12.7735C14.9867 12.229 14.816 11.6978 14.5051 11.2358C13.8077 10.1908 12.0193 9.58531 10.9374 9.31161ZM9.149 8.88862C8.36566 8.70533 7.67229 8.28145 7.1818 7.68602C7.06953 7.51633 7.01009 7.32113 7.01009 7.12204C7.01009 6.92294 7.06953 6.72774 7.1818 6.55805C7.40476 6.25625 7.69997 6.00637 8.04434 5.82796C8.38871 5.64954 8.7729 5.54744 9.16688 5.52962L9.149 8.88862ZM13.0476 13.5581C12.7926 13.8551 12.4727 14.0987 12.1091 14.2731C11.7454 14.4475 11.3461 14.5486 10.9374 14.5699V11.0533C11.7221 11.2213 12.435 11.6025 12.985 12.1481C13.1345 12.355 13.2194 12.5961 13.2304 12.8449C13.2415 13.0937 13.1782 13.3405 13.0476 13.5581Z" fill="inherit"/>
</svg>
