<svg iewBox="0 0 12 12" fill="inherit" xmlns="http://www.w3.org/2000/svg">
<g id="download_icon">
<path id="Union" fill-rule="evenodd" clip-rule="evenodd" d="M5.175 2.96867C5.175 2.90186 5.09421 2.86839 5.04696 2.91564L4.35597 3.60663C4.12166 3.84095 3.74176 3.84095 3.50744 3.60663L3.18925 3.28843C2.95493 3.05412 2.95493 2.67422 3.18925 2.4399L5.3636 0.265551C5.71507 -0.085921 6.28492 -0.0859221 6.63639 0.26555L8.81075 2.4399C9.04506 2.67422 9.04506 3.05412 8.81074 3.28843L8.49255 3.60663C8.25823 3.84094 7.87833 3.84095 7.64402 3.60663L6.95303 2.91564C6.90578 2.86839 6.825 2.90186 6.825 2.96867V8.15083C6.825 8.4822 6.55637 8.75083 6.225 8.75083L5.775 8.75083C5.44362 8.75083 5.175 8.4822 5.175 8.15083L5.175 2.96867Z" fill="inherit"/>
<path id="Rectangle 621 (Stroke)" d="M2.25 6.15C1.91863 6.15 1.65 6.41863 1.65 6.75V9.75C1.65 10.0814 1.91863 10.35 2.25 10.35H9.75C10.0814 10.35 10.35 10.0814 10.35 9.75V6.75C10.35 6.41863 10.0814 6.15 9.75 6.15H8.75C8.47386 6.15 8.25 5.92614 8.25 5.65V5C8.25 4.72386 8.47386 4.5 8.75 4.5H9.75C10.9926 4.5 12 5.50736 12 6.75V9.75C12 10.9926 10.9926 12 9.75 12H2.25C1.00736 12 0 10.9926 0 9.75V6.75C0 5.50736 1.00736 4.5 2.25 4.5H3.25C3.52614 4.5 3.75 4.72386 3.75 5V5.65C3.75 5.92614 3.52614 6.15 3.25 6.15H2.25Z" fill="inherit"/>
</g>
</svg>
