<svg viewBox="0 0 12 12" fill="inherit" xmlns="http://www.w3.org/2000/svg">
<g id="edit_icon">
<path id="Union" fill-rule="evenodd" clip-rule="evenodd" d="M8.54102 -0.00532781C8.14219 -0.00835557 7.75858 0.147579 7.47497 0.428008L0.445335 7.4088C0.160365 7.69058 0 8.07467 0 8.47543L6.51195e-06 11.25C7.35953e-06 11.6642 0.335794 12 0.750007 12H3.5393C3.94133 12 4.32652 11.8387 4.60849 11.5521L11.567 4.53078C11.8431 4.25021 11.9979 3.87235 11.9979 3.47872V0.765242C11.9979 0.353251 11.6655 0.0183922 11.2536 0.0152646L8.54102 -0.00532781ZM8.30283 1.92984C8.48717 1.74756 8.73652 1.6462 8.99576 1.64817L10.1246 1.65674C10.2482 1.65768 10.3479 1.75814 10.3479 1.88174V3.01804C10.3479 3.2739 10.2473 3.51951 10.0678 3.70188L5.45069 8.35719L3.63371 6.56861L8.30283 1.92984ZM2.07291 8.11926L1.93947 8.25183C1.75424 8.43498 1.65 8.68464 1.65 8.94513L1.65 10.125C1.65 10.2493 1.75074 10.35 1.875 10.35H3.06798C3.3293 10.35 3.57968 10.2451 3.76296 10.0589L3.90146 9.91922L2.07291 8.11926Z" fill="inherit"/>
</g>
</svg>
