<svg viewBox="0 0 16 16" fill="inherit" xmlns="http://www.w3.org/2000/svg">
<g id="education_icon">
<path id="education_icon_2" fill-rule="evenodd" clip-rule="evenodd" d="M9.02613 6.98312L9.02595 6.98295C8.46207 6.41921 7.54794 6.41921 6.98406 6.98295L7.17487 7.17381L6.98405 6.98295C6.42029 7.54657 6.41998 8.46058 6.98405 9.02374C7.54794 9.58748 8.46207 9.58748 9.02595 9.02374C9.5892 8.46064 9.58895 7.54677 9.02613 6.98312ZM6.87361 7.77218C6.91728 7.55796 7.02225 7.3537 7.18849 7.18749C7.63945 6.73665 8.37054 6.73665 8.8215 7.18749C9.04659 7.41291 9.15914 7.70832 9.15915 8.00363C9.15915 7.7083 9.04661 7.41287 8.82151 7.18744C8.37055 6.7366 7.63946 6.7366 7.1885 7.18744C7.02224 7.35366 6.91728 7.55794 6.87361 7.77218ZM9.36792 12.9385C9.36791 12.9385 9.3679 12.9385 9.36788 12.9385C10.4684 13.574 13.0502 14.7257 13.8867 13.8894C14.0235 13.7527 14.1124 13.5464 14.1514 13.2819C14.1124 13.5463 14.0235 13.7527 13.8867 13.8893C13.1137 14.6622 10.8498 13.7372 9.64232 13.0908C9.54328 13.0378 9.45134 12.9867 9.36792 12.9385ZM11.8084 13.6886C11.1264 13.4866 10.4197 13.1706 9.88875 12.894C10.9856 12.0051 11.9639 11.0394 12.8989 9.88741C13.3897 10.8001 13.688 11.6216 13.8144 12.2811C13.8861 12.6554 13.9005 12.9675 13.8694 13.2097C13.8381 13.4543 13.7639 13.6033 13.6823 13.6849C13.5516 13.8156 13.3255 13.8941 12.9828 13.8938C12.6449 13.8935 12.2392 13.8161 11.8084 13.6886ZM3.95561 8.00525C5.07301 9.53397 6.47283 10.932 8.00116 12.0499C9.5295 10.932 10.9285 9.5332 12.0459 8.00526C12.0459 8.00526 12.0459 8.00527 12.0459 8.00528C10.9286 9.53323 9.5295 10.9321 8.00116 12.05C6.47281 10.9321 5.07298 9.53401 3.95559 8.00528C3.95559 8.00527 3.9556 8.00526 3.95561 8.00525ZM4.31542 8.00529C5.35106 9.38653 6.61991 10.6539 8.00116 11.6901C9.38229 10.654 10.6505 9.38592 11.6862 8.00518C10.6544 6.62898 9.38679 5.35991 8.0011 4.32053C6.6111 5.36247 5.34524 6.63274 4.31542 8.00529ZM1.82942 12.843C1.81215 13.3226 1.90972 13.6844 2.1148 13.8894C2.94361 14.7172 5.50316 13.5925 6.63364 12.9385C6.63363 12.9385 6.63362 12.9385 6.63361 12.9385C6.54967 12.987 6.45785 13.0382 6.35945 13.091C5.13257 13.7487 2.88207 14.6557 2.1148 13.8893C1.90973 13.6843 1.81216 13.3226 1.82942 12.843ZM2.18717 12.2811C2.31354 11.6216 2.61185 10.8001 3.1026 9.88751L2.31915 13.6848C2.23758 13.6031 2.16346 13.4542 2.1321 13.2097C2.10104 12.9675 2.11543 12.6554 2.18717 12.2811ZM3.1026 9.88751L2.31925 13.6849C2.44843 13.8138 2.67216 13.8921 3.01213 13.8928C3.34736 13.8935 3.75047 13.818 4.17973 13.6921C4.86271 13.4918 5.57365 13.1756 6.11315 12.8941C5.01407 12.0032 4.03561 11.0375 3.1026 9.88751ZM2.1321 2.80072C2.16347 2.55611 2.23764 2.40718 2.31924 2.32559L2.11483 2.12112L2.31925 2.32559C2.4502 2.19467 2.6765 2.11611 3.01935 2.11636C3.35737 2.11661 3.76317 2.19405 4.19397 2.32167C4.87597 2.52371 5.58253 2.83983 6.11298 3.11654C5.01558 4.00578 4.03718 4.97086 3.10259 6.12292C2.61184 5.21029 2.31354 4.38886 2.18717 3.72938C2.11543 3.35504 2.10104 3.04292 2.1321 2.80072ZM13.0954 6.36869C13.0457 6.45794 12.9942 6.5485 12.9409 6.64037C12.8768 6.55804 12.8124 6.47666 12.7479 6.39621C11.7788 5.18856 10.7639 4.18793 9.61237 3.26531C9.53157 3.20057 9.4501 3.13621 9.36792 3.0722C9.36791 3.0722 9.3679 3.07221 9.36788 3.07222C10.6992 4.10933 11.8459 5.23555 12.9409 6.64042C13.662 5.397 14.0551 4.3935 14.1679 3.63171C14.0634 4.33721 13.7185 5.25001 13.0954 6.36869ZM9.88514 3.11372C10.986 4.00529 11.9653 4.97207 12.9 6.12433C13.4553 5.11041 13.7634 4.2912 13.8701 3.66315C13.9904 2.95529 13.8471 2.55825 13.6065 2.35514C13.354 2.14209 12.8919 2.05134 12.1701 2.20092C11.5454 2.33038 10.7749 2.631 9.88514 3.11372ZM3.78908 15.9539C4.99144 15.7986 6.41992 15.2491 8.00116 14.2599C9.58606 15.2514 11.0157 15.801 12.218 15.9552C13.4594 16.1143 14.489 15.8534 15.167 15.1809C15.8454 14.5079 16.1122 13.4818 15.9549 12.2395C15.8027 11.0364 15.2516 9.60204 14.2521 8.00523C15.2525 6.40714 15.804 4.97216 15.9562 3.76893C16.1135 2.52636 15.8463 1.50054 15.1674 0.828014C14.489 0.155925 13.459 -0.104339 12.2174 0.0551981C11.0151 0.209702 9.58552 0.759362 8.00118 1.75049C6.40101 0.749144 4.96481 0.197024 3.76102 0.0444233C2.51795 -0.113156 1.4921 0.153918 0.820109 0.833255C0.148594 1.51211 -0.110385 2.5429 0.0505229 3.78524C0.206365 4.98847 0.757556 6.41925 1.75025 8.00521C0.747215 9.60716 0.195124 11.0437 0.0433652 12.2473C-0.113359 13.4902 0.155578 14.5149 0.836267 15.1858C1.51628 15.8561 2.54761 16.1143 3.78908 15.9539ZM13.9098 8.00525C13.9098 8.00526 13.9098 8.00527 13.9098 8.00528C15.3113 10.1952 15.8412 12.0466 15.6825 13.3855C15.8412 12.0466 15.3114 10.1951 13.9098 8.00525ZM15.7107 3.05398C15.6801 0.0339833 12.5482 -0.816307 8.00116 2.09272C3.67292 -0.676329 0.672813 -0.0485483 0.326741 2.56593C0.67278 -0.0485921 3.6729 -0.6764 8.00116 2.09267C12.5482 -0.816377 15.6801 0.0339407 15.7107 3.05398Z" fill="inherit"/>
</g>
</svg>
