<svg viewBox="0 0 16 16" fill="inherit" xmlns="http://www.w3.org/2000/svg">
<g id="email_icon">
<path id="Union" fill-rule="evenodd" clip-rule="evenodd" d="M5 2.2H11C12.2015 2.2 13.2262 2.95674 13.6236 4.01959L7.99998 7.23306L2.37644 4.01961C2.77379 2.95675 3.79852 2.2 5 2.2ZM2.2 6.45264V11C2.2 12.5464 3.4536 13.8 5 13.8H11C12.5464 13.8 13.8 12.5464 13.8 11V6.45262L8.99225 9.1999C8.37739 9.55125 7.62256 9.55125 7.0077 9.1999L2.2 6.45264ZM0 5C0 2.23858 2.23858 0 5 0H11C13.7614 0 16 2.23858 16 5V11C16 13.7614 13.7614 16 11 16H5C2.23858 16 0 13.7614 0 11V5Z" fill="inherit"/>
</g>
</svg>
