<svg viewBox="0 0 16 16" fill="inherit" xmlns="http://www.w3.org/2000/svg">
<g id="enter_icon">
<path id="enter_icon_2" fill-rule="evenodd" clip-rule="evenodd" d="M14.9143 0.000488281C15.5139 0.000488281 16 0.484504 16 1.08157V13.1897C16 14.742 14.7362 16.0005 13.1771 16.0005H6.22857C5.62895 16.0005 5.14286 15.5165 5.14286 14.9194C5.14286 14.3223 5.62895 13.8383 6.22857 13.8383H13.1771C13.5369 13.8383 13.8286 13.5479 13.8286 13.1897V2.16265H6.22857C5.62895 2.16265 5.14286 1.67863 5.14286 1.08157C5.14286 0.484504 5.62895 0.000488281 6.22857 0.000488281H14.9143ZM8.03782 4.60622C7.60824 4.1796 6.91176 4.1796 6.48218 4.60622C6.05261 5.03284 6.0526 5.72453 6.48218 6.15115L7.24438 6.90811H1.1C0.492487 6.90811 0 7.39721 0 8.00055C0 8.60388 0.492487 9.09298 1.1 9.09298H7.24436L6.48218 9.84992C6.05261 10.2765 6.05261 10.9682 6.48218 11.3949C6.91176 11.8215 7.60824 11.8215 8.03782 11.3949L10.6778 8.77302C11.1074 8.3464 11.1074 7.65471 10.6778 7.22808L8.03782 4.60622Z" fill="inherit"/>
</g>
</svg>
