<svg viewBox="0 0 16 16" fill="inherit" xmlns="http://www.w3.org/2000/svg">
<path fill-rule="evenodd" clip-rule="evenodd" d="M1.08571 0.000488281C0.486091 0.000488281 0 0.484504 0 1.08157V13.1897C0 14.742 1.26381 16.0005 2.82286 16.0005H9.77143C10.3711 16.0005 10.8571 15.5165 10.8571 14.9194C10.8571 14.3223 10.3711 13.8383 9.77143 13.8383H2.82286C2.46311 13.8383 2.17143 13.5479 2.17143 13.1897V2.16265H9.77143C10.3711 2.16265 10.8571 1.67863 10.8571 1.08157C10.8571 0.484504 10.3711 0.000488281 9.77143 0.000488281H1.08571ZM13.0378 4.6105C12.6082 4.18387 11.9118 4.18387 11.4822 4.61049C11.0526 5.03711 11.0526 5.7288 11.4822 6.15543L12.2444 6.91239H6.1C5.49249 6.91239 5 7.40149 5 8.00482C5 8.60816 5.49249 9.09726 6.1 9.09726H12.2444L11.4822 9.8542C11.0526 10.2808 11.0526 10.9725 11.4822 11.3991C11.9118 11.8258 12.6082 11.8258 13.0378 11.3991L15.6778 8.77729C16.1074 8.35067 16.1074 7.65898 15.6778 7.23236L13.0378 4.6105Z" fill="inherit"/>
</svg>
