<svg viewBox="0 0 16 16" fill="inherit" xmlns="http://www.w3.org/2000/svg">
<g id="Frame 6" clip-path="url(#clip0_439_1175)">
<path id="Vector 15 (Stroke)" fill-rule="evenodd" clip-rule="evenodd" d="M4 2C3.44772 2 3 2.44772 3 3V13.6727C3 13.8214 3.15646 13.9181 3.28944 13.8516L6.65836 12.1671C7.50294 11.7448 8.49706 11.7448 9.34164 12.1671L12.7106 13.8516C12.8435 13.9181 13 13.8214 13 13.6727V3C13 2.44772 12.5523 2 12 2H4ZM1 3C1 1.34315 2.34315 0 4 0H12C13.6569 0 15 1.34315 15 3V13.9963C15 15.4831 13.4354 16.4501 12.1056 15.7852L8.44721 13.956C8.16569 13.8152 7.83431 13.8152 7.55279 13.956L3.89443 15.7852C2.56462 16.4501 1 15.4831 1 13.9963V3Z" fill="inherit"/>
</g>
<defs>
<clipPath id="clip0_439_1175">
<rect width="16" height="15.9989" fill="white"/>
</clipPath>
</defs>
</svg>
