<svg viewBox="0 0 16 16" fill="none" xmlns="http://www.w3.org/2000/svg">
<g id="Group 353">
<path id="Vector" d="M15.68 8.18182C15.68 7.61455 15.6291 7.06909 15.5345 6.54546H8V9.64364H12.3055C12.1164 10.64 11.5491 11.4836 10.6982 12.0509V14.0655H13.2945C14.8073 12.6691 15.68 10.6182 15.68 8.18182Z" fill="#4285F4"/>
<path id="Vector_2" d="M8.00022 16C10.1602 16 11.9711 15.2873 13.2948 14.0655L10.6984 12.0509C9.98567 12.5309 9.07658 12.8218 8.00022 12.8218C5.92022 12.8218 4.15294 11.4182 3.52022 9.5273H0.858398V11.5928C2.17476 14.2037 4.87294 16 8.00022 16Z" fill="#34A853"/>
<path id="Vector_3" d="M3.52 9.51999C3.36 9.03999 3.26545 8.5309 3.26545 7.99999C3.26545 7.46908 3.36 6.95999 3.52 6.47999V4.41454H0.858182C0.312727 5.4909 0 6.70544 0 7.99999C0 9.29454 0.312727 10.5091 0.858182 11.5854L2.93091 9.9709L3.52 9.51999Z" fill="#FBBC05"/>
<path id="Vector_4" d="M8.00022 3.18545C9.1784 3.18545 10.2257 3.59273 11.062 4.37818L13.3529 2.08727C11.9639 0.792727 10.1602 0 8.00022 0C4.87294 0 2.17476 1.79636 0.858398 4.41455L3.52022 6.48C4.15294 4.58909 5.92022 3.18545 8.00022 3.18545Z" fill="#EA4335"/>
</g>
</svg>
