<svg viewBox="0 0 16 16" fill="inherit" xmlns="http://www.w3.org/2000/svg">
<path fill-rule="evenodd" clip-rule="evenodd" d="M15.822 15.6167C15.6363 15.889 15.3404 16.0005 15.0226 16.0005H1.22241C0.553636 16.0005 0 15.4597 0 14.7859V0.972708C0 0.653103 0.11511 0.358286 0.389453 0.175024C0.621494 0.0200198 0.892205 0.000488281 1.07553 0.000488281C1.25886 0.000488281 1.52957 0.0200198 1.76162 0.175024C2.03596 0.358286 2.15107 0.653103 2.15107 0.972708V13.6233C2.15107 13.7489 2.25836 13.8621 2.39739 13.8621H15.0225H15.0226C15.3404 13.8621 15.6363 13.9736 15.822 14.2459C15.9801 14.4778 16 14.7488 16 14.9313C16 15.1138 15.9801 15.3848 15.822 15.6167ZM15.9983 4.62258C16.0161 4.8363 15.894 4.91775 15.7268 4.80356L15.0842 4.3646C14.917 4.25046 14.6907 4.3031 14.5813 4.48172L11.5141 9.48595C11.4046 9.66457 11.1641 9.74849 10.9795 9.67243L7.55268 8.26095C7.3681 8.18489 7.1118 8.25592 6.98312 8.41873L4.23201 11.9014C4.10343 12.0642 3.99904 12.0219 4.00001 11.8073L4.01095 9.51172C4.01196 9.29717 4.11572 8.98623 4.24146 8.82076L6.37761 6.00996C6.50335 5.84454 6.75733 5.77131 6.94201 5.84731L10.3436 7.24721C10.5283 7.32322 10.7682 7.23878 10.8767 7.05953L13.0653 3.44651C13.1739 3.26726 13.1259 3.02719 12.9588 2.913L12.4218 2.54633C12.2546 2.43214 12.2692 2.27719 12.4541 2.20192L15.35 1.02375C15.5349 0.948531 15.7008 1.06183 15.7187 1.27555L15.9983 4.62258Z" fill="inherit"/>
</svg>
