<svg viewBox="0 0 12 12" fill="inherit" xmlns="http://www.w3.org/2000/svg">
<g id="hamburger_icon">
<path id="Union" fill-rule="evenodd" clip-rule="evenodd" d="M3.75 1.65H8.25C9.4098 1.65 10.35 2.5902 10.35 3.75V8.25C10.35 9.4098 9.4098 10.35 8.25 10.35H3.75C2.5902 10.35 1.65 9.4098 1.65 8.25V3.75C1.65 2.5902 2.5902 1.65 3.75 1.65ZM0 3.75C0 1.67893 1.67893 0 3.75 0H8.25C10.3211 0 12 1.67893 12 3.75V8.25C12 10.3211 10.3211 12 8.25 12H3.75C1.67893 12 0 10.3211 0 8.25V3.75ZM8.85001 3.3C8.85001 2.96863 8.59481 2.7 8.28001 2.7H3.72001C3.40521 2.7 3.15001 2.96863 3.15001 3.3V3.75C3.15001 4.08137 3.40521 4.35 3.72001 4.35H8.28001C8.59481 4.35 8.85001 4.08137 8.85001 3.75V3.3ZM8.85004 5.77504C8.85004 5.44367 8.59484 5.17504 8.28004 5.17504H3.72004C3.40523 5.17504 3.15004 5.44367 3.15004 5.77504V6.22504C3.15004 6.55641 3.40523 6.82504 3.72004 6.82504L8.28004 6.82504C8.59484 6.82504 8.85004 6.55641 8.85004 6.22504V5.77504ZM8.28004 7.65007C8.59484 7.65007 8.85004 7.9187 8.85004 8.25007V8.70007C8.85004 9.03144 8.59484 9.30007 8.28004 9.30007H3.72004C3.40523 9.30007 3.15004 9.03144 3.15004 8.70007V8.25007C3.15004 7.9187 3.40523 7.65007 3.72004 7.65007H8.28004Z" fill="inherit"/>
</g>
</svg>
