<svg viewBox="0 0 16 16" fill="inherit" xmlns="http://www.w3.org/2000/svg">
<path fill="inherit" fill-rule="evenodd" clip-rule="evenodd" d="M13.8 7.5C13.8 7.59484 13.7085 8.12879 12.5783 8.76451C11.5171 9.36145 9.90286 9.8 8 9.8C6.09714 9.8 4.48294 9.36145 3.42172 8.76451C2.29154 8.12879 2.2 7.59484 2.2 7.5C2.2 7.40516 2.29154 6.87121 3.42172 6.23549C4.48294 5.63855 6.09714 5.2 8 5.2C9.90286 5.2 11.5171 5.63855 12.5783 6.23549C13.7085 6.87121 13.8 7.40516 13.8 7.5ZM15.3309 9.30437C15.7612 8.752 16 8.14169 16 7.5C16 5.01472 12.4183 3 8 3C3.58172 3 0 5.01472 0 7.5C0 8.14235 0.239268 8.75327 0.670406 9.30609L0.144872 10.2535C-0.149814 10.7848 0.0419627 11.4543 0.573218 11.749C1.10447 12.0437 1.77403 11.8519 2.06872 11.3207L2.40416 10.7159C2.71106 10.8849 3.04206 11.0401 3.39398 11.1798L3.15296 12.166C3.00874 12.7561 3.37023 13.3514 3.96037 13.4957C4.55052 13.6399 5.14584 13.2784 5.29007 12.6883L5.51247 11.7782C5.95899 11.8603 6.42279 11.9209 6.90002 11.9578V12.9C6.90002 13.5075 7.39251 14 8.00002 14C8.60754 14 9.10002 13.5075 9.10002 12.9V11.9578C9.57843 11.9208 10.0433 11.86 10.4909 11.7776L10.7144 12.6922C10.8586 13.2823 11.4539 13.6438 12.0441 13.4996C12.6342 13.3553 12.9957 12.76 12.8515 12.1699L12.6092 11.1785C12.9606 11.0389 13.2911 10.8838 13.5976 10.715L13.9357 11.3246C14.2304 11.8558 14.9 12.0476 15.4312 11.7529C15.9625 11.4582 16.1543 10.7887 15.8596 10.2574L15.3309 9.30437Z"/>
</svg>
