<svg viewBox="0 0 18 18" fill="inherit" xmlns="http://www.w3.org/2000/svg">
<g id="Hierarchy_icon" clip-path="url(#clip0_626_634)">
<path id="Union" fill-rule="evenodd" clip-rule="evenodd" d="M7.77805 0C6.03131 0 4.50002 1.35963 4.50002 3.1196V5.27961C4.50002 7.03959 6.03131 8.39927 7.77805 8.39927H9.62272C11.3695 8.39927 12.9007 7.03959 12.9007 5.27961V3.1196C12.9007 1.35963 11.3695 0 9.62272 0H7.77805ZM7.77805 2.39927H9.62272C10.178 2.39927 10.5 2.75222 10.5 3.1196V5.27961C10.5 5.647 10.178 6.00001 9.62272 6.00001H7.77805C7.22274 6.00001 6.90074 5.647 6.90074 5.27961V3.1196C6.90074 2.75222 7.22274 2.39927 7.77805 2.39927ZM3.27802 9.6007C1.53129 9.6007 0 10.9604 0 12.7204V14.8804C0 16.6403 1.53129 18 3.27802 18H5.1227C6.86943 18 8.40072 16.6403 8.40072 14.8804V12.7204C8.40072 10.9604 6.86943 9.6007 5.1227 9.6007H3.27802ZM3.27802 12H5.1227C5.678 12 6 12.353 6 12.7204V14.8804C6 15.2478 5.678 15.6007 5.1227 15.6007H3.27802C2.72272 15.6007 2.40071 15.2478 2.40071 14.8804V12.7204C2.40071 12.353 2.72272 12 3.27802 12ZM9.59928 12.7204C9.59928 10.9604 11.1306 9.6007 12.8773 9.6007H14.722C16.4688 9.6007 18.0001 10.9604 18.0001 12.7204V14.8804C18.0001 16.6403 16.4688 18 14.722 18H12.8773C11.1306 18 9.59928 16.6403 9.59928 14.8804V12.7204ZM14.722 12H12.8773C12.322 12 12 12.353 12 12.7204V14.8804C12 15.2478 12.322 15.6007 12.8773 15.6007H14.722C15.2773 15.6007 15.5993 15.2478 15.5993 14.8804V12.7204C15.5993 12.353 15.2773 12 14.722 12Z" fill="inherit"/>
</g>
<defs>
<clipPath id="clip0_626_634">
<rect width="18" height="18" fill="white"/>
</clipPath>
</defs>
</svg>
