<svg viewBox="0 0 16 16" fill="inherit" xmlns="http://www.w3.org/2000/svg">
<g id="info_icon">
<path id="Rectangle 490 (Stroke)" fill-rule="evenodd" clip-rule="evenodd" d="M11 2.19997H5C3.4536 2.19997 2.2 3.45357 2.2 4.99997V11C2.2 12.5464 3.4536 13.8 5 13.8H11C12.5464 13.8 13.8 12.5464 13.8 11V4.99997C13.8 3.45357 12.5464 2.19997 11 2.19997ZM5 -3.05176e-05C2.23858 -3.05176e-05 0 2.23855 0 4.99997V11C0 13.7614 2.23858 16 5 16H11C13.7614 16 16 13.7614 16 11V4.99997C16 2.23855 13.7614 -3.05176e-05 11 -3.05176e-05H5Z" fill="inherit"/>
<path id="Rectangle 612" d="M6.90002 7.73464C6.90002 7.34804 7.21343 7.03464 7.60002 7.03464H8.40002C8.78662 7.03464 9.10002 7.34804 9.10002 7.73464V11.2873C9.10002 11.6739 8.78662 11.9873 8.40002 11.9873H7.60002C7.21343 11.9873 6.90002 11.6739 6.90002 11.2873V7.73464Z" fill="inherit"/>
<path id="Rectangle 613" d="M6.90002 4.70079C6.90002 4.31419 7.21343 4.00079 7.60002 4.00079H8.40002C8.78662 4.00079 9.10002 4.31419 9.10002 4.70079V5.50079C9.10002 5.88739 8.78662 6.20079 8.40002 6.20079H7.60002C7.21343 6.20079 6.90002 5.88739 6.90002 5.50079V4.70079Z" fill="inherit"/>
</g>
</svg>
