<svg xmlns="http://www.w3.org/2000/svg" viewBox="0 0 18 18" fill="inherit">
<g clip-path="url(#clip0_2037_1440)">
<path fill-rule="evenodd" clip-rule="evenodd" d="M17.7997 17.5682C17.5908 17.8746 17.2579 18 16.9004 18H1.37521C0.62284 18 0 17.3916 0 16.6336V1.09375C0 0.734192 0.129499 0.402523 0.438134 0.196353C0.69918 0.021973 1.00373 0 1.20998 0C1.41622 0 1.72077 0.021973 1.98182 0.196353C2.29045 0.402523 2.41995 0.734192 2.41995 1.09375V15.3256C2.41995 15.4669 2.54066 15.5943 2.69707 15.5943H16.9003H16.9004C17.2579 15.5943 17.5908 15.7197 17.7997 16.0261C17.9776 16.287 18 16.5918 18 16.7971C18 17.0025 17.9776 17.3073 17.7997 17.5682ZM17.998 5.28065C18.0188 5.53323 17.8763 5.62949 17.6812 5.49454L16.9316 4.97577C16.7365 4.84087 16.4725 4.90309 16.3448 5.11419L12.7665 11.0283C12.6387 11.2394 12.3581 11.3385 12.1427 11.2487L8.1448 9.58055C7.92945 9.49066 7.63044 9.57461 7.48031 9.76701L4.27068 13.8829C4.12067 14.0753 3.99888 14.0253 4.00001 13.7717L4.01277 11.0587C4.01395 10.8052 4.13501 10.4377 4.2817 10.2421L6.77388 6.92028C6.92058 6.72478 7.21689 6.63824 7.43235 6.72807L11.4008 8.38249C11.6163 8.47232 11.8962 8.37252 12.0228 8.16068L14.5762 3.89075C14.7029 3.67891 14.6469 3.39519 14.4519 3.26024L13.8255 2.8269C13.6304 2.69195 13.6475 2.50883 13.8631 2.41987L17.2417 1.02749C17.4574 0.938596 17.6509 1.0725 17.6718 1.32507L17.998 5.28065Z" fill="inherit"/>
</g>
<defs>
<clipPath id="clip0_2037_1440">
<rect width="18" height="18" fill="white"/>
</clipPath>
</defs>
</svg>