<svg viewBox="0 0 22 22" fill="inherit" xmlns="http://www.w3.org/2000/svg">
  <path d="M10.5 4.125C14.297 4.125 18.3135 7.20304 18.3135 11C18.3135 14.797 14.297 17.875 10.5 17.875V4.125Z" fill="inherit" />
  <path fill-rule="evenodd" clip-rule="evenodd" d="M22 11C22 17.0751 17.0751 22 11 22C4.92487 22 0 17.0751 0 11C0 4.92487 4.92487 0 11 0C17.0751 0 22 4.92487 22 11ZM19.25 11C19.25 15.5563 15.5563 19.25 11 19.25C6.44365 19.25 2.75 15.5563 2.75 11C2.75 6.44365 6.44365 2.75 11 2.75C15.5563 2.75 19.25 6.44365 19.25 11Z" fill="inherit" />
</svg>