<svg fill="inherit" viewBox="0 0 16 16" xmlns="http://www.w3.org/2000/svg">
<g id="link_icon">
<path fill="inherit" id="link_icon_2" fill-rule="evenodd" clip-rule="evenodd" d="M2.2 5C2.2 3.4536 3.4536 2.2 5 2.2H6.2C6.64183 2.2 7 1.84183 7 1.4V0.8C7 0.358172 6.64183 0 6.2 0H5C2.23858 0 0 2.23858 0 5V11C0 13.7614 2.23858 16 5 16H11C13.7614 16 16 13.7614 16 11V9.8C16 9.35817 15.6418 9 15.2 9H14.6C14.1582 9 13.8 9.35817 13.8 9.8V11C13.8 12.5464 12.5464 13.8 11 13.8H5C3.4536 13.8 2.2 12.5464 2.2 11V5ZM11 2.2H13C13.4418 2.2 13.8 2.55817 13.8 3V5C13.8 5.44183 13.4418 5.8 13 5.8H11C10.5582 5.8 10.2 5.44183 10.2 5V3C10.2 2.55817 10.5582 2.2 11 2.2ZM8 3C8 1.34315 9.34315 0 11 0H13C14.6569 0 16 1.34315 16 3V5C16 6.65685 14.6569 8 13 8H11C9.34315 8 8 6.65685 8 5V3Z" />
</g>
</svg>
