<svg viewBox="0 0 16 16" fill="none" xmlns="http://www.w3.org/2000/svg">
<g id="MetaMask_logo" clip-path="url(#clip0_856_1553)">
<path id="Vector" d="M14.7524 0.980713L8.8999 5.36926L9.98218 2.78008L14.7524 0.980713Z" fill="#E2761B" stroke="#E2761B" stroke-linecap="round" stroke-linejoin="round"/>
<path id="Vector_2" d="M1.24163 0.980713L7.0471 5.41083L6.01776 2.78008L1.24163 0.980713ZM12.6467 11.1533L11.088 13.5644L14.423 14.4908L15.3818 11.2068L12.6467 11.1533ZM0.624023 11.2068L1.5769 14.4908L4.91195 13.5644L3.35324 11.1533L0.624023 11.2068Z" fill="#E4761B" stroke="#E4761B" stroke-linecap="round" stroke-linejoin="round"/>
<path id="Vector_3" d="M4.72378 7.07953L3.79443 8.49883L7.10596 8.6473L6.98832 5.05451L4.72378 7.07953ZM11.2704 7.07953L8.97642 5.01294L8.89995 8.6473L12.2056 8.49883L11.2704 7.07953ZM4.912 13.5644L6.90009 12.5845L5.18257 11.2305L4.912 13.5644ZM9.09405 12.5845L11.088 13.5644L10.8116 11.2305L9.09405 12.5845Z" fill="#E4761B" stroke="#E4761B" stroke-linecap="round" stroke-linejoin="round"/>
<path id="Vector_4" d="M11.0879 13.5644L9.09392 12.5846L9.25273 13.897L9.23509 14.4493L11.0879 13.5644ZM4.91187 13.5644L6.76467 14.4493L6.75291 13.897L6.89996 12.5846L4.91187 13.5644Z" fill="#D7C1B3" stroke="#D7C1B3" stroke-linecap="round" stroke-linejoin="round"/>
<path id="Vector_5" d="M6.7942 10.3635L5.1355 9.8706L6.306 9.3302L6.7942 10.3635ZM9.19991 10.3635L9.68811 9.3302L10.8645 9.8706L9.19991 10.3635Z" fill="#233447" stroke="#233447" stroke-linecap="round" stroke-linejoin="round"/>
<path id="Vector_6" d="M4.91223 13.5644L5.19456 11.1534L3.35352 11.2069L4.91223 13.5644ZM10.8059 11.1534L11.0883 13.5644L12.647 11.2069L10.8059 11.1534ZM12.2058 8.4989L8.90018 8.64736L9.20604 10.3636L9.69424 9.33029L10.8706 9.87069L12.2058 8.4989ZM5.13574 9.87069L6.31213 9.33029L6.79445 10.3636L7.10619 8.64736L3.79466 8.4989L5.13574 9.87069Z" fill="#CD6116" stroke="#CD6116" stroke-linecap="round" stroke-linejoin="round"/>
<path id="Vector_7" d="M3.79443 8.4989L5.18257 11.2306L5.13551 9.87069L3.79443 8.4989ZM10.8704 9.87069L10.8116 11.2306L12.2056 8.4989L10.8704 9.87069ZM7.10596 8.64736L6.79422 10.3636L7.18243 12.3886L7.27066 9.72223L7.10596 8.64736ZM8.89995 8.64736L8.74114 9.71629L8.81172 12.3886L9.20581 10.3636L8.89995 8.64736Z" fill="#E4751F" stroke="#E4751F" stroke-linecap="round" stroke-linejoin="round"/>
<path id="Vector_8" d="M9.2058 10.3635L8.81171 12.3885L9.09404 12.5845L10.8116 11.2305L10.8704 9.87061L9.2058 10.3635ZM5.1355 9.87061L5.18255 11.2305L6.90008 12.5845L7.18241 12.3885L6.7942 10.3635L5.1355 9.87061Z" fill="#F6851B" stroke="#F6851B" stroke-linecap="round" stroke-linejoin="round"/>
<path id="Vector_9" d="M9.23509 14.4492L9.25273 13.8969L9.10568 13.7662H6.88819L6.75291 13.8969L6.76467 14.4492L4.91187 13.5643L5.55888 14.0988L6.87055 15.0193H9.12333L10.4409 14.0988L11.0879 13.5643L9.23509 14.4492Z" fill="#C0AD9E" stroke="#C0AD9E" stroke-linecap="round" stroke-linejoin="round"/>
<path id="Vector_10" d="M9.09418 12.5848L8.81185 12.3888H7.18255L6.90022 12.5848L6.75317 13.8972L6.88846 13.7665H9.10595L9.253 13.8972L9.09418 12.5848Z" fill="#161616" stroke="#161616" stroke-linecap="round" stroke-linejoin="round"/>
<path id="Vector_11" d="M14.9995 5.6543L15.4994 3.2314L14.7524 0.980713L9.09399 5.2208L11.2703 7.07954L14.3466 7.98813L15.0289 7.18644L14.7348 6.97265L15.2053 6.53914L14.8406 6.25409L15.3112 5.89184L14.9995 5.6543ZM0.500488 3.2314L1.00045 5.6543L0.682828 5.89184L1.15338 6.25409L0.794585 6.53914L1.26514 6.97265L0.971043 7.18644L1.64747 7.98813L4.72372 7.07954L6.90003 5.2208L1.24161 0.980713L0.500488 3.2314Z" fill="#763D16" stroke="#763D16" stroke-linecap="round" stroke-linejoin="round"/>
<path id="Vector_12" d="M14.3466 7.98821L11.2703 7.07962L12.2056 8.49892L10.8115 11.2306L12.6467 11.2069H15.3818L14.3466 7.98821ZM4.72373 7.07962L1.64748 7.98821L0.624023 11.2069H3.35324L5.18252 11.2306L3.79439 8.49892L4.72373 7.07962ZM8.8999 8.64738L9.09401 5.22087L9.98806 2.78015H6.01776L6.90005 5.22087L7.10591 8.64738L7.1765 9.72819L7.18238 12.3886H8.81168L8.82344 9.72819L8.8999 8.64738Z" fill="#F6851B" stroke="#F6851B" stroke-linecap="round" stroke-linejoin="round"/>
</g>
<defs>
<clipPath id="clip0_856_1553">
<rect width="16" height="16" fill="white"/>
</clipPath>
</defs>
</svg>
