<svg fill="inherit" viewBox="0 0 16 16" xmlns="http://www.w3.org/2000/svg">
<g id="money_icon">
<path id="money_icon_2" fill-rule="evenodd" clip-rule="evenodd" d="M8 0.000488281C3.58172 0.000488281 0 3.58221 0 8.00049C0 12.4188 3.58172 16.0005 8 16.0005C12.4183 16.0005 16 12.4188 16 8.00049C16 3.58221 12.4183 0.000488281 8 0.000488281ZM2.06276 8.00049C2.06276 4.72144 4.72095 2.06325 8 2.06325C11.279 2.06325 13.9372 4.72144 13.9372 8.00049C13.9372 11.2795 11.279 13.9377 8 13.9377C4.72095 13.9377 2.06276 11.2795 2.06276 8.00049ZM8.96789 4.90339C8.96789 4.47576 8.53456 4.1291 8.00002 4.1291C7.46549 4.1291 7.03216 4.47576 7.03216 4.90339V5.1336C6.57074 5.20424 6.14308 5.37499 5.8051 5.62847C5.35132 5.96881 5.0964 6.43039 5.0964 6.91169C5.0964 7.39299 5.35132 7.85458 5.8051 8.19491C6.25887 8.53524 6.87432 8.72644 7.51606 8.72644H8.48392C8.61227 8.72644 8.73536 8.76468 8.82611 8.83274C8.91687 8.90081 8.96785 8.99313 8.96785 9.08939C8.96785 9.18565 8.91687 9.27796 8.82611 9.34603C8.73536 9.4141 8.61227 9.45234 8.48392 9.45234H6.06426C5.52973 9.45234 5.0964 9.77733 5.0964 10.1782C5.0964 10.5791 5.52973 10.9041 6.06426 10.9041H7.03216V11.0977C7.03216 11.5253 7.46549 11.872 8.00002 11.872C8.53456 11.872 8.96789 11.5253 8.96789 11.0977V10.8675C9.42927 10.7968 9.85692 10.6261 10.1949 10.3726C10.6487 10.0323 10.9036 9.57069 10.9036 9.08939C10.9036 8.60809 10.6487 8.1465 10.1949 7.80617C9.7411 7.46584 9.12565 7.27464 8.48392 7.27464H7.51606C7.38771 7.27464 7.26462 7.2364 7.17387 7.16834C7.08311 7.10027 7.03212 7.00795 7.03212 6.91169C7.03212 6.81543 7.08311 6.72311 7.17387 6.65505C7.26462 6.58698 7.38771 6.54874 7.51606 6.54874H9.93572C10.4703 6.54874 10.9036 6.22375 10.9036 5.82285C10.9036 5.42194 10.4703 5.09695 9.93572 5.09695H8.96789V4.90339Z" />
</g>
</svg>
