<svg xmlns="http://www.w3.org/2000/svg" viewBox="0 0 22 22" fill="inherit">
<path fill-rule="evenodd" clip-rule="evenodd" d="M7.07362 5.20625C6.0707 5.20625 5.25767 6.00077 5.25767 6.98085V12.6795C5.25767 13.6578 6.06925 14.4509 7.07039 14.4509C8.25864 14.4509 9.38756 14.9583 10.1609 15.84L10.9191 16.7045L11.3478 16.118C12.1125 15.0718 13.3471 14.4509 14.6627 14.4509H14.9264C15.9293 14.4509 16.7423 13.6564 16.7423 12.6763V6.98085C16.7423 6.00077 15.9293 5.20625 14.9264 5.20625H7.07362ZM3 6.98085C3 4.78229 4.82382 3 7.07362 3H14.9264C17.1762 3 19 4.78229 19 6.98085V12.6763C19 14.8749 17.1762 16.6572 14.9264 16.6572H14.6627C14.0762 16.6572 13.5259 16.934 13.185 17.4003L12.647 18.1363C11.8505 19.226 10.2191 19.2965 9.32732 18.2798L8.44671 17.2758C8.10232 16.8832 7.59957 16.6572 7.07039 16.6572C4.82238 16.6572 3 14.8763 3 12.6795V6.98085Z" fill="inherit"/>
<circle cx="16" cy="5" r="4" fill="inherit"/>
</svg>