<svg xmlns="http://www.w3.org/2000/svg" viewBox="0 0 18 18" fill="inherit">
<g clip-path="url(#clip0_2037_1406)">
<path d="M3.27801 2.47955e-05C1.53128 2.47955e-05 0 1.35965 0 3.11962V5.27962C0 7.03959 1.53128 8.39927 3.27801 8.39927H5.12268C6.86941 8.39927 8.40069 7.03959 8.40069 5.27962V3.11962C8.40069 1.35965 6.86941 2.47955e-05 5.12268 2.47955e-05H3.27801ZM3.27801 2.39928H5.12268C5.67798 2.39928 5.99998 2.75223 5.99998 3.11962V5.27962C5.99998 5.64701 5.67798 6.00001 5.12268 6.00001H3.27801C2.72271 6.00001 2.40071 5.64701 2.40071 5.27962V3.11962C2.40071 2.75223 2.72271 2.39928 3.27801 2.39928Z" fill="inherit"/>
<path d="M3.27801 9.60073C1.53128 9.60073 0 10.9604 0 12.7204V14.8804C0 16.6404 1.53128 18 3.27801 18H5.12268C6.86941 18 8.40069 16.6404 8.40069 14.8804V12.7204C8.40069 10.9604 6.86941 9.60073 5.12268 9.60073H3.27801ZM3.27801 12H5.12268C5.67798 12 5.99998 12.353 5.99998 12.7204V14.8804C5.99998 15.2478 5.67798 15.6007 5.12268 15.6007H3.27801C2.72271 15.6007 2.40071 15.2478 2.40071 14.8804V12.7204C2.40071 12.353 2.72271 12 3.27801 12Z" fill="inherit"/>
<path d="M12.8773 9.60071C11.1305 9.60071 9.59924 10.9604 9.59924 12.7204V14.8804C9.59924 16.6403 11.1305 18 12.8773 18H14.722C16.4687 18 18 16.6403 18 14.8804V12.7204C18 10.9604 16.4687 9.60071 14.722 9.60071H12.8773ZM12.8773 12H14.722C15.2773 12 15.5992 12.353 15.5992 12.7204V14.8804C15.5992 15.2477 15.2773 15.6007 14.722 15.6007H12.8773C12.322 15.6007 11.9999 15.2477 11.9999 14.8804V12.7204C11.9999 12.353 12.322 12 12.8773 12Z" fill="inherit"/>
<path d="M13.7996 2.86102e-05C11.493 2.86102e-05 9.59924 1.89419 9.59924 4.19965C9.59924 6.50511 11.493 8.39927 13.7996 8.39927C16.1062 8.39927 18 6.50511 18 4.19965C18 1.89419 16.1062 2.86102e-05 13.7996 2.86102e-05ZM13.7996 2.39929C14.817 2.39929 15.5992 3.18111 15.5992 4.19965C15.5992 5.21819 14.817 6.00001 13.7996 6.00001C12.7822 6.00001 11.9999 5.21819 11.9999 4.19965C11.9999 3.18111 12.7822 2.39929 13.7996 2.39929Z" fill="inherit"/>
</g>
<defs>
<clipPath id="clip0_2037_1406">
<rect width="18" height="18" fill="white" />
</clipPath>
</defs>
</svg>