<svg viewBox="0 0 18 18" fill="inherit" xmlns="http://www.w3.org/2000/svg">
<g id="part_icon" clip-path="url(#clip0_548_1104)">
<path id="Union" fill-rule="evenodd" clip-rule="evenodd" d="M12.539 0C12.0525 0 11.5835 0.188023 11.2357 0.526646C10.8875 0.865681 10.6894 1.3283 10.6894 1.81348V5.5046C10.6894 5.98979 10.8875 6.4524 11.2357 6.79144C11.5835 7.13006 12.0525 7.31808 12.539 7.31808H16.1507C16.6371 7.31808 17.1061 7.13006 17.4539 6.79144C17.8021 6.4524 18.0002 5.98979 18.0002 5.5046V1.81348C18.0002 1.3283 17.8021 0.865681 17.4539 0.526646C17.1061 0.188023 16.6371 0 16.1507 0H12.539ZM15.8978 2.06655V2.06649H12.7917V5.25148H12.7918V2.06655H15.8978ZM15.6797 2.28473V5.03335H13.0099V2.28473H15.6797ZM17.1819 0.577333C17.2234 0.61042 17.2633 0.645643 17.3016 0.682915C17.6083 0.981515 17.7819 1.38802 17.7819 1.81342V5.50455C17.7819 5.92995 17.6083 6.33646 17.3016 6.63506C16.9952 6.93343 16.581 7.09984 16.1506 7.09984H12.5389C12.2648 7.09984 11.9974 7.03239 11.7601 6.90637C11.9974 7.03242 12.2649 7.0999 12.539 7.0999H16.1507C16.5811 7.0999 16.9953 6.93348 17.3017 6.63511C17.6084 6.33651 17.782 5.93 17.782 5.5046V1.81348C17.782 1.38808 17.6084 0.98157 17.3017 0.682969C17.2634 0.645673 17.2234 0.610439 17.1819 0.577333ZM1.78863 4.60198C1.99286 4.30366 2.21726 4.01744 2.46105 3.74545C3.87976 2.16259 5.84807 1.18096 7.96474 1.00063C8.16349 0.982319 8.36388 1.00627 8.55275 1.07092C8.74183 1.13565 8.91508 1.23969 9.06114 1.37621C9.20246 1.50752 9.31551 1.66633 9.39337 1.84291C9.41441 1.89063 9.43276 1.93937 9.44837 1.98891C9.43276 1.93937 9.41442 1.89062 9.39338 1.8429C9.31552 1.66631 9.20246 1.5075 9.06114 1.3762C8.91509 1.23967 8.74183 1.13563 8.55275 1.07091C8.36388 1.00626 8.1635 0.982301 7.96474 1.00061C5.84807 1.18094 3.87977 2.16258 2.46106 3.74543C2.21727 4.01743 1.99286 4.30366 1.78863 4.60198ZM9.51393 2.40372L9.51393 2.40374L9.51394 2.40583L9.51395 2.40581L9.51393 2.40372ZM9.51394 8.49491L9.51393 8.49493H15.5965C15.7907 8.49555 15.9836 8.53615 16.1614 8.6142C16.3392 8.69219 16.499 8.80591 16.631 8.9483C16.6493 8.96797 16.6671 8.98813 16.6843 9.00877C16.6671 8.98813 16.6493 8.96796 16.631 8.94828C16.499 8.80589 16.3392 8.69218 16.1614 8.61419C15.9836 8.53613 15.7908 8.49553 15.5966 8.49491H9.51394ZM8.34317 18H8.67837C10.8512 18.0063 12.9469 17.1948 14.5499 15.7265C16.1525 14.2585 17.1455 12.2413 17.332 10.0749C17.3544 9.83035 17.325 9.58377 17.2456 9.35133C17.166 9.11855 17.0382 8.9052 16.8705 8.72531C16.7081 8.55026 16.5116 8.41043 16.2929 8.3145C16.0738 8.21832 15.8355 8.16841 15.5966 8.16763H9.84121L9.84123 2.40581L9.84119 2.40095C9.83923 2.16322 9.78874 1.92838 9.69284 1.71086C9.59709 1.4937 9.45808 1.29836 9.2843 1.1368C9.10458 0.968895 8.8914 0.840908 8.65874 0.761268C8.42656 0.681793 8.18024 0.652264 7.93588 0.674606C5.73651 0.862265 3.69142 1.88237 2.21735 3.52699C0.742827 5.17211 -0.0493023 7.31823 0.00237864 9.52776C0.0540596 11.7373 0.945663 13.844 2.49549 15.4182C4.04532 16.9924 6.13667 17.9161 8.34317 18ZM3.92961 5.10957C4.86902 4.04382 6.13393 3.32915 7.51754 3.06969V8.74798C7.51754 9.2107 7.70115 9.65454 8.0281 9.98183C8.35506 10.3091 8.79859 10.4931 9.26114 10.4931H14.9337C14.6755 11.8792 13.9617 13.1465 12.8967 14.0874C11.6732 15.1681 10.0807 15.7347 8.45056 15.6694C6.85985 15.5837 5.35674 14.9126 4.23015 13.7848C3.10359 12.6571 2.43309 11.1523 2.34748 9.55967C2.28363 7.92783 2.85025 6.33408 3.92961 5.10957ZM3.99861 14.0161C2.81445 12.8307 2.10994 11.2489 2.02055 9.57486L2.01908 9.53465L2.02054 9.57487C2.10994 11.2489 2.81444 12.8307 3.9986 14.0161C5.18278 15.2016 6.76296 15.9068 8.43521 15.9963C10.1504 16.0656 11.8262 15.4697 13.1133 14.3327C13.1469 14.303 13.1802 14.273 13.2131 14.2427C13.1802 14.273 13.1469 14.303 13.1133 14.3326C11.8262 15.4696 10.1504 16.0656 8.43522 15.9963C6.76296 15.9068 5.18278 15.2016 3.99861 14.0161Z" fill="inherit"/>
</g>
<defs>
<clipPath id="clip0_548_1104">
<rect width="18" height="18" fill="white"/>
</clipPath>
</defs>
</svg>
