<svg width="16" height="16" viewBox="0 0 16 16" fill="none" xmlns="http://www.w3.org/2000/svg">
<g id="partner_icon">
<path id="Union" fill-rule="evenodd" clip-rule="evenodd" d="M13.8 8C13.8 11.2033 11.2033 13.8 8 13.8C4.79675 13.8 2.2 11.2033 2.2 8C2.2 4.79675 4.79675 2.2 8 2.2C11.2033 2.2 13.8 4.79675 13.8 8ZM16 8C16 12.4183 12.4183 16 8 16C3.58172 16 0 12.4183 0 8C0 3.58172 3.58172 0 8 0C12.4183 0 16 3.58172 16 8ZM6.8407 6.36288L7.51617 5.43174C7.75241 5.10609 8.24759 5.10609 8.48383 5.43174L9.1593 6.36288C9.23451 6.46656 9.34261 6.54321 9.4669 6.58097L10.5831 6.92012C10.9735 7.03874 11.1265 7.49831 10.8821 7.81819L10.1834 8.73282C10.1056 8.83466 10.0643 8.95867 10.0659 9.08569L10.0803 10.2264C10.0853 10.6254 9.68471 10.9094 9.29743 10.7815L8.19011 10.4156C8.06681 10.3749 7.93319 10.3749 7.80989 10.4156L6.70257 10.7815C6.3153 10.9094 5.91468 10.6254 5.91972 10.2264L5.93411 9.08569C5.93571 8.95867 5.89442 8.83466 5.81662 8.73282L5.11786 7.81819C4.87348 7.49831 5.0265 7.03874 5.41688 6.92012L6.5331 6.58097C6.65739 6.54321 6.76549 6.46657 6.8407 6.36288Z" fill="#5EB1BF"/>
</g>
</svg>
