<svg fill="inherit" viewBox="0 0 16 16" xmlns="http://www.w3.org/2000/svg">
<g id="password_icon">
<path fill="inherit" id="Union" fill-rule="evenodd" clip-rule="evenodd" d="M9 2.2H7C6.55817 2.2 6.2 2.55817 6.2 3V5H9.8V3C9.8 2.55817 9.44183 2.2 9 2.2ZM4 3V5H3C1.34315 5 0 6.34315 0 8V13C0 14.6569 1.34315 16 3 16H13C14.6569 16 16 14.6569 16 13V8C16 6.34315 14.6569 5 13 5H12V3C12 1.34315 10.6569 0 9 0H7C5.34315 0 4 1.34315 4 3ZM13 7.2H3C2.55817 7.2 2.2 7.55817 2.2 8V13C2.2 13.4418 2.55817 13.8 3 13.8H13C13.4418 13.8 13.8 13.4418 13.8 13V8C13.8 7.55817 13.4418 7.2 13 7.2ZM8.00002 9C7.39251 9 6.90002 9.49249 6.90002 10.1V10.9C6.90002 11.5075 7.39251 12 8.00002 12C8.60754 12 9.10002 11.5075 9.10002 10.9V10.1C9.10002 9.49249 8.60754 9 8.00002 9Z" />
</g>
</svg>
