<svg viewBox="0 0 16 16" fill="inherit" xmlns="http://www.w3.org/2000/svg">
<g id="pause_icon">
<path id="Union" fill-rule="evenodd" clip-rule="evenodd" d="M11 2.2H5C3.4536 2.2 2.2 3.4536 2.2 5V11C2.2 12.5464 3.4536 13.8 5 13.8H11C12.5464 13.8 13.8 12.5464 13.8 11V5C13.8 3.4536 12.5464 2.2 11 2.2ZM5 0C2.23858 0 0 2.23858 0 5V11C0 13.7614 2.23858 16 5 16H11C13.7614 16 16 13.7614 16 11V5C16 2.23858 13.7614 0 11 0H5ZM4.90002 4.95995C4.90002 4.54022 5.2582 4.19995 5.70002 4.19995H6.30002C6.74185 4.19995 7.10002 4.54021 7.10002 4.95995V11.04C7.10002 11.4597 6.74185 11.8 6.30002 11.8H5.70002C5.2582 11.8 4.90002 11.4597 4.90002 11.04V4.95995ZM9.70002 4.19995C9.2582 4.19995 8.90002 4.54022 8.90002 4.95995V11.04C8.90002 11.4597 9.2582 11.8 9.70002 11.8H10.3C10.7419 11.8 11.1 11.4597 11.1 11.04V4.95995C11.1 4.54021 10.7419 4.19995 10.3 4.19995H9.70002Z" fill="inherit"/>
</g>
</svg>
