<svg viewBox="0 0 16 16" fill="inherit" xmlns="http://www.w3.org/2000/svg">
<g id="play_icon">
<path id="play_icon_2" fill-rule="evenodd" clip-rule="evenodd" d="M5 2.2H11C12.5464 2.2 13.8 3.4536 13.8 5V11C13.8 12.5464 12.5464 13.8 11 13.8H5C3.4536 13.8 2.2 12.5464 2.2 11V5C2.2 3.4536 3.4536 2.2 5 2.2ZM0 5C0 2.23858 2.23858 0 5 0H11C13.7614 0 16 2.23858 16 5V11C16 13.7614 13.7614 16 11 16H5C2.23858 16 0 13.7614 0 11V5ZM7.0241 4.93791L10.6161 7.14834C11.2506 7.53883 11.2506 8.46117 10.6161 8.85166L7.0241 11.0621C6.35783 11.4721 5.5 10.9928 5.5 10.2104V5.78956C5.5 5.00724 6.35783 4.52789 7.0241 4.93791Z" fill="inherit"/>
</g>
</svg>
