<svg viewBox="0 0 8 8" fill="inherit" xmlns="http://www.w3.org/2000/svg">
<g id="plus_icon">
<path id="Union" fill-rule="evenodd" clip-rule="evenodd" d="M2.90002 7.4C2.90002 7.73137 3.16865 8 3.50002 8H4.50002C4.8314 8 5.10002 7.73137 5.10002 7.4V5.09998H7.4C7.73137 5.09998 8 4.83135 8 4.49998V3.49998C8 3.1686 7.73137 2.89998 7.4 2.89998H5.10002V0.6C5.10002 0.268629 4.8314 0 4.50002 0H3.50002C3.16865 0 2.90002 0.268629 2.90002 0.6V2.89998H0.6C0.268629 2.89998 0 3.1686 0 3.49998V4.49998C0 4.83135 0.268629 5.09998 0.6 5.09998H2.90002V7.4Z" fill="inherit"/>
</g>
</svg>
