<svg viewBox="0 0 16 16" fill="inherit" xmlns="http://www.w3.org/2000/svg">
<path fill-rule="evenodd" clip-rule="evenodd" d="M6.90002 13.6958V11.4887L5.63383 13.297C6.03396 13.476 6.45807 13.611 6.90002 13.6958ZM10.9022 5.77301L12.9759 5.01825C12.7468 4.63681 12.4751 4.28389 12.1674 3.96606L10.9022 5.77301ZM13.7283 7.08557L11.6545 7.84037L13.7856 8.41139C13.7952 8.2755 13.8 8.13832 13.8 8C13.8 7.68886 13.7755 7.38344 13.7283 7.08557ZM5.19898 6.11061L3.69434 4.11389C3.33077 4.51646 3.02286 4.97027 2.78274 5.46318L5.19898 6.11061ZM9.10002 11.2875V13.6958C9.61011 13.5979 10.0964 13.4331 10.5495 13.211L9.10002 11.2875ZM12.3058 11.886C12.6693 11.4834 12.9772 11.0296 13.2173 10.5367L10.8011 9.88931L12.3058 11.886ZM6.90002 4.71236V2.30417C6.38997 2.40208 5.90367 2.56681 5.45058 2.78889L6.90002 4.71236ZM4.34537 8.15949L2.21437 7.58849C2.20484 7.72442 2.2 7.86165 2.2 8C2.2 8.31108 2.22449 8.61645 2.27165 8.91427L4.34537 8.15949ZM3.02404 10.9816C3.25311 11.3631 3.52481 11.716 3.83254 12.0339L5.0979 10.2268L3.02404 10.9816ZM9.10002 4.51116L10.3661 2.703C9.96602 2.52401 9.54194 2.38902 9.10002 2.30418V4.51116ZM16 8C16 12.4183 12.4183 16 8 16C3.58172 16 0 12.4183 0 8C0 3.58172 3.58172 0 8 0C12.4183 0 16 3.58172 16 8Z" fill="inherit" />
</svg>
