<svg fill="inherit" viewBox="0 0 16 16"  xmlns="http://www.w3.org/2000/svg">
<g id="proportion2_icon">
<path fill="inherit" id="Union" fill-rule="evenodd" clip-rule="evenodd" d="M12.2139 11.9854C11.1566 13.1028 9.65974 13.8 8 13.8C6.34026 13.8 4.84335 13.1028 3.78612 11.9854L7.99999 9.30384L12.2139 11.9854ZM13.3963 10.1302L9.09999 7.39616V2.30417C11.7772 2.81813 13.8 5.17285 13.8 8C13.8 8.75208 13.6569 9.47073 13.3963 10.1302ZM6.89999 2.30417C4.22276 2.81815 2.2 5.17285 2.2 8C2.2 8.75208 2.34314 9.47072 2.60367 10.1302L6.89999 7.39616V2.30417ZM16 8C16 12.4183 12.4183 16 8 16C3.58172 16 0 12.4183 0 8C0 3.58172 3.58172 0 8 0C12.4183 0 16 3.58172 16 8Z" />
</g>
</svg>
