<svg viewBox="0 0 16 16" fill="inherit" xmlns="http://www.w3.org/2000/svg">
<path fill-rule="evenodd" clip-rule="evenodd" d="M6.90002 12.1053L6.10452 13.4832C6.36195 13.5722 6.6276 13.6435 6.90002 13.6958V12.1053ZM4.20001 12.3819L4.99472 11.0054L3.61823 11.8001C3.79821 12.0075 3.99266 12.2019 4.20001 12.3819ZM3.89502 9.10001L2.51687 9.89568C2.42786 9.6382 2.35648 9.37249 2.30417 9.10001H3.89502ZM12.1054 9.10001H13.6958C13.6435 9.37243 13.5722 9.63807 13.4832 9.8955L12.1054 9.10001ZM13.6958 6.90001H12.1055L13.4832 6.10459C13.5722 6.36199 13.6435 6.62761 13.6958 6.90001ZM9.10002 3.89484L9.89561 2.51684C9.63815 2.42785 9.37248 2.35648 9.10002 2.30418V3.89484ZM12.382 4.20007L11.0052 4.99492L11.8001 3.61818C12.0075 3.79819 12.202 3.99268 12.382 4.20007ZM3.89485 6.90001H2.30417C2.35648 6.62755 2.42785 6.36187 2.51684 6.10441L3.89485 6.90001ZM4.2 3.6181C3.99263 3.79809 3.79816 3.99256 3.61817 4.19992L4.99478 4.99471L4.2 3.6181ZM12.3819 11.8L11.0053 11.0052L11.8001 12.3818C12.0074 12.2018 12.2019 12.0074 12.3819 11.8ZM9.10002 12.1052V13.6958C9.37247 13.6435 9.63814 13.5722 9.89559 13.4832L9.10002 12.1052ZM6.90002 3.89469L6.1045 2.51681C6.36194 2.42783 6.62759 2.35647 6.90002 2.30417V3.89469ZM8 16C12.4183 16 16 12.4183 16 8C16 3.58172 12.4183 0 8 0C3.58172 0 0 3.58172 0 8C0 12.4183 3.58172 16 8 16Z" fill="inherit" />
</svg>
