<svg fill="inherit" viewBox="0 0 16 16"  xmlns="http://www.w3.org/2000/svg">
<g id="proportion4_icon">
<path fill="inherit" id="Union" fill-rule="evenodd" clip-rule="evenodd" d="M10.9546 12.9921C10.0893 13.5053 9.07904 13.8 8 13.8C6.92093 13.8 5.91069 13.5053 5.04536 12.9921L7.99995 9.82621L10.9546 12.9921ZM12.601 11.5318C13.353 10.5538 13.8 9.32908 13.8 8C13.8 7.53729 13.7458 7.08723 13.6434 6.65582L9.81396 8.5455L12.601 11.5318ZM12.7357 4.65051L9.09995 6.44457V2.30416C10.5956 2.59129 11.8871 3.45293 12.7357 4.65051ZM6.89995 2.30418C5.40428 2.59133 4.11288 3.45298 3.26432 4.65055L6.89995 6.44457V2.30418ZM2.35654 6.65587C2.25418 7.08726 2.2 7.5373 2.2 8C2.2 9.32906 2.64703 10.5537 3.39893 11.5318L6.18594 8.5455L2.35654 6.65587ZM16 8C16 12.4183 12.4183 16 8 16C3.58172 16 0 12.4183 0 8C0 3.58172 3.58172 0 8 0C12.4183 0 16 3.58172 16 8Z"/>
</g>
</svg>
