<svg  viewBox="0 0 16 16" fill="inherit" xmlns="http://www.w3.org/2000/svg">
<g id="proportion5_icon">
<path fill="inherit" id="Union" fill-rule="evenodd" clip-rule="evenodd" d="M5.79998 8L2.51682 9.89554C2.31151 9.30154 2.2 8.66379 2.2 8C2.2 7.33621 2.31151 6.69846 2.51682 6.10447L5.79998 8ZM6.90002 9.90523L3.61813 11.8C4.45298 12.7619 5.59925 13.4461 6.90002 13.6958V9.90523ZM10.2 8L13.4832 6.10445C13.6885 6.69845 13.8 7.3362 13.8 8C13.8 8.6638 13.6885 9.30155 13.4832 9.89555L10.2 8ZM12.3819 4.19995L9.10002 6.09472V2.30418C10.4008 2.5539 11.547 3.23813 12.3819 4.19995ZM9.10002 13.6958V9.90528L12.3819 11.8C11.547 12.7619 10.4008 13.4461 9.10002 13.6958ZM3.61813 4.19997L6.90002 6.09477V2.30417C5.59925 2.55388 4.45298 3.23813 3.61813 4.19997ZM16 8C16 12.4183 12.4183 16 8 16C3.58172 16 0 12.4183 0 8C0 3.58172 3.58172 0 8 0C12.4183 0 16 3.58172 16 8Z" />
</g>
</svg>
