<svg fill="inherit" viewBox="0 0 16 16" xmlns="http://www.w3.org/2000/svg">
<g id="proportion3_icon">
<path fill="inherit" id="Union" fill-rule="evenodd" clip-rule="evenodd" d="M6.90002 9.09998V13.6958C4.57893 13.2502 2.74976 11.4211 2.30417 9.09998H6.90002ZM9.10002 9.09997V13.6958C11.4211 13.2502 13.2502 11.4211 13.6958 9.09997H9.10002ZM13.6958 6.89997L9.10002 6.89998V2.30418C11.4211 2.74978 13.2502 4.57892 13.6958 6.89997ZM6.90002 6.89998L2.30418 6.89998C2.74978 4.5789 4.57894 2.74975 6.90002 2.30417V6.89998ZM8 16C12.4183 16 16 12.4183 16 8C16 3.58172 12.4183 0 8 0C3.58172 0 0 3.58172 0 8C0 12.4183 3.58172 16 8 16Z" />
</g>
</svg>
