<svg viewBox="0 0 16 16" fill="inherit" xmlns="http://www.w3.org/2000/svg">
<path fill="inherit" fill-rule="evenodd" clip-rule="evenodd" d="M6.90002 10.4297V13.6958C5.98819 13.5208 5.15228 13.1322 4.44634 12.5842L6.90002 10.4297ZM10.92 6.9H13.6958C13.5698 6.24345 13.333 5.62627 13.0058 5.06862L10.92 6.9ZM11.5537 3.41588L9.10002 5.57033V2.30418C10.0119 2.47923 10.8478 2.86782 11.5537 3.41588ZM5.0801 9.1L2.99426 10.9315C2.66698 10.3738 2.43022 9.75657 2.30417 9.1H5.0801ZM13.0058 10.9314L10.92 9.1H13.6958C13.5698 9.75655 13.333 10.3737 13.0058 10.9314ZM9.10002 10.4297L11.5537 12.5841C10.8478 13.1322 10.0119 13.5208 9.10002 13.6958V10.4297ZM4.44633 3.41583L6.90002 5.57028V2.30417C5.98819 2.47922 5.15227 2.86779 4.44633 3.41583ZM2.30417 6.9C2.43022 6.24343 2.66698 5.62622 2.99426 5.06855L5.08009 6.9H2.30417ZM8 16C12.4183 16 16 12.4183 16 8C16 3.58172 12.4183 0 8 0C3.58172 0 0 3.58172 0 8C0 12.4183 3.58172 16 8 16Z" fill="inherit"/>
</svg>
