<svg xmlns="http://www.w3.org/2000/svg" viewBox="0 0 12 12" fill="inherit">
<path fill-rule="evenodd" clip-rule="evenodd" d="M3.04362 3.9004C3.87023 2.68607 5.40094 2.06712 6.8982 2.46969C8.1086 2.79513 9.0042 3.70937 9.36026 4.82212C9.47971 5.1954 9.8272 5.47833 10.2157 5.42875L10.4052 5.40456C10.785 5.35609 11.0598 5.00923 10.9655 4.63791C10.5215 2.89058 9.17358 1.42812 7.31144 0.927449C5.12576 0.339788 2.89089 1.25444 1.69961 3.04003L1.53933 2.76166C1.34614 2.42614 0.917576 2.31091 0.582624 2.50444L0.413454 2.60218C0.0792043 2.7953 -0.0353617 3.22286 0.157427 3.55769L1.08743 5.17286C1.23887 5.43586 1.52591 5.59066 1.82865 5.57259L3.41564 5.47785C3.80121 5.45484 4.095 5.12364 4.07205 4.73787L4.06038 4.54175C4.03741 4.15549 3.70563 3.86088 3.31957 3.88393L3.04362 3.9004ZM8.95803 7.93995C8.13195 9.15463 6.60151 9.77423 5.10407 9.3723C3.89354 9.04739 2.99754 8.13352 2.641 7.02093C2.5214 6.6477 2.17378 6.36492 1.7853 6.41467L1.59583 6.43893C1.21606 6.48757 0.941362 6.83454 1.03587 7.20583C1.48058 8.95297 2.82914 10.4149 4.69149 10.9147C6.87743 11.5014 9.1119 10.5858 10.3024 8.79974L10.4628 9.07804C10.6562 9.41348 11.0848 9.52852 11.4196 9.33486L11.5888 9.23704C11.9229 9.04378 12.0373 8.61616 11.8444 8.28142L10.9137 6.66665C10.7621 6.40371 10.475 6.24903 10.1723 6.26723L8.58534 6.36265C8.19978 6.38583 7.90613 6.71716 7.92925 7.10292L7.941 7.29903C7.96414 7.68528 8.29605 7.97975 8.6821 7.95654L8.95803 7.93995Z" fill="inherit"/>
</svg>
