<svg viewBox="0 0 12 12" fill="inherit" xmlns="http://www.w3.org/2000/svg">
<g id="save_icon">
<path id="save_icon_2" fill-rule="evenodd" clip-rule="evenodd" d="M1.65 3.075C1.65 2.28799 2.28799 1.65 3.075 1.65H6.67243C6.85145 1.65 7.02314 1.72112 7.14973 1.8477L10.1523 4.85027C10.2789 4.97686 10.35 5.14855 10.35 5.32757V8.925C10.35 9.66134 9.79151 10.2672 9.07502 10.3422V9.00002C9.07502 8.13017 8.36987 7.42502 7.50002 7.42502H4.50002C3.63017 7.42502 2.92502 8.13017 2.92502 9.00002V10.3422C2.20851 10.2673 1.65 9.66135 1.65 8.925V3.075ZM4.57502 10.35H7.42502V9.45002C7.42502 9.24291 7.25713 9.07502 7.05002 9.07502H4.95002C4.74291 9.07502 4.57502 9.24291 4.57502 9.45002V10.35ZM3.075 0C1.37672 0 0 1.37672 0 3.075V8.925C0 10.6233 1.37672 12 3.075 12H8.925C10.6233 12 12 10.6233 12 8.925V5.32757C12 4.71094 11.755 4.11957 11.319 3.68355L8.31645 0.680977C7.88043 0.244955 7.28906 0 6.67243 0H3.075Z" fill="inherit"/>
</g>
</svg>
