<svg viewBox="0 0 12 12" fill="inherit" xmlns="http://www.w3.org/2000/svg">
<g id="search_icon">
<path id="Union" fill-rule="evenodd" clip-rule="evenodd" d="M8.84877 5.24927C8.84877 7.23722 7.23722 8.84877 5.24927 8.84877C3.26132 8.84877 1.64977 7.23722 1.64977 5.24927C1.64977 3.26132 3.26132 1.64977 5.24927 1.64977C7.23722 1.64977 8.84877 3.26132 8.84877 5.24927ZM8.33194 9.4985C7.46636 10.1275 6.40114 10.4985 5.24927 10.4985C2.35018 10.4985 0 8.14837 0 5.24927C0 2.35018 2.35018 0 5.24927 0C8.14837 0 10.4985 2.35018 10.4985 5.24927C10.4985 6.40114 10.1275 7.46636 9.4985 8.33194L11.6828 10.5162C11.9952 10.8287 11.9952 11.3352 11.6828 11.6476L11.6476 11.6828C11.3352 11.9952 10.8287 11.9952 10.5162 11.6828L8.33194 9.4985Z" fill="inherit"/>
</g>
</svg>
