<svg viewBox="0 0 16 16" fill="inherit" xmlns="http://www.w3.org/2000/svg">
<g id="settings_icon">
<g id="Union">
<path fill-rule="evenodd" clip-rule="evenodd" d="M11 8C11 9.65685 9.65685 11 8 11C6.34315 11 5 9.65685 5 8C5 6.34315 6.34315 5 8 5C9.65685 5 11 6.34315 11 8ZM9.5 8C9.5 8.82843 8.82843 9.5 8 9.5C7.17157 9.5 6.5 8.82843 6.5 8C6.5 7.17157 7.17157 6.5 8 6.5C8.82843 6.5 9.5 7.17157 9.5 8Z" fill="inherit"/>
<path fill-rule="evenodd" clip-rule="evenodd" d="M6.3762 0.426676C7.38101 -0.142225 8.61899 -0.142226 9.6238 0.426676L13.8762 2.8343C14.881 3.4032 15.5 4.45457 15.5 5.59238V10.4076C15.5 11.5454 14.881 12.5968 13.8762 13.1657L9.6238 15.5733C8.61899 16.1422 7.38101 16.1422 6.3762 15.5733L2.1238 13.1657C1.11899 12.5968 0.5 11.5454 0.5 10.4076V5.59238C0.5 4.45457 1.11899 3.4032 2.1238 2.8343L6.3762 0.426676ZM8.43301 2.44927L12.6854 4.85689C12.9534 5.0086 13.1184 5.28896 13.1184 5.59238V10.4076C13.1184 10.711 12.9534 10.9914 12.6854 11.1431L8.43301 13.5507C8.16506 13.7024 7.83494 13.7024 7.56699 13.5507L3.31458 11.1431C3.04663 10.9914 2.88157 10.711 2.88157 10.4076V5.59238C2.88157 5.28896 3.04663 5.0086 3.31458 4.85689L7.56699 2.44927C7.83494 2.29756 8.16506 2.29756 8.43301 2.44927Z" fill="inherit"/>
</g>
</g>
</svg>
