<svg viewBox="0 0 16 16" fill="inherit" xmlns="http://www.w3.org/2000/svg">
<g id="share_icon">
<path fill="inherit" id="share_icon_2" fill-rule="evenodd" clip-rule="evenodd" d="M12.5 4.8C13.218 4.8 13.8 4.21797 13.8 3.5C13.8 2.78203 13.218 2.2 12.5 2.2C11.782 2.2 11.2 2.78203 11.2 3.5C11.2 4.21797 11.782 4.8 12.5 4.8ZM12.5 7C14.433 7 16 5.433 16 3.5C16 1.567 14.433 0 12.5 0C10.567 0 9 1.567 9 3.5C9 3.53884 9.00063 3.57754 9.00189 3.61608L5.56832 5.67622C4.98888 5.25108 4.27376 5 3.5 5C1.567 5 0 6.567 0 8.5C0 10.433 1.567 12 3.5 12C4.3172 12 5.06899 11.7199 5.66462 11.2505L9.00101 12.5851C9.0462 14.4788 10.5954 16 12.5 16C14.433 16 16 14.433 16 12.5C16 10.567 14.433 9 12.5 9C11.3222 9 10.2803 9.58176 9.64594 10.4736L6.89064 9.37147C6.96204 9.09287 7 8.80087 7 8.5C7 8.14315 6.9466 7.79877 6.84734 7.47443L9.78657 5.71089C10.4284 6.49763 11.4055 7 12.5 7ZM3.5 9.8C4.21797 9.8 4.8 9.21797 4.8 8.5C4.8 7.78203 4.21797 7.2 3.5 7.2C2.78203 7.2 2.2 7.78203 2.2 8.5C2.2 9.21797 2.78203 9.8 3.5 9.8ZM13.8 12.5C13.8 13.218 13.218 13.8 12.5 13.8C11.782 13.8 11.2 13.218 11.2 12.5C11.2 11.782 11.782 11.2 12.5 11.2C13.218 11.2 13.8 11.782 13.8 12.5Z" />
</g>
</svg>
