<svg viewBox="0 0 16 16" fill="inherit" xmlns="http://www.w3.org/2000/svg">
<g id="show_icon">
<path fill="inherit" id="Union" fill-rule="evenodd" clip-rule="evenodd" d="M13.8 8C13.8 8.34846 13.5679 8.99677 12.4909 9.66994C11.4448 10.3237 9.86278 10.8 8 10.8C6.13722 10.8 4.5552 10.3237 3.50914 9.66994C2.43208 8.99677 2.2 8.34846 2.2 8C2.2 7.65154 2.43208 7.00323 3.50914 6.33006C4.01631 6.01308 4.64947 5.73783 5.37954 5.53835C5.13779 5.97083 5 6.46933 5 7C5 8.65685 6.34315 10 8 10C9.65685 10 11 8.65685 11 7C11 6.46933 10.8622 5.97083 10.6205 5.53835C11.3505 5.73783 11.9837 6.01308 12.4909 6.33006C13.5679 7.00323 13.8 7.65154 13.8 8ZM16 8C16 10.7614 12.4183 13 8 13C3.58172 13 0 10.7614 0 8C0 5.23858 3.58172 3 8 3C12.4183 3 16 5.23858 16 8Z" />
</g>
</svg>
