<svg  viewBox="0 0 16 16" fill="inherit" xmlns="http://www.w3.org/2000/svg">
<path fill-rule="evenodd" clip-rule="evenodd" d="M8.25804 3.06686C8.13205 2.89318 7.86795 2.89318 7.74196 3.06686L6.52131 4.74954C6.07003 5.37164 5.42144 5.83149 4.67569 6.05807L2.65855 6.67096C2.45034 6.73422 2.36873 6.97933 2.49907 7.14993L3.76181 8.80277C4.22865 9.41384 4.47639 10.1579 4.46677 10.92L4.44076 12.9815C4.43807 13.1943 4.65174 13.3457 4.85828 13.2775L6.85934 12.6163C7.59915 12.3719 8.40085 12.3719 9.14066 12.6163L11.1417 13.2775C11.3483 13.3457 11.5619 13.1943 11.5592 12.9815L11.5332 10.92C11.5236 10.1579 11.7713 9.41384 12.2382 8.80277L13.5009 7.14993C13.6313 6.97933 13.5497 6.73422 13.3415 6.67096L11.3243 6.05807C10.5786 5.83149 9.92997 5.37164 9.47869 4.74954L8.25804 3.06686ZM9.29021 1.15241C8.66025 0.283995 7.33975 0.283995 6.70979 1.15241L4.90854 3.63545C4.70797 3.91194 4.41971 4.11631 4.08827 4.21702L1.11169 5.12142C0.0706597 5.43773 -0.337396 6.66326 0.31429 7.51627L2.17764 9.95528C2.38513 10.2269 2.49523 10.5575 2.49096 10.8963L2.45257 13.9383C2.43915 15.0022 3.50746 15.7596 4.54018 15.4184L7.49304 14.4427C7.82185 14.3341 8.17815 14.3341 8.50696 14.4427L11.4598 15.4184C12.4925 15.7596 13.5609 15.0022 13.5474 13.9383L13.509 10.8963C13.5048 10.5575 13.6149 10.2269 13.8224 9.95528L15.6857 7.51627C16.3374 6.66326 15.9293 5.43773 14.8883 5.12142L11.9117 4.21702C11.5803 4.11631 11.292 3.91194 11.0915 3.63545L9.29021 1.15241Z" />
</svg>
