<svg viewBox="0 0 16 16" fill="inherit" xmlns="http://www.w3.org/2000/svg">
<path d="M14.6359 1.61918C14.6359 1.61918 16.116 1.03483 15.9927 2.45398C15.9516 3.03834 15.5816 5.08359 15.2938 7.29582L14.307 13.849C14.307 13.849 14.2248 14.809 13.4847 14.976C12.7447 15.1429 11.6346 14.3916 11.429 14.2246C11.2645 14.0994 8.34545 12.2211 7.31757 11.3028C7.02976 11.0524 6.70084 10.5515 7.35867 9.96716L11.6757 5.79319C12.1691 5.2923 12.6624 4.12359 10.6067 5.54275L4.85071 9.50804C4.85071 9.50804 4.19288 9.92542 2.95947 9.54978L0.287018 8.71497C0.287018 8.71497 -0.69973 8.08888 0.985963 7.46275C5.09741 5.50097 10.1545 3.49746 14.6359 1.61918Z" fill="inherit"/>
</svg>
