<svg viewBox="0 0 16 16" fill="none" xmlns="http://www.w3.org/2000/svg">
<g id="Telegram_logo 1" clip-path="url(#clip0_2355_7620)">
<path id="Vector" d="M8 16C12.4183 16 16 12.4183 16 8C16 3.58172 12.4183 0 8 0C3.58172 0 0 3.58172 0 8C0 12.4183 3.58172 16 8 16Z" fill="url(#paint0_linear_2355_7620)"/>
<path id="Vector_2" d="M5.41504 8.58479L6.36417 11.2119C6.36417 11.2119 6.48284 11.4577 6.60991 11.4577C6.73697 11.4577 8.62691 9.49152 8.62691 9.49152L10.7286 5.43219L5.44891 7.90666L5.41504 8.58479Z" fill="#C8DAEA"/>
<path id="Vector_3" d="M6.67367 9.25854L6.49147 11.1949C6.49147 11.1949 6.41521 11.7883 7.00841 11.1949C7.60161 10.6016 8.16941 10.1441 8.16941 10.1441" fill="#A9C6D8"/>
<path id="Vector_4" d="M5.43263 8.67854L3.48024 8.0424C3.48024 8.0424 3.2469 7.94774 3.32203 7.73307C3.3375 7.6888 3.3687 7.65114 3.46203 7.5864C3.89463 7.28487 11.4691 4.5624 11.4691 4.5624C11.4691 4.5624 11.683 4.49034 11.8091 4.53827C11.8403 4.54793 11.8684 4.5657 11.8905 4.58978C11.9125 4.61385 11.9278 4.64335 11.9348 4.67527C11.9484 4.73165 11.9541 4.78965 11.9517 4.8476C11.9511 4.89774 11.945 4.9442 11.9404 5.01707C11.8943 5.7614 10.5138 11.3166 10.5138 11.3166C10.5138 11.3166 10.4312 11.6417 10.1352 11.6528C10.0625 11.6552 9.99006 11.6428 9.92219 11.6166C9.85433 11.5903 9.79245 11.5507 9.74023 11.5C9.1595 11.0005 7.1523 9.65154 6.70877 9.35487C6.69876 9.34805 6.69034 9.33917 6.68406 9.32882C6.67778 9.31847 6.67379 9.30689 6.67237 9.29487C6.66617 9.26361 6.70017 9.22487 6.70017 9.22487C6.70017 9.22487 10.1952 6.1182 10.2882 5.79207C10.2954 5.7668 10.2682 5.75434 10.2317 5.7654C9.99957 5.8508 5.97544 8.39207 5.5313 8.67254C5.49933 8.68221 5.46554 8.68427 5.43263 8.67854Z" fill="white"/>
</g>
<defs>
<linearGradient id="paint0_linear_2355_7620" x1="8" y1="16" x2="8" y2="0" gradientUnits="userSpaceOnUse">
<stop stop-color="#1D93D2"/>
<stop offset="1" stop-color="#38B0E3"/>
</linearGradient>
<clipPath id="clip0_2355_7620">
<rect width="16" height="16" fill="white"/>
</clipPath>
</defs>
</svg>
