<svg viewBox="0 0 16 16" fill="inherit" xmlns="http://www.w3.org/2000/svg">
<g id="ticket_icon">
<path fill="inherit" id="ticket_icon_2" fill-rule="evenodd" clip-rule="evenodd" d="M10.6863 3.20827C10.1315 2.27167 8.89216 2.01413 8.0103 2.6522L6.36244 3.8445H11.0631L10.6863 3.20827ZM6.66223 0.78832L2.33467 3.91949C0.998006 4.22607 0 5.43666 0 6.88337V12.9611C0 14.6395 1.34315 16 3 16H13C14.6568 16 16 14.6395 16 12.9612V12.9611V11.9482V10.9353C15.4477 10.9353 15 10.4818 15 9.92232C15 9.36288 15.4477 8.90936 16 8.90936V7.89633V6.88344V6.88337C16 5.48619 15.0692 4.30923 13.8014 3.95413L12.6651 2.03572C11.4206 -0.0653012 8.64046 -0.643014 6.66223 0.78832ZM3 5.87041H13C13.5523 5.87041 14 6.32393 14 6.88337V7.65724C13.3863 8.21368 13 9.02231 13 9.92232C13 10.8223 13.3863 11.631 14 12.1874V12.9611C14 13.5206 13.5523 13.9741 13 13.9741H3C2.44772 13.9741 2 13.5206 2 12.9611V6.88337C2 6.32393 2.44772 5.87041 3 5.87041ZM6 5.87044H4V6.89636C4 7.44864 4.44772 7.89636 5 7.89636C5.55228 7.89636 6 7.44864 6 6.89636V5.87044ZM4 12.9481C4 12.3959 4.44772 11.9481 5 11.9481C5.55228 11.9481 6 12.3959 6 12.9481V13.9741H4V12.9481ZM5 8.90936C4.44772 8.90936 4 9.35707 4 9.90936V9.93527C4 10.4876 4.44772 10.9353 5 10.9353C5.55228 10.9353 6 10.4876 6 9.93527V9.90936C6 9.35707 5.55228 8.90936 5 8.90936Z"/>
</g>
</svg>
