<svg viewBox="0 0 16 16" fill="inherit" xmlns="http://www.w3.org/2000/svg">
<g id="time_icon">
<path id="time_icon_2" fill-rule="evenodd" clip-rule="evenodd" d="M8 13.8005C11.2033 13.8005 13.8 11.2037 13.8 8.00049C13.8 4.79724 11.2033 2.20049 8 2.20049C4.79675 2.20049 2.2 4.79724 2.2 8.00049C2.2 11.2037 4.79675 13.8005 8 13.8005ZM8 16.0005C12.4183 16.0005 16 12.4188 16 8.00049C16 3.58221 12.4183 0.000488281 8 0.000488281C3.58172 0.000488281 0 3.58221 0 8.00049C0 12.4188 3.58172 16.0005 8 16.0005ZM7.00818 5.01196C7.00818 4.45968 7.45589 4.01196 8.00818 4.01196C8.56046 4.01196 9.00818 4.45968 9.00818 5.01196V7.49954L11.0355 8.92438C11.4873 9.24195 11.5962 9.86569 11.2786 10.3175C10.9611 10.7694 10.3373 10.8782 9.88547 10.5607L7.43103 8.83564C7.1345 8.62724 6.98569 8.28697 7.00818 7.94997V5.01196Z" fill="inherit" />
</g>
</svg>
