<svg viewBox="0 0 16 16" fill="inherit" xmlns="http://www.w3.org/2000/svg">
<g id="token_icon">
<path id="token_icon_2" fill-rule="evenodd" clip-rule="evenodd" d="M15.1336 2.06567C14.6498 1.59161 14.0061 1.21508 13.3006 0.922641C11.8856 0.336147 10.0107 0.000488281 8 0.000488281C5.98931 0.000488281 4.11446 0.336144 2.69948 0.922638C1.9939 1.21508 1.35018 1.59161 0.866412 2.06568C0.377991 2.54431 0.000242892 3.17976 0.000242892 3.94215L0 12.0588L0.00693113 12.2339L0.00790724 12.2457C0.0639224 12.9264 0.418702 13.4966 0.866403 13.9353C1.35017 14.4094 1.99389 14.7859 2.69947 15.0783C4.11446 15.6649 5.98932 16.0005 8 16.0005C10.0107 16.0005 11.8855 15.6649 13.3005 15.0783C14.0061 14.7859 14.6498 14.4094 15.1336 13.9353C15.622 13.4567 15.9998 12.8212 15.9998 12.0588L16 3.94215L15.9931 3.7671L15.9921 3.75524C15.9361 3.07454 15.5813 2.5044 15.1336 2.06567ZM0.637145 13.2018C0.450738 12.9084 0.325595 12.5803 0.296119 12.2221L0.289429 12.0589V3.9422C0.289429 3.28141 0.616127 2.71588 1.06883 2.27226C1.51754 1.83253 2.12547 1.47362 2.81022 1.18981C4.18227 0.621112 6.01781 0.289692 8.00004 0.289692C9.98226 0.289692 11.8178 0.621112 13.1899 1.18981C13.8746 1.47362 14.4825 1.83253 14.9313 2.27226C14.9831 2.32307 15.0333 2.37549 15.0816 2.42947C15.0333 2.37547 14.9831 2.32304 14.9312 2.27221C14.4825 1.83249 13.8745 1.47358 13.1898 1.18976C11.8178 0.621065 9.98223 0.289645 8 0.289645C6.01777 0.289645 4.18223 0.621065 2.81019 1.18976C2.12543 1.47358 1.5175 1.83249 1.06879 2.27221C0.616089 2.71583 0.289391 3.28136 0.289391 3.94215V12.0588L0.296081 12.222C0.325558 12.5802 0.45072 12.9084 0.637145 13.2018ZM8 11.9422C10.0107 11.9422 11.8855 11.6065 13.3006 11.02C13.4392 10.9625 13.5752 10.9019 13.708 10.838V12.0588C13.708 12.0822 13.7009 12.194 13.4969 12.3939C13.2871 12.5996 12.927 12.8352 12.3923 13.0569C11.3267 13.4985 9.77461 13.7988 8 13.7988C6.22542 13.7988 4.67332 13.4985 3.60768 13.0569C3.07295 12.8352 2.71295 12.5996 2.50306 12.3939C2.29906 12.194 2.29201 12.0822 2.29201 12.0588V10.838C2.42476 10.9019 2.56081 10.9625 2.69947 11.02C4.11446 11.6065 5.98932 11.9422 8 11.9422ZM2.30069 12.6005C2.3007 12.6005 2.30071 12.6005 2.30072 12.6005C2.54566 12.8405 2.94146 13.0938 3.49701 13.324C4.60558 13.7835 6.19698 14.088 8.00004 14.088C9.80312 14.088 11.3945 13.7835 12.503 13.324C13.0586 13.0938 13.4544 12.8405 13.6994 12.6005C13.9403 12.3644 13.9972 12.1826 13.9972 12.0589V10.3601C13.9972 10.3601 13.9972 10.3601 13.9971 10.3602V12.0588C13.9971 12.1825 13.9403 12.3643 13.6993 12.6005C13.4544 12.8405 13.0586 13.0937 12.503 13.324C11.3945 13.7835 9.80308 14.088 8 14.088C6.19694 14.088 4.60554 13.7835 3.49697 13.324C2.94142 13.0937 2.54563 12.8405 2.30069 12.6005ZM8 7.88381C10.0107 7.88381 11.8855 7.54817 13.3006 6.96163C13.4392 6.90416 13.5752 6.84352 13.708 6.77966V8.00049C13.708 8.02388 13.7009 8.13569 13.4969 8.3356C13.2871 8.54126 12.927 8.77688 12.3923 8.99852C11.3267 9.4402 9.77461 9.7405 8 9.7405C6.22542 9.7405 4.67332 9.4402 3.60768 8.99851C3.07295 8.77687 2.71295 8.54125 2.50306 8.33558C2.29906 8.13569 2.29201 8.02388 2.29201 8.00049V6.77967C2.42476 6.84353 2.56081 6.90416 2.69947 6.96163C4.11446 7.54817 5.98932 7.88381 8 7.88381ZM2.30069 8.54212C2.54563 8.78213 2.94142 9.03537 3.49697 9.26564C4.60554 9.72512 6.19694 10.0297 8 10.0297C9.80308 10.0297 11.3945 9.72512 12.503 9.26564C13.0586 9.03537 13.4544 8.78213 13.6993 8.54212C13.9403 8.306 13.9971 8.12419 13.9971 8.00049V6.30182C13.9972 6.30181 13.9972 6.3018 13.9972 6.3018V8.00054C13.9972 8.12423 13.9403 8.30605 13.6994 8.54216C13.4544 8.78217 13.0586 9.03541 12.503 9.26568C11.3945 9.72517 9.80312 10.0297 8.00004 10.0297C6.19698 10.0297 4.60558 9.72517 3.49701 9.26568C2.94146 9.03541 2.54566 8.78217 2.30072 8.54216C2.30071 8.54215 2.3007 8.54213 2.30069 8.54212ZM3.49701 2.67703C4.60558 2.21755 6.19698 1.91303 8.00004 1.91303C9.80312 1.91303 11.3945 2.21755 12.503 2.67703C13.0586 2.9073 13.4544 3.16054 13.6994 3.40057C13.9403 3.6367 13.9972 3.81852 13.9972 3.9422C13.9972 4.06588 13.9403 4.24769 13.6994 4.48382C13.4544 4.72385 13.0586 4.97709 12.503 5.20736C11.3945 5.66684 9.80312 5.97137 8.00004 5.97137C6.19698 5.97137 4.60558 5.66684 3.49701 5.20736C2.94146 4.97709 2.54566 4.72385 2.30072 4.48382C2.05977 4.24769 2.0029 4.06588 2.0029 3.9422C2.0029 3.81852 2.05977 3.6367 2.30072 3.40057C2.54566 3.16054 2.94146 2.9073 3.49701 2.67703Z" fill="inherit"/>
</g>
</svg>
