<svg viewBox="0 0 16 16" fill="inherit" xmlns="http://www.w3.org/2000/svg">
<path fill-rule="evenodd" clip-rule="evenodd" d="M4.86215 5.43024C4.86215 3.69722 6.26703 2.29234 8.00005 2.29234C9.73304 2.29234 11.138 3.69723 11.138 5.43024C11.138 7.16322 9.73303 8.56815 8.00005 8.56815C6.26703 8.56815 4.86215 7.16323 4.86215 5.43024ZM11.2767 9.39144C11.2766 9.39143 11.2766 9.39141 11.2765 9.3914C12.4152 8.44853 13.1406 7.02407 13.1406 5.43015C13.1406 4.82159 13.0349 4.23774 12.8407 3.69595C13.0349 4.23776 13.1406 4.82165 13.1406 5.43024C13.1406 6.90568 12.5191 8.23591 11.5235 9.17337C11.4436 9.24863 11.3613 9.32137 11.2767 9.39144ZM15.7109 14.8547C15.7109 14.2766 15.6088 13.7115 15.4143 13.1735C15.6088 13.7114 15.7109 14.2765 15.7109 14.8546C15.7109 15.3278 15.3273 15.7113 14.8541 15.7113C14.4993 15.7113 14.1948 15.4956 14.0647 15.1882C14.1948 15.4957 14.4993 15.7114 14.8542 15.7114C15.3274 15.7114 15.7109 15.3279 15.7109 14.8547ZM13.7083 13.5506C13.0207 11.9987 11.109 10.5707 8.00002 10.5707C4.0206 10.5707 2.00266 12.9102 2.00266 14.8546C2.00266 15.3278 1.61906 15.7113 1.14589 15.7113C0.776248 15.7113 0.461277 15.4773 0.341139 15.1492C0.461251 15.4773 0.776248 15.7114 1.14592 15.7114C1.6191 15.7114 2.00269 15.3279 2.00269 14.8547C2.00269 12.9103 4.02063 10.5708 8.00005 10.5708C11.109 10.5708 13.0207 11.9987 13.7083 13.5506ZM4.47658 9.17337C4.5565 9.24863 4.63883 9.32136 4.72345 9.39142C4.72347 9.39142 4.72348 9.39141 4.7235 9.3914C4.0729 8.85267 3.5572 8.15672 3.23466 7.36176C3.51524 8.05333 3.94199 8.66998 4.47658 9.17337ZM2.5703 5.43024C2.5703 6.93994 3.18669 8.30585 4.18076 9.28967C1.61713 10.3523 0 12.4806 0 14.8547C0 15.4876 0.513056 16.0006 1.14592 16.0006C1.77879 16.0006 2.29185 15.4876 2.29185 14.8547C2.29185 13.1192 4.12627 10.86 8.00005 10.86C11.8738 10.86 13.7083 13.1192 13.7083 14.8547C13.7083 15.4876 14.2213 16.0006 14.8542 16.0006C15.4871 16.0006 16.0001 15.4876 16.0001 14.8547C16.0001 12.4806 14.383 10.3523 11.8193 9.28967C12.8134 8.30585 13.4298 6.93995 13.4298 5.43024C13.4298 2.43147 10.9988 0.000488281 8.00005 0.000488281C5.00128 0.000488281 2.5703 2.43147 2.5703 5.43024ZM4.57299 5.43024C4.57299 3.53753 6.10734 2.00318 8.00005 2.00318C9.47684 2.00318 10.7355 2.93731 11.2173 4.24693C10.7355 2.93726 9.47684 2.00308 8.00002 2.00308C6.1073 2.00308 4.57295 3.53743 4.57295 5.43015C4.57295 5.84604 4.64704 6.24463 4.78273 6.61344C4.64706 6.24465 4.57299 5.8461 4.57299 5.43024Z" fill="inherit"/>
</svg>
