<svg viewBox="0 0 12 12" fill="inherit" xmlns="http://www.w3.org/2000/svg">
<g id="withdraw_icon">
<path id="withdraw_icon_2" fill-rule="evenodd" clip-rule="evenodd" d="M4.5 1.65H5.2C5.64183 1.65 6 1.29183 6 0.850001V0.8C6 0.358172 5.64183 0 5.2 0H4.5C2.01472 0 0 2.01472 0 4.5V7.5C0 9.98528 2.01472 12 4.5 12H7.5C9.98528 12 12 9.98528 12 7.5V6.8C12 6.35817 11.6418 6 11.2 6H11.15C10.7082 6 10.35 6.35817 10.35 6.8V7.5C10.35 9.07401 9.07401 10.35 7.5 10.35H4.5C2.92599 10.35 1.65 9.07401 1.65 7.5V4.5C1.65 2.92599 2.92599 1.65 4.5 1.65ZM8.9402 1.65C9.02929 1.65 9.07391 1.75771 9.01091 1.82071L5.53067 5.30095C5.21825 5.61337 5.21825 6.1199 5.53067 6.43232L5.56603 6.46768C5.87845 6.7801 6.38498 6.7801 6.6974 6.46768L10.1776 2.98744C10.2406 2.92444 10.3484 2.96906 10.3484 3.05815V3.775C10.3484 4.21683 10.7065 4.575 11.1484 4.575H11.1984C11.6402 4.575 11.9984 4.21683 11.9984 3.775V1.2C11.9984 0.537259 11.4611 0 10.7984 0H8.22335C7.78152 0 7.42335 0.358172 7.42335 0.8V0.850001C7.42335 1.29183 7.78152 1.65 8.22335 1.65H8.9402Z"/>
</g>
</svg>
