<svg width="26" height="26" viewBox="0 0 26 26" fill="none" xmlns="http://www.w3.org/2000/svg">
<path d="M21.6875 0C22.2398 0 22.6875 0.447715 22.6875 1V1.6C22.6875 2.15228 22.2398 2.6 21.6875 2.6H20.0625V6.5C22.2373 6.5 24 8.2459 24 10.4V24.7C24 25.4176 23.412 26 22.6875 26H3.3125C2.588 26 2 25.4176 2 24.7V10.4C2 8.2459 3.76269 6.5 5.9375 6.5V2.6H4.3125C3.76022 2.6 3.3125 2.15228 3.3125 1.6V1C3.3125 0.447716 3.76022 0 4.3125 0H21.6875ZM20.0625 9.1H5.9375C5.213 9.1 4.625 9.6824 4.625 10.4V23.4H21.375V10.4C21.375 9.6824 20.787 9.1 20.0625 9.1ZM13.2718 12.2547C13.8241 12.2547 14.2718 12.7024 14.2718 13.2547V14.8547H15.8968C16.4491 14.8547 16.8968 15.3024 16.8968 15.8547V16.4547C16.8968 17.007 16.4491 17.4547 15.8968 17.4547H14.2705L14.2713 19.0542C14.2716 19.6067 13.8238 20.0547 13.2713 20.0547H12.6463C12.0942 20.0547 11.6466 19.6073 11.6463 19.0552L11.6455 17.4547H10.0218C9.46951 17.4547 9.02179 17.007 9.02179 16.4547V15.8547C9.02179 15.3024 9.46951 14.8547 10.0218 14.8547H11.6468V13.2547C11.6468 12.7024 12.0945 12.2547 12.6468 12.2547H13.2718ZM17.4375 2.6H8.5625V6.5H17.4375V2.6Z" fill="#5EB1BF"/>
</svg>
