<svg xmlns="http://www.w3.org/2000/svg" viewBox="0 0 55 64" fill="inherit">
  <path fill-rule="evenodd" clip-rule="evenodd" d="M27.5014 0.883774L27.5 0.882948L0.76756 16.4381L3.24812 17.0264C3.88691 17.1777 4.51705 17.3646 5.13524 17.585C6.37486 15.9414 8.11028 14.7679 10.1207 14.2257C12.5203 13.5786 15.0287 13.9076 17.178 15.1635C17.5733 15.393 17.9478 15.6484 18.2997 15.9276C18.2347 15.481 18.201 15.0243 18.201 14.5599C18.201 9.80261 21.7401 5.85918 26.3028 5.2649C26.4223 4.61695 26.5765 3.97543 26.7653 3.34408L27.5014 0.883774ZM27.5109 0.889275L28.2453 3.34408C28.4343 3.97589 28.5885 4.61788 28.708 5.26631C33.2656 5.86537 36.7992 9.80634 36.7992 14.5599C36.7992 15.0264 36.7652 15.485 36.6996 15.9334C37.0535 15.6517 37.43 15.3941 37.8274 15.1629C41.9155 12.7796 47.0737 13.897 49.8662 17.5864C50.4853 17.3654 51.1166 17.1781 51.7567 17.0264L54.2338 16.4389L27.5109 0.889275ZM54.2382 16.4512L52.4967 18.3206C52.0461 18.8031 51.5694 19.2601 51.0699 19.6899C51.856 21.5893 51.9998 23.6874 51.4632 25.7089C50.8211 28.1274 49.2812 30.1511 47.1319 31.4015C46.7379 31.6295 46.3314 31.8272 45.9156 31.9939C46.3272 32.1592 46.732 32.3563 47.1267 32.586C51.2154 34.9646 52.8355 40.0265 51.0651 44.3072C51.5667 44.7387 52.0449 45.1976 52.4964 45.6822L54.2382 47.5518V16.4512ZM54.2303 47.5631L51.7564 46.9764C51.1132 46.825 50.4788 46.6375 49.8565 46.4157C48.0624 48.7803 45.2989 50.0804 42.4636 50.0804C40.8857 50.0804 39.2914 49.6746 37.8277 48.8245C37.4275 48.5917 37.051 48.3332 36.699 48.0522C36.765 48.5016 36.7992 48.9612 36.7992 49.4287C36.7992 54.1838 33.268 58.1257 28.7049 58.7229C28.585 59.3756 28.43 60.0219 28.2398 60.6578L27.5049 63.1142L54.2303 47.5631ZM27.4947 63.114L26.7598 60.6578C26.5696 60.0219 26.4146 59.3756 26.2947 58.7228C21.7319 58.1254 18.201 54.1836 18.201 49.4287C18.201 48.9633 18.2349 48.5057 18.3003 48.0582C17.9481 48.3381 17.5735 48.5941 17.1783 48.824C15.7419 49.6631 14.153 50.0854 12.537 50.0854C11.7317 50.0854 10.9155 49.9757 10.1156 49.7618C8.11123 49.2213 6.3802 48.0494 5.14134 46.4155C4.52132 46.6369 3.88917 46.8245 3.24812 46.9764L0.77099 47.5639L27.4947 63.114ZM0.761753 47.5568L2.50812 45.6822C2.95884 45.1996 3.43567 44.7424 3.93541 44.3124C2.16418 40.0316 3.78009 34.9696 7.87382 32.591C8.2697 32.3606 8.67776 32.1614 9.09508 31.9936C8.67811 31.8259 8.26999 31.6267 7.87348 31.3966C5.7242 30.1462 4.18436 28.1226 3.5423 25.7041C3.00602 23.684 3.14541 21.5874 3.93197 19.6892C3.43312 19.2596 2.9574 18.8028 2.50812 18.3206L0.761753 16.446V47.5568ZM27.1191 0.219371L27.5 0L27.8809 0.219371L54.6191 15.7779L55 15.9973V16.4415V47.5585V48.0027L54.6191 48.2221L27.8809 63.7806L27.5 64L27.1191 63.7806L0.380893 48.2221L0 48.0027V47.5585V16.4415V15.9973L0.380893 15.7779L27.1191 0.219371ZM30.9164 23.2775C31.7741 22.935 32.5696 22.4674 33.2805 21.8972C33.1426 22.819 33.1423 23.7469 33.2762 24.6553C32.5662 24.0864 31.7722 23.6197 30.9164 23.2775ZM39.1222 26.1033C38.2944 26.9916 37.3768 27.794 36.3902 28.4985C37.4321 29.7389 38.8217 30.6301 40.412 31.0614C41.022 31.2269 41.6401 31.318 42.256 31.3364C42.4133 31.3323 42.5709 31.3323 42.7287 31.3363C44.0334 31.2965 45.3164 30.9308 46.479 30.2553C49.8821 28.2764 51.2942 24.1385 50.0033 20.5408C48.0269 22.0009 45.7626 23.0631 43.3771 23.6293L40.8796 24.2216L42.6371 22.335C44.3156 20.5338 46.3604 19.0862 48.6045 18.0907C47.5594 16.8317 46.1583 15.9275 44.5528 15.4919C43.8618 15.3055 43.1653 15.2123 42.4688 15.2123C41.0813 15.2123 39.7155 15.5797 38.4858 16.2981C35.0875 18.2742 33.6746 22.4033 34.9561 25.9975C36.0547 25.4885 37.2034 25.0884 38.3822 24.809L40.8797 24.2167L39.1222 26.1033ZM36.7992 31.9943C36.7992 31.5311 36.7656 31.0756 36.7008 30.6302C37.409 31.1958 38.1995 31.6557 39.0527 31.9945C38.2135 32.3286 37.4196 32.7857 36.701 33.358C36.7657 32.9127 36.7992 32.4573 36.7992 31.9943ZM36.3834 35.4997C37.8908 33.7048 40.0806 32.7013 42.3339 32.6558C42.388 32.6568 42.442 32.6573 42.496 32.6573C42.5497 32.6573 42.6033 32.6569 42.6569 32.6559C43.9593 32.6826 45.273 33.0307 46.4792 33.7322C49.8862 35.7132 51.2976 39.8538 49.9992 43.4574C48.0244 41.9997 45.7598 40.9391 43.3769 40.3735L40.8794 39.7812L42.6369 41.6678C44.3087 43.4696 46.3507 44.9165 48.5914 45.9104C46.1442 48.8355 41.8879 49.6674 38.4861 47.6893C35.0932 45.7164 33.6794 41.5973 34.9503 38.007C36.0508 38.5165 37.2017 38.9161 38.382 39.1939L40.8796 39.7862L39.1221 37.8997C38.2924 37.0093 37.3726 36.2053 36.3834 35.4997ZM33.2839 42.0959C33.1477 41.188 33.1423 40.2574 33.2762 39.3351C32.5663 39.9037 31.7723 40.3701 30.9163 40.712C31.7753 41.0554 32.5719 41.5242 33.2839 42.0959ZM21.731 39.3407C22.4391 39.9068 23.2306 40.3712 24.0838 40.712C23.2286 41.0539 22.4351 41.5202 21.7254 42.0886C21.8627 41.1702 21.8634 40.2459 21.731 39.3407ZM26.0665 41.4968C23.7817 41.9155 21.8323 43.3164 20.6662 45.2482C20.6069 45.3567 20.5455 45.4638 20.4821 45.5696C19.8605 46.715 19.5069 48.0283 19.5069 49.4233C19.5069 53.3827 22.3557 56.6843 26.096 57.355C25.8324 54.9048 26.0536 52.4015 26.7598 50.0405L27.4996 47.5678L26.7598 45.0951C26.4092 43.9227 26.1781 42.7154 26.0665 41.4968ZM28.2398 50.0405C28.946 52.4016 29.1673 54.9049 28.9037 57.3551C32.6441 56.6846 35.4932 53.3829 35.4932 49.4233C35.4981 45.4734 32.6637 42.1783 28.9331 41.4964C28.8216 42.7151 28.5905 43.9226 28.2398 45.0951L27.5 47.5678L28.2398 50.0405ZM12.7624 31.3342C12.5966 31.3297 12.431 31.3297 12.2657 31.3341C10.9648 31.2929 9.68576 30.9295 8.52643 30.2559C5.12339 28.2771 3.71132 24.1436 5.00205 20.543C6.97762 22.0019 9.24341 23.0634 11.6276 23.6293L14.1251 24.2216L12.3676 22.335C10.6929 20.5339 8.64678 19.0863 6.40145 18.0907C7.44647 16.832 8.84733 15.928 10.4526 15.4926C11.1436 15.3061 11.8401 15.2129 12.5366 15.2129C13.9241 15.2129 15.2899 15.5803 16.5196 16.2987C17.7235 16.9982 18.7039 17.9787 19.3947 19.1511C19.4262 19.2072 19.4581 19.2629 19.4906 19.3183C19.8154 19.901 20.07 20.5285 20.2468 21.1906C20.672 22.7989 20.5988 24.4631 20.0498 25.9976C18.9506 25.4885 17.8013 25.0884 16.6225 24.809L14.125 24.2167L15.8825 26.1033C16.7105 26.9919 17.6283 27.7944 18.6152 28.499C17.5734 29.7395 16.1837 30.6307 14.5934 31.0621C13.9877 31.2247 13.374 31.3151 12.7624 31.3342ZM12.2735 32.6549C12.3521 32.6569 12.4307 32.6579 12.5094 32.6579C12.5885 32.6579 12.6677 32.6569 12.747 32.6548C14.9738 32.7208 17.1318 33.7234 18.6225 35.4988C17.6329 36.2047 16.7127 37.0089 15.8827 37.8997L14.1251 39.7862L16.6227 39.1939C17.8038 38.914 18.9548 38.5129 20.0553 38.0023C20.6015 39.5334 20.6755 41.1929 20.2472 42.7969C19.6922 44.8754 18.37 46.6139 16.5199 47.6888C13.117 49.6675 8.85892 48.8344 6.41203 45.9069C8.65154 44.9115 10.6921 43.4659 12.3676 41.6678L14.1251 39.7812L11.6276 40.3735C9.24433 40.9392 6.98194 42.0001 5.00675 43.4582C3.70846 39.8576 5.11988 35.7127 8.52677 33.7317C9.70969 33.0421 10.996 32.6934 12.2735 32.6549ZM18.2982 33.3513C17.5927 32.7889 16.8055 32.3313 15.9563 31.9937C16.8057 31.656 17.5929 31.1983 18.2986 30.6356C18.2343 31.0793 18.201 31.533 18.201 31.9943C18.201 32.455 18.2342 32.9082 18.2982 33.3513ZM24.0838 23.2775C23.2313 23.6183 22.4403 24.0827 21.7324 24.6485C21.8645 23.7439 21.8632 22.8201 21.7258 21.9022C22.4352 22.4701 23.2285 22.936 24.0838 23.2775ZM26.0743 22.4878C23.7731 22.0684 21.8113 20.6528 20.6463 18.7017C20.5988 18.6157 20.55 18.5304 20.4999 18.4461C19.8672 17.2931 19.5069 15.9681 19.5069 14.5599C19.5069 10.5977 22.3596 7.29438 26.1036 6.62677C25.8366 9.08336 26.0572 11.5939 26.7653 13.9614L27.5053 16.4347L28.2453 13.9614C28.9532 11.5944 29.1739 9.08449 28.9072 6.62842C32.6495 7.29983 35.4932 10.601 35.4932 14.5599C35.4932 18.508 32.6607 21.8019 28.9364 22.4858C28.824 21.2754 28.5937 20.0767 28.2453 18.9138L27.5053 16.4405L26.7653 18.9138C26.417 20.0784 26.1867 21.2775 26.0743 22.4878ZM21.4551 26.7234C22.6091 25.3795 24.1957 24.4229 25.9945 24.0759C25.9802 25.9194 26.2371 27.7651 26.7653 29.5312L27.5052 32.0041L27.5051 32.0042L27.5052 32.0042L27.5053 32.0045L27.5054 32.0041L27.5092 32.0032L29.2625 33.8853C30.5041 35.2234 31.9498 36.3658 33.5295 37.2722C32.378 38.6054 30.7994 39.5545 29.0108 39.9007C29.0219 38.0679 28.765 36.2335 28.2398 34.4777L27.4998 32.0044L26.7598 34.4777C26.2347 36.2335 25.9777 38.0679 25.9888 39.9006C24.1996 39.5541 22.6206 38.6044 21.4691 37.2705C23.0497 36.3636 24.4968 35.2218 25.7422 33.8853L27.4955 32.0033L27.4995 32.0042L27.497 32.0016L27.4997 31.9987L27.4953 31.9998L25.742 30.1177C24.4952 28.7767 23.0426 27.6318 21.4551 26.7234ZM35.4932 31.9888C35.4932 32.9147 35.3375 33.8046 35.051 34.6332C33.4805 33.7057 31.7742 33.0115 30.0025 32.591L27.5166 32.0015L30.0026 31.4119C31.7776 30.9907 33.487 30.2947 35.0598 29.3645C35.3417 30.1877 35.4944 31.0708 35.4932 31.9888ZM29.2626 30.1177C30.5114 28.7776 31.963 27.6332 33.5486 26.7251C32.3968 25.3832 30.8128 24.4266 29.0161 24.0778C29.0301 25.9206 28.7731 27.7663 28.2453 29.5312L27.5069 31.9992L27.5093 31.9997L29.2626 30.1177ZM25.0022 32.591C23.2291 33.0118 21.5214 33.7068 19.95 34.6355C19.6629 33.8062 19.5069 32.9155 19.5069 31.9888C19.5069 31.07 19.6603 30.1866 19.9427 29.3633C21.5161 30.2941 23.2262 30.9905 25.002 31.4119L27.488 32.0015L25.0022 32.591ZM27.5055 32.0037L27.5076 32.0015L27.5065 32.0004L27.5055 32.0037Z" fill="inherit"/>
</svg>