<svg xmlns="http://www.w3.org/2000/svg" viewBox="0 0 65 64" fill="inherit">
  <path d="M32.5012 40.48C27.0299 40.48 22.5853 35.9922 22.5853 30.4807C22.5853 24.9693 27.0357 20.4814 32.5012 20.4814C37.9724 20.4814 42.4171 24.9693 42.4171 30.4807C42.4171 35.9922 37.9667 40.48 32.5012 40.48ZM32.5012 22.095C27.9189 22.095 24.1911 25.8541 24.1911 30.475C24.1911 35.0958 27.9189 38.8549 32.5012 38.8549C37.0835 38.8549 40.8113 35.0958 40.8113 30.475C40.8113 25.8541 37.0835 22.095 32.5012 22.095Z" fill="inherit"/>
  <path d="M20.7958 20.0064C17.3662 20.0064 14.0227 18.2136 12.1874 15.0096C9.45181 10.2326 11.0806 4.10236 15.8177 1.34373C20.5549 -1.40911 26.6341 0.227561 29.3639 5.00455C32.0996 9.78154 30.4708 15.9118 25.7337 18.6647C24.1795 19.5784 22.4761 20.0064 20.7958 20.0064ZM20.7671 1.62711C19.3563 1.62711 17.9282 1.98567 16.6264 2.74907C12.6577 5.06238 11.2928 10.1979 13.5811 14.2C15.8751 18.202 20.9678 19.5784 24.9365 17.2651C28.9051 14.9518 30.2701 9.81624 27.9818 5.81421C26.4391 3.13076 23.6404 1.62711 20.7671 1.62711Z" fill="inherit"/>
  <path d="M44.2006 20.0065C42.5203 20.0065 40.8169 19.5785 39.257 18.6706C34.5198 15.9119 32.8911 9.78167 35.6267 5.00468C36.9515 2.69137 39.0907 1.03735 41.6485 0.343356C44.2064 -0.344854 46.8789 0.00792379 49.1729 1.34386C53.9101 4.10249 55.5389 10.2328 52.8032 15.0097C50.9737 18.2137 47.6302 20.0065 44.2006 20.0065ZM44.235 1.62724C41.3618 1.62724 38.5631 3.13089 37.0203 5.81433C34.7263 9.81636 36.0912 14.9519 40.0656 17.2652C44.0343 19.5728 49.127 18.1963 51.4211 14.1943C53.7151 10.1923 52.3502 5.05673 48.3758 2.74341C47.0682 1.99159 45.6401 1.62724 44.235 1.62724Z" fill="inherit"/>
  <path d="M32.501 64.0001C29.1059 64.0001 26.3416 61.2126 26.3416 57.7889C26.3416 54.3652 29.1059 51.5776 32.501 51.5776C35.8962 51.5776 38.6605 54.3652 38.6605 57.7889C38.6547 61.2184 35.8962 64.0001 32.501 64.0001ZM32.501 52.9714C29.8629 52.9714 27.718 55.1344 27.718 57.7947C27.718 60.455 29.8629 62.6179 32.501 62.6179C35.1392 62.6179 37.2841 60.455 37.2841 57.7947C37.2841 55.1344 35.1334 52.9714 32.501 52.9714Z" fill="inherit"/>
  <path d="M47.8538 59.1998C47.4753 59.1998 47.0968 59.1651 46.7183 59.0957C45.101 58.7949 43.6959 57.8754 42.7668 56.5048C41.8377 55.1399 41.4879 53.4859 41.7861 51.855C42.0843 50.2241 42.9962 48.8072 44.3554 47.8703C47.1541 45.9329 50.9966 46.6501 52.9179 49.4723C54.8391 52.2945 54.128 56.1693 51.3293 58.1067C50.2912 58.8239 49.0868 59.1998 47.8538 59.1998ZM47.8309 48.1711C46.8961 48.1711 45.9555 48.4429 45.1296 49.0154C44.0801 49.7441 43.369 50.8429 43.1338 52.1095C42.8987 53.376 43.174 54.6599 43.8966 55.7182C44.6192 56.7766 45.7089 57.4937 46.9649 57.7308C48.2208 57.9621 49.494 57.6903 50.5436 56.9616C52.7171 55.458 53.2677 52.4507 51.7766 50.2588C50.8533 48.8998 49.3564 48.1711 47.8309 48.1711Z" fill="inherit"/>
  <path d="M57.7866 46.4776C57.0411 46.4776 56.2955 46.3388 55.5786 46.0612C54.0416 45.4656 52.8315 44.3031 52.1605 42.7879C51.4895 41.2727 51.4494 39.584 52.0401 38.0398C52.6308 36.4899 53.7835 35.2696 55.2861 34.593C56.7887 33.9164 58.4633 33.8759 59.9946 34.4716C63.1661 35.6976 64.7547 39.2948 63.5389 42.493C62.9482 44.0429 61.7954 45.2631 60.2928 45.9398C59.4899 46.2984 58.6411 46.4776 57.7866 46.4776ZM57.7809 35.4431C57.1214 35.4431 56.4618 35.5819 55.8367 35.8653C54.6725 36.3916 53.7778 37.3401 53.319 38.543C52.8602 39.7459 52.8946 41.0529 53.4165 42.2327C53.9384 43.4125 54.8789 44.3089 56.0718 44.7716C57.2647 45.2342 58.5666 45.1995 59.7308 44.6732C60.895 44.147 61.7897 43.1985 62.2485 41.9956C63.1948 39.5146 61.9617 36.7212 59.4957 35.767C58.9394 35.553 58.3601 35.4431 57.7809 35.4431Z" fill="inherit"/>
  <path d="M58.825 30.3123C57.7009 30.3123 56.5998 30 55.6191 29.3927C54.214 28.5252 53.2333 27.1604 52.8491 25.5468C52.4648 23.9333 52.7286 22.2677 53.5889 20.8508C54.4491 19.4339 55.8026 18.445 57.4027 18.0575C59.0028 17.67 60.6545 17.936 62.0596 18.8035C63.4647 19.671 64.4454 21.0359 64.8296 22.6494C65.6211 25.9806 63.5794 29.3349 60.2817 30.1388C59.7942 30.2544 59.3067 30.3123 58.825 30.3123ZM57.7181 19.4166C56.4736 19.7173 55.4241 20.4865 54.7588 21.5853C54.0936 22.6841 53.8871 23.9796 54.1853 25.2288C54.4836 26.4837 55.2463 27.5421 56.336 28.2129C57.4256 28.8838 58.7103 29.092 59.9491 28.7913C62.5127 28.1724 64.0955 25.5642 63.4819 22.9791C63.1837 21.7241 62.4209 20.6657 61.3312 19.9949C60.2473 19.3182 58.9626 19.1158 57.7181 19.4166Z" fill="inherit"/>
  <path d="M17.1426 59.1998C15.9096 59.1998 14.7052 58.8239 13.6672 58.1067C10.8684 56.1693 10.1573 52.2945 12.0785 49.4723C13.9998 46.6501 17.8423 45.9329 20.641 47.8703C21.9945 48.813 22.9063 50.2241 23.2103 51.855C23.5085 53.4859 23.1644 55.1341 22.2296 56.5048C21.3005 57.8696 19.8954 58.7892 18.2782 59.0957C17.8996 59.1651 17.5211 59.1998 17.1426 59.1998ZM13.2198 50.2588C11.7287 52.4507 12.2793 55.458 14.4529 56.9616C15.5024 57.6903 16.7756 57.9621 18.0315 57.7308C19.2875 57.4937 20.3772 56.7824 21.0998 55.7182C21.8224 54.6541 22.092 53.376 21.8626 52.1095C21.6274 50.8429 20.922 49.7441 19.8668 49.0154C17.6932 47.506 14.7109 48.067 13.2198 50.2588Z" fill="inherit"/>
  <path d="M7.20973 46.4756C6.36094 46.4756 5.50642 46.2963 4.70925 45.9378C3.20666 45.2611 2.05391 44.0409 1.46319 42.4909C0.247359 39.2928 1.83597 35.6956 5.00746 34.4695C6.54446 33.8739 8.2191 33.9201 9.71595 34.591C11.2185 35.2676 12.3713 36.4879 12.962 38.0378C13.5527 39.5877 13.5068 41.2707 12.8416 42.7859C12.1706 44.3011 10.9605 45.4635 9.42348 46.0592C8.70086 46.3426 7.95529 46.4756 7.20973 46.4756ZM7.21547 35.4411C6.63623 35.4411 6.05699 35.551 5.50069 35.765C3.04034 36.7192 1.80729 39.5125 2.74784 41.9936C3.20665 43.1965 4.10133 44.145 5.26555 44.6712C6.42977 45.1975 7.73163 45.2264 8.92453 44.7696C10.1174 44.3069 11.058 43.4047 11.5799 42.2307C12.1017 41.0567 12.1304 39.7439 11.6774 38.541C11.2186 37.338 10.3239 36.3896 9.15965 35.8633C8.53453 35.5799 7.875 35.4411 7.21547 35.4411Z" fill="inherit"/>
  <path d="M6.15996 30.3121C5.68395 30.3121 5.20219 30.2543 4.72045 30.1386C1.41704 29.3406 -0.624643 25.9805 0.172533 22.6493C0.556783 21.0358 1.53747 19.6709 2.94257 18.8034C4.34193 17.9359 5.99938 17.6757 7.59947 18.0574C9.19955 18.4448 10.553 19.4338 11.4133 20.8507C12.2736 22.2676 12.5374 23.9332 12.1531 25.5467C11.4706 28.3979 8.94147 30.3121 6.15996 30.3121ZM6.15422 19.2776C5.28248 19.2776 4.42796 19.5205 3.66519 19.989C2.57553 20.6598 1.81276 21.724 1.51454 22.9732C0.900886 25.5583 2.48377 28.1665 5.04735 28.7854C6.29186 29.0861 7.57078 28.8837 8.66044 28.207C9.75011 27.5362 10.5129 26.472 10.8111 25.2229C11.1093 23.9679 10.9086 22.6782 10.2376 21.5794C9.56659 20.4806 8.51706 19.7114 7.27829 19.4107C6.90551 19.3239 6.527 19.2776 6.15422 19.2776Z" fill="inherit"/>
  <path d="M37.9849 37.8222L37.3232 38.2808L44.4046 48.6706L45.0663 48.2121L37.9849 37.8222Z" fill="inherit"/>
  <path d="M41.1623 33.3945L40.8746 34.1504L52.5415 38.6669L52.8292 37.911L41.1623 33.3945Z" fill="inherit"/>
  <path d="M53.4252 24.9821L41.269 27.9285L41.4567 28.7157L53.6128 25.7693L53.4252 24.9821Z" fill="inherit"/>
  <path d="M32.9023 39.6704H32.0994V52.278H32.9023V39.6704Z" fill="inherit"/>
  <path d="M27.0131 37.836L19.9293 48.2246L20.5909 48.6834L27.6747 38.2947L27.0131 37.836Z" fill="inherit"/>
  <path d="M23.8448 33.3976L12.1738 37.9187L12.4617 38.6745L24.1327 34.1534L23.8448 33.3976Z" fill="inherit"/>
  <path d="M11.5713 24.9881L11.3839 25.7754L23.5412 28.718L23.7286 27.9307L11.5713 24.9881Z" fill="inherit"/>
  <path d="M22.2525 11.3199L20.7786 10.0071L21.1686 11.9503C21.7134 14.6453 23.1185 17.109 25.166 18.9307L26.6399 20.2435L26.2499 18.3003C25.7051 15.6053 24.2942 13.1474 22.2525 11.3199Z" fill="inherit"/>
  <path d="M28.1081 21.5565L26.6342 20.2437L27.0242 22.1868C27.569 24.8818 28.9741 27.3455 31.0215 29.1673L32.4954 30.4801L32.1054 28.5369C31.5663 25.8419 30.1555 23.3782 28.1081 21.5565Z" fill="inherit"/>
  <path d="M42.744 11.3199L44.2179 10.0071L43.8279 11.9503C43.2831 14.6453 41.878 17.109 39.8305 18.9307L38.3566 20.2435L38.7466 18.3003C39.2915 15.6053 40.7023 13.1474 42.744 11.3199Z" fill="inherit"/>
  <path d="M36.8884 21.5565L38.3623 20.2437L37.9723 22.1868C37.4275 24.8818 36.0224 27.3455 33.975 29.1673L32.501 30.4801L32.891 28.5369C33.4359 25.8419 34.841 23.3782 36.8884 21.5565Z" fill="inherit"/>
  <path d="M22.6425 9.38274L20.7786 10.0131L22.6425 10.6435C25.229 11.5168 28.045 11.5168 30.6372 10.6435L32.5011 10.0131L30.6372 9.38274C28.045 8.50946 25.229 8.50946 22.6425 9.38274Z" fill="inherit"/>
  <path d="M34.3592 9.38274L32.4953 10.0131L34.3592 10.6435C36.9457 11.5168 39.7617 11.5168 42.3539 10.6435L44.2178 10.0131L42.3539 9.38274C39.7674 8.50946 36.9515 8.50946 34.3592 9.38274Z" fill="inherit"/>
</svg>