<svg width="20" height="26" viewBox="0 0 20 26" fill="none" xmlns="http://www.w3.org/2000/svg">
<g id="Group">
<g id="Layer_2_32_">
<g id="Group_2">
<path id="Vector" d="M16.5383 10.0003C17.0219 9.66292 18.1539 8.87259 18.1539 6.9582V3.0137H18.6935C18.9404 3.0137 19.1426 2.8115 19.1426 2.56473V0.448752C19.1426 0.201979 18.9404 0 18.6935 0H1.306C1.059 0 0.8573 0.201979 0.8573 0.448752V2.56473C0.8573 2.81155 1.059 3.0137 1.306 3.0137H1.84582V7.02971C1.84582 8.92579 2.42323 9.3697 3.44341 9.99152L7.88146 12.6957V13.849C6.76378 14.5212 3.84385 16.2806 3.46105 16.548C2.97784 16.8851 1.84587 17.6752 1.84587 19.5901V22.9863H1.30605C1.05906 22.9863 0.857355 23.1883 0.857355 23.4351V25.551C0.857355 25.7977 1.05906 26 1.30605 26H18.6936C18.9405 26 19.1427 25.7977 19.1427 25.551V23.4351C19.1427 23.1883 18.9405 22.9863 18.6936 22.9863H18.1539V19.5181C18.1539 17.6223 17.5765 17.1783 16.5561 16.5565L12.1185 13.8524V12.6989C13.2358 12.027 16.1559 10.2678 16.5383 10.0003ZM10.8898 14.9964L15.7152 17.9368C16.0861 18.1627 16.2836 18.2871 16.3748 18.4316C16.4845 18.6055 16.5376 18.9607 16.5376 19.518V22.9862H3.46171V19.5901C3.46171 18.518 3.99587 18.1452 4.38592 17.873C4.69068 17.6606 7.37527 16.0379 9.10553 14.9992C9.34857 14.8531 9.4974 14.5902 9.4974 14.3061V12.2416C9.4974 11.96 9.35082 11.6984 9.10977 11.5518L4.28392 8.61125C3.9137 8.38564 3.71628 8.26121 3.62489 8.11611C3.51496 7.94266 3.4616 7.58706 3.4616 7.02971V3.01375H16.5375V6.95826C16.5375 8.02999 16.0033 8.40306 15.6135 8.67495C15.3087 8.88775 12.6244 10.5103 10.8939 11.5491C10.6506 11.6952 10.5017 11.9581 10.5017 12.2417V14.3061C10.5019 14.5882 10.6491 14.8496 10.8898 14.9964Z" fill="#5EB1BF"/>
<path id="Vector_2" d="M4.2301 19.7642C4.12018 19.8463 4.05978 19.9017 4.05978 20.0978C4.05978 20.2942 4.05978 22.1873 4.05978 22.1873C4.05978 22.1873 4.03813 22.391 4.26759 22.391C4.37894 22.391 7.14905 22.394 9.97863 22.3971C12.8081 22.394 15.5784 22.391 15.6894 22.391C15.9186 22.391 15.897 22.1873 15.897 22.1873C15.897 22.1873 15.897 20.2943 15.897 20.0978C15.897 19.9017 15.8364 19.8463 15.7269 19.7642C14.9503 19.1837 11.4981 16.4597 9.97857 16.4597C8.45865 16.4596 5.0062 19.1837 4.2301 19.7642Z" fill="#5EB1BF"/>
</g>
</g>
</g>
</svg>
