<svg width="3" height="259" viewBox="0 0 3 259" fill="none" xmlns="http://www.w3.org/2000/svg">
<path fill-rule="evenodd" clip-rule="evenodd" d="M2 2.91465C2.5826 2.70873 3 2.15311 3 1.5C3 0.671573 2.32843 0 1.5 0C0.671573 0 0 0.671573 0 1.5C0 2.15311 0.417404 2.70873 1 2.91465V32.0854C0.417404 32.2913 0 32.8469 0 33.5C0 34.1531 0.417404 34.7087 1 34.9146V64.0854C0.417404 64.2913 0 64.8469 0 65.5C0 66.1531 0.417404 66.7087 1 66.9146V96.0854C0.417404 96.2913 0 96.8469 0 97.5C0 98.1531 0.417404 98.7087 1 98.9146V128.085C0.417404 128.291 0 128.847 0 129.5C0 130.153 0.417404 130.709 1 130.915V160.085C0.417404 160.291 0 160.847 0 161.5C0 162.153 0.417404 162.709 1 162.915V192.085C0.417404 192.291 0 192.847 0 193.5C0 194.153 0.417404 194.709 1 194.915V224.085C0.417404 224.291 0 224.847 0 225.5C0 226.153 0.417404 226.709 1 226.915V256.085C0.417404 256.291 0 256.847 0 257.5C0 258.328 0.671573 259 1.5 259C2.32843 259 3 258.328 3 257.5C3 256.847 2.5826 256.291 2 256.085V226.915C2.5826 226.709 3 226.153 3 225.5C3 224.847 2.5826 224.291 2 224.085V194.915C2.5826 194.709 3 194.153 3 193.5C3 192.847 2.5826 192.291 2 192.085V162.915C2.5826 162.709 3 162.153 3 161.5C3 160.847 2.5826 160.291 2 160.085V130.915C2.5826 130.709 3 130.153 3 129.5C3 128.847 2.5826 128.291 2 128.085V98.9146C2.5826 98.7087 3 98.1531 3 97.5C3 96.8469 2.5826 96.2913 2 96.0854V66.9146C2.5826 66.7087 3 66.1531 3 65.5C3 64.8469 2.5826 64.2913 2 64.0854V34.9146C2.5826 34.7087 3 34.1531 3 33.5C3 32.8469 2.5826 32.2913 2 32.0854V2.91465Z" fill="url(#paint0_linear_1653_246)"/>
<defs>
<linearGradient id="paint0_linear_1653_246" x1="1.5" y1="0" x2="1.5" y2="331" gradientUnits="userSpaceOnUse">
<stop stop-color="#0193A9"/>
<stop offset="1" stop-color="#00E9E9"/>
</linearGradient>
</defs>
</svg>
