<svg width="64" height="64" viewBox="0 0 64 64" fill="none" xmlns="http://www.w3.org/2000/svg">
<path fill-rule="evenodd" clip-rule="evenodd" d="M32 60.274C42.0639 60.274 50.8997 55.016 55.9102 47.0972C46.2013 53.1487 33.5562 53.7821 22.9567 47.6625L22.9571 47.662C17.5533 44.5352 13.9179 38.6921 13.9179 31.9999C13.9179 31.6394 13.9284 31.2814 13.9492 30.9261C10.6459 37.2648 9.79805 44.7516 11.8278 51.8116C16.9579 57.0345 24.1006 60.274 32 60.274ZM7.03178 45.2786C6.5918 33.8667 12.2928 22.5984 22.8082 16.425C25.5016 14.832 28.6441 13.9177 32 13.9177C35.7061 13.9177 39.1517 15.0327 42.0199 16.9454C38.2063 10.8946 32.1619 6.39082 25.0412 4.58878C12.7908 7.68918 3.72603 18.786 3.72603 32C3.72603 36.7994 4.92184 41.3195 7.03178 45.2786ZM40.0274 48.2071C47.1749 47.9295 54.0978 44.946 59.2187 39.6792C59.9062 37.2374 60.274 34.6617 60.274 32C60.274 16.761 48.2179 4.33775 33.1234 3.74794C43.2148 9.13152 50.0828 19.7638 50.0828 32.0001H50.0822C50.0822 39.1034 45.9862 45.25 40.0274 48.2071ZM32 64C49.6731 64 64 49.6731 64 32C64 14.3269 49.6731 0 32 0C14.3269 0 0 14.3269 0 32C0 49.6731 14.3269 64 32 64ZM32 46.3561C39.9287 46.3561 46.3562 39.9286 46.3562 31.9999C46.3562 24.0712 39.9287 17.6438 32 17.6438C24.0714 17.6438 17.6439 24.0712 17.6439 31.9999C17.6439 39.9286 24.0714 46.3561 32 46.3561Z" fill="#5EB1BF"/>
<path fill-rule="evenodd" clip-rule="evenodd" d="M41.6398 26.33C42.1373 26.8422 42.117 27.6504 41.5942 28.1382L30.3345 38.6443C29.8247 39.12 29.0208 39.1183 28.5131 38.6406L22.4018 32.8897C21.8903 32.4083 21.8637 31.6176 22.3419 31.1046L23.2118 30.1712C23.7156 29.6307 24.5798 29.6093 25.111 30.1242L29.3666 34.2485L38.8727 25.3568C39.399 24.8645 40.2354 24.8841 40.7368 25.4004L41.6398 26.33Z" fill="#488691"/>
</svg>
