<svg xmlns="http://www.w3.org/2000/svg" width="55" height="64" viewBox="0 0 55 64" fill="none">
  <path d="M27.5 0.882948L54.2382 16.4415V47.5585L27.5 63.117L0.761778 47.5585V16.4415L27.5 0.882948ZM27.5 0L27.1191 0.219371L0.380893 15.7779L0 15.9973V16.4415V47.5585V48.0027L0.380893 48.2221L27.1191 63.7806L27.5 64L27.8809 63.7806L54.6191 48.2221L55 48.0027V47.5585V16.4415V15.9973L54.6191 15.7779L27.8809 0.219371L27.5 0Z" fill="#488691"/>
  <path d="M27.4979 41.3671C22.3668 41.3671 18.1989 37.1607 18.1989 31.9947C18.1989 26.8286 22.3723 22.6223 27.4979 22.6223C32.629 22.6223 36.797 26.8286 36.797 31.9947C36.797 37.1607 32.6236 41.3671 27.4979 41.3671ZM27.4979 23.933C23.0905 23.933 19.5047 27.547 19.5047 31.9892C19.5047 36.4313 23.0905 40.0454 27.4979 40.0454C31.9053 40.0454 35.4911 36.4313 35.4911 31.9892C35.4911 27.547 31.9053 23.933 27.4979 23.933Z" fill="#488691"/>
  <path d="M5.98406 44.5569C5.97862 44.5459 5.83715 44.3321 5.66303 43.9866C5.58685 43.844 5.50523 43.7014 5.45082 43.5972C3.60624 40.0434 2.63226 36.0291 2.63226 31.9927C2.63226 18.1727 13.7868 6.93018 27.4987 6.93018C32.151 6.93018 35.9326 10.7471 35.9326 15.4306C35.9326 19.6863 33.0433 23.0152 28.7447 23.7171C28.6577 23.7336 28.4564 23.7555 28.1789 23.7884C27.3355 23.8872 25.5834 24.0846 24.7019 24.3423C17.514 26.2069 6.32142 33.7257 6.13097 39.9173C6.082 41.3158 6.38671 42.3797 6.64789 43.0213C6.7023 43.1475 6.75672 43.2626 6.80569 43.3614C6.94716 43.6191 7.08863 43.8659 7.08863 43.8659L5.98406 44.5569ZM27.4987 8.24638C14.505 8.24638 3.93816 18.8966 3.93816 31.9927C3.93816 34.318 4.28095 36.6323 4.93934 38.8479C6.15818 32.0366 17.1005 24.9566 24.3645 23.0755C25.3385 22.7903 27.096 22.5874 28.0428 22.4832C28.2877 22.4558 28.4672 22.4339 28.5489 22.4229C32.2489 21.8196 34.6376 19.0776 34.6376 15.4361C34.6267 11.4656 31.4273 8.24638 27.4987 8.24638Z" fill="#488691"/>
  <path d="M27.5362 57.0673C25.376 57.0673 23.1996 56.7821 21.0612 56.2008C14.6459 54.4678 9.28089 50.3218 5.96174 44.5251C4.8354 42.5562 4.53613 40.2694 5.11834 38.0757C5.70055 35.882 7.09895 34.0503 9.04691 32.9096C12.7034 30.7818 17.0074 31.6373 19.7607 35.0375C19.8151 35.1088 19.9403 35.2733 20.1035 35.4982C20.6095 36.1837 21.6542 37.615 22.3181 38.2567C27.509 43.5982 39.5722 49.6089 44.9863 46.6803C46.216 46.0277 46.9723 45.227 47.3967 44.6731C47.4783 44.5634 47.5491 44.4593 47.6089 44.366C47.7613 44.1138 47.9028 43.8615 47.9028 43.8615L49.0509 44.4867C49.0454 44.4976 48.9311 44.728 48.7189 45.057C48.6373 45.1941 48.5557 45.3312 48.4904 45.4354C46.3574 48.8246 43.3974 51.6819 39.9313 53.7C36.1007 55.9266 31.8457 57.0673 27.5362 57.0673ZM13.2421 33.0522C12.0559 33.0522 10.8534 33.3813 9.69986 34.0449C6.29365 36.0246 5.12378 40.4284 7.08807 43.8615C13.5849 55.2027 28.0259 59.1019 39.273 52.5539C41.2699 51.3912 43.0873 49.9379 44.6598 48.2543C38.1956 50.596 26.6439 44.5854 21.3931 39.189C20.6639 38.4815 19.6083 37.0502 19.0425 36.2769C18.8955 36.074 18.7867 35.9314 18.7377 35.8656C17.2523 34.0229 15.2771 33.0522 13.2421 33.0522Z" fill="#488691"/>
  <path d="M41.7164 48.7796C40.2527 48.7796 38.8108 48.3957 37.5103 47.6389C33.8538 45.5111 32.4391 41.3267 33.9844 37.2245C34.0171 37.1423 34.0987 36.9503 34.2075 36.6926C34.5449 35.9083 35.2468 34.285 35.4699 33.3801C37.4614 26.1795 36.5962 12.6446 31.3726 9.38152C30.1919 8.63568 29.1308 8.37244 28.4453 8.27921C28.3092 8.26276 28.1841 8.25728 28.0753 8.24631C27.7869 8.24082 27.4985 8.24082 27.4985 8.24082L27.4604 6.92463C27.4767 6.92463 27.727 6.90817 28.1133 6.93011C28.2711 6.93011 28.4344 6.93559 28.5541 6.94108C32.5316 7.1056 36.4656 8.26275 39.9317 10.2809C51.8045 17.1909 55.8908 32.552 49.0349 44.5184C47.9085 46.4873 46.0912 47.8912 43.9147 48.478C43.1856 48.6809 42.4455 48.7796 41.7164 48.7796ZM32.8907 8.8715C38.1361 13.3411 38.7455 26.4317 36.7323 33.7092C36.4928 34.7018 35.7855 36.3361 35.4046 37.2136C35.3067 37.4439 35.2305 37.6084 35.2033 37.6852C33.8756 41.217 35.0346 44.672 38.1633 46.4927C39.812 47.4525 41.7327 47.7047 43.5719 47.2112C45.411 46.7121 46.9509 45.5275 47.9031 43.8604C54.3999 32.5191 50.5312 17.9697 39.2787 11.4216C37.2818 10.2645 35.1217 9.40346 32.8907 8.8715Z" fill="#488691"/>
  <path d="M26.464 19.5071L26.3116 19.4632C26.2082 19.4358 23.8195 18.7229 22.617 17.0338C22.1273 16.3428 21.8063 15.6792 21.8063 14.6866C21.8063 13.6501 22.4157 12.789 23.4332 12.3832C24.8425 11.8787 25.8763 12.5752 26.464 13.2716C27.0571 12.5752 28.0855 11.8732 29.4784 12.3777C30.5122 12.789 31.1217 13.6501 31.1217 14.6866C31.1217 15.6792 30.8006 16.3428 30.3109 17.0283C29.0921 18.7284 26.7143 19.4303 26.6109 19.4632L26.464 19.5071ZM24.3745 13.31C24.2004 13.31 24.0154 13.3429 23.8195 13.4142C23.2428 13.6446 22.9 14.1162 22.9 14.692C22.9 15.3227 23.0523 15.756 23.5094 16.3976C24.3419 17.5603 25.9688 18.1909 26.4694 18.3609C26.97 18.1909 28.5969 17.5602 29.4349 16.3921C29.8865 15.7505 30.0389 15.3172 30.0389 14.6866C30.0389 14.1052 29.6961 13.6391 29.103 13.4033C27.6991 12.8987 26.9754 14.4727 26.97 14.4891L26.4749 15.6024L25.9797 14.4891C25.9634 14.4782 25.4301 13.31 24.3745 13.31Z" fill="#488691"/>
  <path d="M28.0095 25.2097L27.5035 23.9265L26.9974 25.2097C26.2955 26.9921 26.2955 28.928 26.9974 30.7103L27.5035 31.9936L28.0095 30.7103C28.7114 28.928 28.7114 26.9921 28.0095 25.2097Z" fill="#488691"/>
  <path d="M33.5814 29.0433L34.4302 27.963L33.0754 28.1604C31.1927 28.4346 29.5277 29.4053 28.3524 30.9079L27.5035 31.9883L28.8584 31.7909C30.7356 31.5167 32.4007 30.546 33.5814 29.0433Z" fill="#488691"/>
  <path d="M33.0754 35.827L34.4302 36.0244L33.5814 34.9441C32.4007 33.4414 30.7356 32.4707 28.8584 32.1965L27.5035 31.9991L28.3524 33.0795C29.5277 34.5766 31.1927 35.5473 33.0754 35.827Z" fill="#488691"/>
  <path d="M26.992 38.772L27.4981 40.0553L28.0041 38.772C28.706 36.9897 28.706 35.0538 28.0041 33.2714L27.4981 31.9882L26.992 33.2714C26.2901 35.0538 26.2901 36.9897 26.992 38.772Z" fill="#488691"/>
  <path d="M21.4202 34.9398L20.5714 36.0202L21.9263 35.8227C23.8089 35.5485 25.474 34.5778 26.6493 33.0752L27.4981 31.9948L26.1432 32.1922C24.266 32.4719 22.601 33.4371 21.4202 34.9398Z" fill="#488691"/>
  <path d="M21.9263 28.1604L20.5714 27.963L21.4202 29.0433C22.601 30.546 24.266 31.5167 26.1432 31.7909L27.4981 31.9883L26.6493 30.9079C25.474 29.4053 23.8089 28.4401 21.9263 28.1604Z" fill="#488691"/>
  <path d="M14.4283 36.4853H13.3401V45.7096H14.4283V36.4853Z" fill="#488691"/>
  <path d="M13.7972 45.227C13.7319 45.227 13.6666 45.227 13.6013 45.227C11.3976 45.1831 10.8263 43.6365 10.8317 42.8249L11.92 42.8359C11.9254 43.0443 12.0179 44.1027 13.6285 44.1356C14.6623 44.1685 15.4404 43.8998 15.7234 43.4227C15.8866 43.1485 15.8703 42.8194 15.6798 42.4958C15.4023 42.0187 14.2216 41.6677 13.6938 41.5745C13.6611 41.569 13.2476 41.4648 13.0626 41.4045C12.7633 41.3113 11.8166 41.0151 11.2561 40.1596C10.8861 39.6112 10.8535 38.8873 11.1799 38.2785C11.6316 37.434 12.6654 36.9788 13.9767 36.9898C16.1859 37.0336 16.7572 38.4924 16.7518 39.2547L16.2076 39.2492H15.6635C15.6581 39.0628 15.5601 38.114 13.9604 38.0866C13.0517 38.0646 12.3988 38.3279 12.143 38.7995C12.0125 39.0463 12.0179 39.3315 12.1648 39.5454C12.4804 40.028 13.0191 40.2364 13.4 40.357C13.5686 40.4119 13.9278 40.4996 13.9278 40.4996C14.1073 40.5325 16.0172 40.9054 16.6266 41.942C17.0129 42.611 17.0293 43.3733 16.6647 43.9875C16.3763 44.4482 15.6363 45.227 13.7972 45.227Z" fill="#488691"/>
  <path d="M42.2598 36.3487C41.2749 36.3487 40.4316 36.9574 40.0833 37.8239C40.252 37.7417 40.4316 37.6923 40.6329 37.6923C41.3239 37.6923 41.8844 38.2572 41.8844 38.9537C41.8844 39.6501 41.3239 40.215 40.6329 40.215C40.5621 40.215 40.4914 40.2041 40.4207 40.1931C40.8505 40.7415 41.5144 41.1034 42.2653 41.1034C43.5657 41.1034 44.6213 40.0395 44.6213 38.7288C44.6213 37.4181 43.5603 36.3487 42.2598 36.3487Z" fill="#488691"/>
  <path d="M42.238 42.5842C41.0627 42.5842 39.8819 42.0797 38.761 41.0651L36.911 39.3979L38.761 37.7308C41.0028 35.7071 43.4731 35.7071 45.7149 37.7308L47.5649 39.3979L45.7149 41.0651C44.594 42.0797 43.4133 42.5842 42.238 42.5842ZM38.2169 39.4034L39.3378 40.418C41.2313 42.129 43.2337 42.129 45.1273 40.418L46.2482 39.4034L45.1273 38.3888C43.2337 36.6778 41.2313 36.6778 39.3378 38.3888L38.2169 39.4034Z" fill="#488691"/>
</svg>