<svg xmlns="http://www.w3.org/2000/svg" viewBox="0 0 64 64" fill="inherit">
  <path fill-rule="evenodd" clip-rule="evenodd" d="M32.7756 22.4526C37.7352 22.8499 41.6436 26.9971 41.6436 32.0336C41.6436 33.4939 41.315 34.8794 40.7275 36.1205L45.5229 38.8573C46.5711 36.8048 47.1624 34.4833 47.1624 32.0265C47.1624 23.9541 40.7791 17.3423 32.7756 16.9359V22.4526ZM39.9488 37.4697C38.2082 39.9897 35.2931 41.6457 31.9945 41.6457C28.6968 41.6457 25.7824 39.9906 24.0416 37.4717L19.2449 40.2071C21.9481 44.374 26.6525 47.1369 31.994 47.1369C37.3358 47.1369 42.0405 44.3736 44.7436 40.2062L39.9488 37.4697ZM23.2625 36.1227C22.6743 34.8811 22.3454 33.4947 22.3454 32.0336C22.3454 26.9975 26.2582 22.8506 31.213 22.4526V16.9358C23.2091 17.3419 16.8255 23.9539 16.8255 32.0265C16.8255 34.4837 17.417 36.8055 18.4655 38.8582L23.2625 36.1227ZM15.99 36.0714C16.2976 37.2804 16.7401 38.4364 17.3004 39.5227L4.37532 46.8933C4.00141 47.1045 3.87306 47.5826 4.08513 47.9551C4.23023 48.2108 4.49252 48.3498 4.76598 48.3498C4.89992 48.3498 5.03384 48.322 5.15104 48.2442L18.0794 40.8717C18.7662 41.9408 19.5737 42.9259 20.4826 43.8078L10.1514 54.8878C10.0063 55.0435 10.0175 55.2937 10.1738 55.4382C10.2519 55.5105 10.3468 55.5438 10.4417 55.5438C10.5477 55.5438 10.6481 55.4993 10.7262 55.416L21.0554 44.3381C22.0883 45.2502 23.2363 46.0356 24.4748 46.6695L17.8864 60.286C17.7971 60.475 17.8753 60.7085 18.0706 60.803C18.1208 60.8308 18.1822 60.8419 18.238 60.8419C18.3831 60.8419 18.5226 60.7641 18.5896 60.6195L25.1758 47.0077C26.4214 47.5727 27.7494 47.988 29.1364 48.2301L26.8657 63.1702C26.8322 63.3814 26.9828 63.5816 27.1949 63.6149C27.2172 63.6205 27.234 63.6205 27.2563 63.6205C27.446 63.6205 27.6135 63.4815 27.6414 63.2869L29.9122 48.3466C30.5942 48.4324 31.289 48.4767 31.994 48.4767C32.695 48.4767 33.3858 48.433 34.064 48.3482L36.3142 63.294C36.3421 63.4886 36.5096 63.6276 36.6993 63.6276C36.7161 63.6276 36.7384 63.6276 36.7607 63.622C36.9728 63.5887 37.1235 63.3885 37.09 63.1773L34.8399 48.2324C36.2264 47.9916 37.5539 47.5779 38.7992 47.0147L45.3715 60.6417C45.4384 60.7806 45.5779 60.864 45.723 60.864C45.7789 60.864 45.8402 60.8473 45.8905 60.8251C46.0858 60.7362 46.1695 60.5027 46.0746 60.3081L39.5005 46.6773C40.7408 46.044 41.8906 45.259 42.9249 44.3469L53.2459 55.4439C53.3185 55.5218 53.4245 55.5662 53.5305 55.5662C53.6254 55.5662 53.7203 55.5329 53.7984 55.4662C53.9603 55.3216 53.9658 55.0714 53.8207 54.9158L43.4981 43.8169C44.4106 42.9327 45.221 41.9445 45.9099 40.8718L58.8377 48.2498C58.9605 48.322 59.0944 48.3554 59.2283 48.3554C59.4962 48.3554 59.7585 48.2164 59.9036 47.9607C60.1157 47.5882 59.9873 47.1101 59.6134 46.8988L46.6886 39.5226C47.2469 38.4398 47.688 37.2877 47.9953 36.0829L62.7895 39.4556L62.8039 39.458L62.804 39.458C62.8312 39.4626 62.855 39.4667 62.8788 39.4667C63.0574 39.4667 63.2192 39.3444 63.2583 39.1609C63.3029 38.9497 63.1746 38.744 62.9625 38.6939L48.1702 35.3216C48.3876 34.2584 48.5018 33.1583 48.5018 32.032C48.5018 31.7551 48.4948 31.4797 48.4812 31.206L63.6149 30.0873C63.8326 30.0706 63.9944 29.8872 63.9777 29.6704C63.9609 29.4535 63.7712 29.2979 63.5591 29.309L48.4238 30.4278C48.2871 29.0277 47.9734 27.6785 47.5054 26.4026L61.6394 20.8869C61.8403 20.809 61.9407 20.5811 61.8626 20.381C61.7845 20.1808 61.5501 20.0808 61.3547 20.1586L47.2185 25.6752C46.6773 24.3938 45.9776 23.1945 45.1441 22.1018L57.0241 12.681C57.1915 12.5476 57.2194 12.303 57.0855 12.1362C56.9516 11.9694 56.706 11.9416 56.5386 12.0751L44.6588 21.4956C43.7701 20.4374 42.7506 19.4917 41.6252 18.6836L50.1877 6.19293C50.3105 6.01503 50.2659 5.77597 50.0873 5.65367C49.9087 5.53136 49.6687 5.57584 49.5459 5.75374L40.983 18.245C39.8304 17.4966 38.5786 16.8877 37.2519 16.4425L41.7385 2.00056C41.8055 1.79486 41.6883 1.57248 41.4818 1.51133C41.2753 1.44462 41.0521 1.56137 40.9907 1.76706L36.5034 16.211C35.3099 15.8729 34.0617 15.6656 32.7756 15.6056V0.778319C32.7756 0.350246 32.424 0 31.9943 0C31.5646 0 31.213 0.350246 31.213 0.778319V15.6055C29.935 15.6651 28.6945 15.8702 27.5078 16.2044L23.0319 1.76254C22.9649 1.55684 22.7472 1.4401 22.5408 1.50681C22.3343 1.57353 22.2226 1.79034 22.284 1.99603L26.759 16.4348C25.4322 16.8779 24.1801 17.4846 23.0268 18.2307L14.4708 5.73092C14.3536 5.55858 14.108 5.50855 13.9295 5.63085C13.7509 5.75316 13.7062 5.99221 13.829 6.17011L22.384 18.6684C21.2551 19.4763 20.2324 20.4224 19.3408 21.4817L7.4734 12.0518C7.30598 11.9184 7.06043 11.9462 6.9265 12.1129C6.79256 12.2797 6.82045 12.5243 6.98788 12.6577L18.8549 22.0873C18.0207 23.1784 17.3201 24.376 16.7776 25.6558L2.65096 20.1301C2.45005 20.0523 2.22124 20.1524 2.14311 20.3525C2.06498 20.5527 2.16543 20.7806 2.36634 20.8584L16.4898 26.3828C16.0196 27.6595 15.704 29.0098 15.5657 30.4111L0.429626 29.2767C0.223138 29.2656 0.0278127 29.4212 0.0110705 29.638C-9.09769e-05 29.8493 0.156166 30.0383 0.373815 30.055L15.5076 31.1893C15.4933 31.4684 15.4862 31.7494 15.4862 32.032C15.4862 33.1542 15.5996 34.2505 15.8156 35.3101L1.02692 38.6656C0.814851 38.7156 0.680914 38.9213 0.73114 39.1326C0.770205 39.3105 0.932043 39.4328 1.11063 39.4328C1.12394 39.4328 1.13726 39.4315 1.15118 39.4302C1.16644 39.4287 1.18242 39.4272 1.19992 39.4272L15.99 36.0714ZM27.231 0.42816L27.2339 0.42282C27.2563 0.439498 27.9427 1.04547 28.9081 3.20807L28.8909 3.20335C28.6117 3.12683 28.3253 3.04835 28.205 3.39153C28.067 3.75358 28.1766 4.9586 28.2878 6.18133V6.18135C28.361 6.98634 28.435 7.799 28.4394 8.38385C28.2712 7.8238 28.1021 7.02587 27.9345 6.2353C27.6796 5.03258 27.4284 3.84688 27.1893 3.54163C26.9724 3.24995 26.7239 3.40435 26.4796 3.55612L26.4582 3.56943C26.7326 1.30743 27.1886 0.502848 27.231 0.42816ZM36.799 0.427082L36.7958 0.430021C36.7421 0.480019 36.0624 1.11197 35.1248 3.20677L35.1457 3.20116C35.4291 3.12493 35.7136 3.0484 35.8279 3.39024C35.9656 3.75137 35.8549 4.95118 35.7423 6.1707C35.6678 6.97874 35.5924 7.79544 35.588 8.38256C35.7602 7.8167 35.9324 7.00801 36.1024 6.20942L36.1025 6.20923L36.1025 6.20918C36.3567 5.01501 36.6062 3.84349 36.8436 3.54033C37.056 3.2474 37.3056 3.4044 37.556 3.56196L37.5747 3.5737C37.2901 1.22764 36.8157 0.44376 36.799 0.427082ZM45.9329 3.23582L45.9353 3.23465C45.9465 3.26245 46.1697 4.15194 45.7511 6.47021L45.7401 6.4573C45.5484 6.23342 45.3549 6.00741 45.0647 6.22559C44.7455 6.44654 44.155 7.50208 43.5554 8.57401L43.5554 8.57404C43.1593 9.28221 42.7592 9.99752 42.4306 10.4841C42.608 9.91793 42.9257 9.14913 43.2389 8.39083L43.239 8.39073L43.239 8.39069L43.2391 8.39051C43.704 7.26504 44.1594 6.1628 44.1327 5.78085C44.1218 5.41992 43.8192 5.40865 43.5278 5.39779L43.5133 5.39725C45.0435 3.66055 45.878 3.26203 45.9329 3.23582ZM53.8374 8.6059L53.8295 8.60729C53.7339 8.62319 52.8127 8.77627 50.8852 9.96239L50.9087 9.97078C51.1805 10.0679 51.4574 10.1669 51.3652 10.5128C51.2745 10.8873 50.5054 11.8171 49.7234 12.7624C49.2054 13.3885 48.6818 14.0215 48.346 14.5044C48.8015 14.1365 49.3921 13.5731 49.9772 13.0147C50.8688 12.164 51.7479 11.3252 52.1186 11.2077C52.4572 11.0899 52.5732 11.3486 52.691 11.6112L52.7045 11.6413C53.7872 9.55099 53.8374 8.63369 53.8374 8.6059ZM56.572 16.4888C58.8657 15.8995 59.7753 16.0552 59.7977 16.0607C59.7921 16.083 59.4739 16.9447 57.8109 18.6347L57.8093 18.6201C57.7764 18.3247 57.7435 18.029 57.3812 18.0454C56.9924 18.0488 55.9132 18.5875 54.8157 19.1353C54.0858 19.4997 53.3478 19.8681 52.7994 20.0857C53.2624 19.7238 53.9469 19.2752 54.6248 18.831C55.6547 18.156 56.6692 17.4912 56.8678 17.1559C57.0576 16.848 56.8258 16.6766 56.5924 16.5039L56.572 16.4888ZM63.2851 24.9291L63.2846 24.9289C63.2524 24.9128 62.4275 24.5003 60.0762 24.3899L60.0954 24.4164C60.263 24.647 60.434 24.8824 60.1599 25.1126C59.8759 25.3722 58.724 25.7055 57.5482 26.0457C56.7598 26.2738 55.9606 26.505 55.4051 26.7192C55.9958 26.6724 56.8144 26.5363 57.6231 26.4017C58.8314 26.2007 60.0176 26.0034 60.3887 26.1133C60.7319 26.2041 60.6835 26.4849 60.6346 26.7681L60.6287 26.8026C62.7159 25.6796 63.274 24.9514 63.2851 24.9291ZM61.0924 32.9725C63.3247 33.7731 63.9832 34.4124 64 34.4291C63.9777 34.4457 63.2298 34.9795 60.9027 35.4353L60.9133 35.4149C61.0496 35.1549 61.1849 34.8967 60.8803 34.707C60.557 34.4923 59.3517 34.3303 58.1289 34.1658C57.3255 34.0578 56.5145 33.9487 55.9413 33.8231C56.5305 33.7832 57.3535 33.7963 58.1676 33.8092H58.1678C59.3971 33.8288 60.6059 33.848 60.9584 33.6841C61.2883 33.5441 61.1938 33.2683 61.1013 32.9985L61.0924 32.9725ZM61.8682 43.7188C61.857 43.6965 61.4161 42.896 59.5187 41.4728L59.5196 41.4962C59.5307 41.7837 59.5422 42.0798 59.1782 42.1176C58.7947 42.1713 57.6406 41.7966 56.4689 41.4163C55.6969 41.1656 54.9172 40.9125 54.3453 40.7778C54.8558 41.0663 55.5974 41.4079 56.3323 41.7464L56.3324 41.7464L56.3325 41.7464C57.4532 42.2627 58.5583 42.7717 58.8043 43.0739C59.0401 43.3408 58.8385 43.5462 58.6392 43.7492L58.6146 43.7744C60.8988 44.0057 61.7879 43.7425 61.8633 43.7202L61.8682 43.7188ZM57.0852 51.9618L57.0858 51.9646C57.0635 51.9702 56.1427 51.9924 53.9606 51.0584L53.986 51.045C54.2405 50.9106 54.4971 50.7751 54.3513 50.4469C54.2064 50.0877 53.3003 49.2763 52.3815 48.4536C51.7788 47.914 51.1708 47.3695 50.7684 46.9445C51.2793 47.2423 51.9552 47.7178 52.6231 48.1876L52.6232 48.1877C53.6261 48.8933 54.6112 49.5863 54.993 49.6464C55.3454 49.7165 55.424 49.4301 55.4998 49.1538L55.5065 49.1293C56.8651 50.9991 57.0714 51.9017 57.0852 51.9618ZM50.0761 58.4458L50.0764 58.4393C50.082 58.3519 50.1417 57.4264 49.4064 55.2769L49.3894 55.3032C49.2334 55.5452 49.0769 55.7879 48.7646 55.6216C48.4161 55.4513 47.6793 54.4995 46.9299 53.5313C46.4312 52.887 45.9269 52.2354 45.5277 51.8023C45.7869 52.3275 46.2079 53.0279 46.6249 53.7217C47.2584 54.7757 47.8826 55.8142 47.9163 56.1998C47.9599 56.5585 47.6675 56.6143 47.3832 56.6686L47.3638 56.6723C49.1664 58.19 50.0481 58.4402 50.0761 58.4458ZM41.7551 59.3466C41.8221 61.7093 41.4705 62.5543 41.4593 62.5766C41.437 62.5654 40.6669 62.0651 39.3889 60.0748L39.4238 60.0782C39.7084 60.1055 39.9942 60.133 40.0586 59.7858C40.1388 59.4097 39.853 58.2487 39.5616 57.0648C39.3662 56.2711 39.1683 55.467 39.0764 54.8824C39.331 55.4164 39.6214 56.19 39.9082 56.954L39.9082 56.954C40.338 58.0989 40.7596 59.2221 41.0408 59.4855C41.2918 59.7411 41.5162 59.55 41.7399 59.3595L41.7551 59.3466ZM33.2388 61.0035C32.6082 63.2773 32.0166 63.9833 31.9999 64L31.9972 63.9966C31.9502 63.9376 31.3741 63.214 30.761 61.0035L30.7882 61.0152C31.0528 61.1286 31.3192 61.2428 31.4865 60.9257C31.6775 60.5886 31.7477 59.3898 31.8193 58.1691V58.169C31.8669 57.3565 31.9151 56.5343 31.9999 55.95C32.0846 56.5343 32.1328 57.3565 32.1805 58.169V58.169V58.1691C32.2521 59.3898 32.3224 60.5886 32.5133 60.9257C32.6806 61.2428 32.947 61.1286 33.2116 61.0152L33.2388 61.0035ZM18.0985 3.22549L18.0985 3.22586C18.0909 3.25599 17.8661 4.14798 18.2883 6.46105L18.305 6.44207C18.4948 6.22546 18.6874 6.00579 18.9747 6.21644C19.2933 6.4369 19.8798 7.48826 20.4764 8.55774C20.8728 9.26823 21.2736 9.98673 21.6033 10.4749C21.4253 9.91433 21.1126 9.15503 20.8033 8.40399C20.3366 7.27069 19.8776 6.15621 19.9011 5.77169C19.9121 5.41076 20.2147 5.39949 20.5061 5.38864L20.5206 5.38809C18.9903 3.65136 18.1558 3.25286 18.101 3.22666L18.0985 3.22549ZM11.3286 11.6187C10.2403 9.52282 10.1901 8.60552 10.1901 8.58328L10.1957 8.58422C10.2788 8.59768 11.194 8.74599 13.1535 9.93977L13.1337 9.94671C12.8554 10.0444 12.5754 10.1426 12.6735 10.4901C12.7614 10.8706 13.5389 11.8116 14.3258 12.7639C14.8383 13.3842 15.3547 14.0093 15.6871 14.4873C15.2303 14.1184 14.6377 13.5519 14.0509 12.991L14.0509 12.991C13.161 12.1403 12.2845 11.3023 11.9145 11.1851C11.5759 11.0673 11.4599 11.3259 11.3421 11.5885L11.3286 11.6187ZM4.22476 16.0275C4.23035 16.0498 4.54845 16.9115 6.21151 18.5959L6.2133 18.5802C6.2461 18.2905 6.27946 17.9958 6.64122 18.0122C7.03077 18.0156 8.11142 18.5564 9.21073 19.1065C9.9383 19.4707 10.674 19.8389 11.223 20.0581C10.7619 19.6959 10.0771 19.246 9.39876 18.8003C8.36955 18.1241 7.35533 17.4578 7.16023 17.1227C6.96209 16.8157 7.20905 16.6384 7.44608 16.4683L7.45601 16.4611C5.15674 15.8663 4.24709 16.022 4.22476 16.0275ZM3.38224 26.7693C1.29505 25.6463 0.742553 24.918 0.72581 24.8958L0.726483 24.8954C0.76102 24.8781 1.58159 24.4669 3.94032 24.3621L3.92105 24.3886C3.75352 24.6192 3.58252 24.8546 3.85661 25.0848C4.14332 25.3469 5.31483 25.6882 6.5012 26.0338C7.27767 26.26 8.06051 26.4881 8.6058 26.697C8.01754 26.6483 7.20677 26.5126 6.40459 26.3783L6.40455 26.3783C5.19006 26.175 3.99527 25.975 3.62221 26.0855C3.26864 26.1722 3.32332 26.4596 3.378 26.7469L3.38224 26.7693ZM0 34.3967C0.022323 34.4134 0.764568 34.9471 3.09174 35.403L3.08661 35.3934C2.9486 35.135 2.80536 34.8669 3.11405 34.6747C3.43653 34.4605 4.63651 34.3007 5.856 34.1384L5.85618 34.1383L5.85624 34.1383C6.6627 34.031 7.47767 33.9224 8.05302 33.7963C7.46801 33.7567 6.65247 33.7693 5.84404 33.7818C4.60877 33.8009 3.39011 33.8198 3.03593 33.6518C2.70609 33.5117 2.8006 33.236 2.89309 32.9661L2.90198 32.9402C0.680841 33.7407 0.0167423 34.38 0 34.3967ZM2.12589 43.6875L2.12077 43.686C2.13193 43.6638 2.57282 42.8577 4.47027 41.44L4.46931 41.4653C4.45816 41.7572 4.44709 42.0471 4.8051 42.0849C5.19428 42.1422 6.36124 41.7641 7.54063 41.3819C8.30614 41.1339 9.07689 40.8841 9.6436 40.7507C9.13038 41.0419 8.37984 41.3864 7.63777 41.727L7.63771 41.727L7.63763 41.7271C6.52381 42.2384 5.42909 42.7409 5.1846 43.0411C4.94406 43.3134 5.15337 43.5217 5.36136 43.7287L5.37434 43.7416C3.09276 43.978 2.20308 43.7107 2.12589 43.6875ZM6.89792 51.9412L6.89946 51.9412C6.94717 51.9416 7.87267 51.9501 10.0232 51.0406L10.007 51.032C9.74957 50.8958 9.48493 50.7558 9.63252 50.4291C9.77691 50.0711 10.679 49.2664 11.5959 48.4483C12.2029 47.9068 12.8164 47.3595 13.2209 46.9322C12.7117 47.2291 12.0384 47.7016 11.3725 48.169L11.3725 48.169C10.3674 48.8745 9.37897 49.5683 8.9963 49.6285C8.64134 49.6992 8.56424 49.4133 8.48789 49.1301L8.48286 49.1115C7.08209 51.0183 6.89792 51.9134 6.89792 51.9412ZM16.6193 56.6445C14.8112 58.1678 13.9238 58.4179 13.9015 58.4235C13.8959 58.4013 13.8067 57.4895 14.5768 55.2491L14.5874 55.2662C14.7402 55.5112 14.8968 55.7622 15.2186 55.5938C15.5678 55.4232 16.3088 54.4678 17.0614 53.4976C17.5597 52.8552 18.0631 52.2063 18.461 51.7745C18.2009 52.3015 17.7771 53.0049 17.3576 53.701L17.3576 53.701C16.724 54.7525 16.1004 55.7873 16.0668 56.172C16.0232 56.5307 16.3156 56.5865 16.5999 56.6408L16.6193 56.6445ZM22.5127 62.571C22.535 62.5599 23.3052 62.0596 24.5832 60.0749L24.561 60.0774C24.2722 60.1102 23.9788 60.1435 23.9135 59.7858C23.8298 59.4089 24.1177 58.2436 24.4109 57.0571C24.6064 56.2658 24.8042 55.4651 24.8957 54.8824C24.6431 55.4122 24.3553 56.1768 24.0704 56.9338C23.6377 58.0833 23.2117 59.2152 22.9257 59.48C22.6667 59.738 22.4403 59.5406 22.2196 59.3483L22.2113 59.341C22.1452 61.6689 22.4927 62.522 22.5121 62.5696L22.5127 62.571ZM23.908 32.028C23.908 27.5861 27.5355 23.9725 31.9945 23.9725C36.4591 23.9725 40.081 27.5861 40.081 32.028C40.081 36.47 36.4535 40.0836 31.9945 40.0836C27.5355 40.0836 23.908 36.47 23.908 32.028Z" fill="inherit"/>
</svg>