<svg width="26" height="26" viewBox="0 0 26 26" fill="none" xmlns="http://www.w3.org/2000/svg">
<g id="Frame 18">
<path id="Vector" fill-rule="evenodd" clip-rule="evenodd" d="M10.6398 0.135159C10.2491 0.344459 10.0569 0.724101 10.0157 1.15349C9.99801 1.36121 9.9714 1.56745 9.93523 1.77285C9.85844 2.20884 9.71296 2.82493 9.44036 3.52165C8.89658 4.91145 7.85675 6.60215 5.84998 7.85828C3.02191 9.62849 1.9729 13.606 2.42117 17.1668C2.87883 20.8022 4.95168 24.5701 9.0529 25.9393C9.46154 26.0758 9.91194 25.9784 10.228 25.6852C10.6147 25.3266 10.6344 24.8513 10.5361 24.3715C10.464 24.0194 10.3113 23.1377 10.3113 22.0846C10.3113 21.7438 10.327 21.3941 10.3634 21.0436C10.9937 22.4906 11.8481 23.5459 12.7021 24.3006C13.9725 25.4233 15.173 25.8315 15.5303 25.9369C15.8015 26.0169 16.0897 26.0219 16.3553 25.9154C19.4912 24.6591 21.4654 22.9542 22.5683 21.005C23.6687 19.0601 23.8237 17.0094 23.5775 15.202C23.3327 13.4039 22.6861 11.7979 22.1176 10.6591C21.6876 9.79794 21.2911 9.18091 21.1091 8.91083C20.8859 8.57985 20.5951 8.32436 20.181 8.2772C19.851 8.23961 19.5204 8.34305 19.2705 8.5621L17.4235 10.1808C17.5821 7.61345 16.6803 5.45642 15.561 3.83086C14.7482 2.65045 13.8208 1.74389 13.1026 1.13445C12.7418 0.828237 12.4289 0.593027 12.2025 0.431965C12.0891 0.351351 11.9971 0.289034 11.931 0.24543C11.5396 -0.0128539 11.0703 -0.0953415 10.6398 0.135159ZM7.96737 22.7565C7.95693 22.5419 7.95088 22.3171 7.95088 22.0846C7.9509 20.8401 8.12411 19.2695 8.8101 17.8095C9.03987 17.3207 9.32717 16.8441 9.68476 16.3964C9.98564 16.0197 10.4849 15.8639 10.9461 16.0028C11.4073 16.1417 11.7381 16.5474 11.7817 17.0278C12.0486 19.969 13.2293 21.6138 14.2637 22.5279C14.7924 22.9952 15.3023 23.288 15.6717 23.4616C17.0974 23.6358 19.912 20.9046 20.5146 19.8395C21.2952 18.46 21.4353 16.9646 21.2388 15.5215C21.0093 13.8361 20.3198 12.2764 19.7712 11.2646L16.1043 14.4783C15.6851 14.8457 15.0663 14.8695 14.6202 14.5353C14.1741 14.2011 14.022 13.6 14.2555 13.0934C15.8087 9.72278 14.9199 7.06386 13.6179 5.17301C13.101 4.42245 12.5193 3.79749 11.999 3.3134C11.9044 3.64561 11.7862 4.00568 11.6381 4.38418C11.4277 4.92166 11.1565 5.4982 10.8074 6.08515C10.0257 7.39946 8.85354 8.76598 7.10094 9.86301C5.38695 10.9358 4.37073 13.755 4.76302 16.871C5.05876 19.2203 6.12444 21.419 7.96737 22.7565Z" fill="#5EB1BF"/>
</g>
</svg>
