<svg width="27" height="26" viewBox="0 0 27 26" fill="none" xmlns="http://www.w3.org/2000/svg">
<path fill-rule="evenodd" clip-rule="evenodd" d="M18.5459 1C22.8996 1 26.1824 2.84826 26.1824 5.29969C26.1824 5.31145 26.1809 5.32303 26.1794 5.33463C26.1781 5.34422 26.1768 5.35381 26.1764 5.36353H26.1818V20.6365H26.1785C26.1788 20.6454 26.1794 20.6548 26.1801 20.6643C26.1809 20.6765 26.1818 20.6888 26.1818 20.7003C26.1818 23.1517 22.899 25 18.5453 25H16.3642V22.8182H18.5453C21.8245 22.8182 24 21.5436 24 20.7003C24 20.5148 23.8786 20.3006 23.6704 20.0852C22.334 20.7516 20.5571 21.1498 18.5453 21.1498H16.3642V18.9681H18.5453C21.8245 18.9681 24 17.6934 24 16.8502C24 16.6649 23.8786 16.4507 23.6707 16.2351C22.3346 16.9015 20.5574 17.2997 18.5456 17.2997L17.7897 17.3033C17.5451 17.3054 17.3044 17.3069 17.0679 17.3069C16.8203 17.3069 16.5774 17.3048 16.3376 17.2988L16.391 15.1179C16.8276 15.1296 17.2752 15.1256 17.7368 15.1215L17.7733 15.1212L18.5456 15.1176C21.8248 15.1176 24.0003 13.843 24.0003 12.9997C24.0003 12.8121 23.8762 12.5991 23.6689 12.3852C22.3331 13.051 20.5565 13.4486 18.5459 13.4486H16.3648V11.2669H18.5459C21.8251 11.2669 24.0006 9.99224 24.0006 9.14955C24.0006 8.96281 23.875 8.74983 23.668 8.53565C22.3322 9.20115 20.5562 9.59879 18.5459 9.59879C16.3668 9.59879 14.4565 9.13583 13.0912 8.36591V8.63617H10.9095V5.36353H10.9148C10.9145 5.35353 10.9134 5.34372 10.9122 5.3339C10.9108 5.32263 10.9095 5.31133 10.9095 5.29969C10.9095 2.84826 14.1922 1 18.5459 1ZM18.5459 3.18176C15.2667 3.18176 13.0912 4.4564 13.0912 5.29969C13.0912 6.14239 15.2667 7.41702 18.5459 7.41702C21.8251 7.41702 24.0006 6.14239 24.0006 5.29969C24.0006 4.4564 21.8251 3.18176 18.5459 3.18176ZM0 12.9357C0 10.4843 3.28279 8.63606 7.63647 8.63606C11.9902 8.63606 15.2729 10.4846 15.2729 12.936C15.2729 12.9475 15.2716 12.9588 15.2702 12.97C15.269 12.9799 15.2679 12.9898 15.2676 12.9999H15.2729V20.6361C15.2729 23.0875 11.9902 24.9357 7.63647 24.9357C3.28279 24.9357 0 23.0875 0 20.6361V12.9996H0.00536942C0.00509161 12.9896 0.00390834 12.9798 0.0027231 12.97C0.00136286 12.9587 0 12.9474 0 12.9357ZM2.51228 16.1711C2.30496 16.385 2.18176 16.5977 2.18176 16.7862C2.18176 17.6289 4.35726 18.9032 7.63647 18.9032C10.9157 18.9032 13.0912 17.6286 13.0912 16.7859C13.0912 16.5992 12.9656 16.3862 12.7586 16.172C11.4228 16.8375 9.64671 17.2351 7.63647 17.2351C5.62534 17.2351 3.84836 16.8372 2.51228 16.1711ZM13.0912 12.936C13.0912 12.0928 10.9157 10.8181 7.63647 10.8181C4.35726 10.8181 2.18176 12.0928 2.18176 12.936C2.18176 13.7787 4.35726 15.0534 7.63647 15.0534C10.9157 15.0534 13.0912 13.7787 13.0912 12.936ZM2.18176 20.6364C2.18176 21.4796 4.35726 22.7543 7.63647 22.7543C10.9157 22.7543 13.0912 21.4796 13.0909 20.6367C13.0909 20.449 12.9668 20.236 12.7595 20.0222C11.4237 20.688 9.64701 21.0856 7.63647 21.0856C5.62563 21.0856 3.84926 20.6877 2.51317 20.0219C2.30615 20.2357 2.18176 20.4487 2.18176 20.6364Z" fill="#5EB1BF"/>
</svg>
