<svg  viewBox="0 0 40 40" fill="inherit" xmlns="http://www.w3.org/2000/svg">
<path fill-rule="evenodd" clip-rule="evenodd" d="M34.9438 29.4359C31.8122 34.3851 26.2899 37.6712 20 37.6712C15.0629 37.6712 10.5986 35.6465 7.39231 32.3822C6.12376 27.9697 6.65366 23.2905 8.71822 19.3289C8.70522 19.5509 8.69863 19.7747 8.69863 20C8.69863 24.1827 10.9709 27.8347 14.3484 29.7889L14.3483 29.789C20.9728 33.6136 28.8758 33.2178 34.9438 29.4359ZM14.2574 10.2643C7.68388 14.1223 4.11984 21.1658 4.39484 28.2991C3.07614 25.8247 2.32877 22.9996 2.32877 20C2.32877 11.7413 7.99423 4.80578 15.6507 2.86801C20.1009 3.99431 23.8784 6.809 26.2619 10.5906C24.4694 9.39532 22.3161 8.69863 20 8.69863C17.9035 8.69863 15.9403 9.2695 14.2574 10.2643ZM37.0116 24.7999C33.8111 28.0913 29.4844 29.9559 25.0174 30.1293C28.7416 28.2811 31.3014 24.4395 31.3014 20L31.3013 19.969C31.2897 12.3344 27.0004 5.70265 20.7018 2.34245C30.136 2.71092 37.6712 10.4755 37.6712 20C37.6712 21.6637 37.4413 23.2736 37.0116 24.7999ZM27.8214 15.5998C28.5513 16.8944 28.969 18.3883 28.9726 19.9795L28.9726 20L28.9726 20C28.9726 21.5988 28.5544 23.1 27.8214 24.4001C26.9254 22.8643 24.2681 20.0372 20.1555 20.0001C24.2682 19.9629 26.9255 17.1356 27.8214 15.5998ZM27.7514 15.478C26.2015 12.8269 23.3305 11.0424 20.0414 11.0275C20.939 12.5364 22.1276 16.2857 20.0679 19.8834C22.1549 16.3525 25.9608 15.4798 27.7514 15.478ZM19.9584 11.0275C16.6694 11.0424 13.7985 12.8269 12.2486 15.478C14.0361 15.4797 17.8325 16.3495 19.9219 19.8657C17.8762 16.2734 19.0624 12.5339 19.9584 11.0275ZM12.1787 15.5996C11.4456 16.8998 11.0274 18.401 11.0274 20C11.0274 21.5989 11.4456 23.1001 12.1786 24.4002C13.0746 22.8643 15.7319 20.0371 19.8447 20.0001C15.7318 19.9628 13.0745 17.1354 12.1787 15.5996ZM12.2486 24.5222C13.7985 27.1731 16.6695 28.9576 19.9584 28.9725C19.0613 27.4644 17.8736 23.7183 19.9287 20.1224C17.841 23.6484 14.0383 24.5203 12.2486 24.5222ZM20.0415 28.9725C23.3305 28.9576 26.2014 27.1732 27.7514 24.5222C25.9598 24.5202 22.1511 23.6466 20.0649 20.1114C22.1287 23.7107 20.9394 27.4628 20.0415 28.9725ZM40 20C40 31.0457 31.0457 40 20 40C8.9543 40 0 31.0457 0 20C0 8.9543 8.9543 0 20 0C31.0457 0 40 8.9543 40 20ZM20.0001 20.0001L20.0003 20.0001L20.0087 20.0148L19.9999 20.0001L20.0001 20.0001ZM19.9999 20.0001L19.9977 20.0039L19.9998 20.0001L19.9999 20.0001ZM20.0001 20L20.0001 20.0001L20 19.9999L20.0055 19.9906L20.0002 20L20.0001 20Z" fill="inherit"/>
</svg>